# Blender v2.90.1 OBJ File: 'Crystal_OBJ.blend'
# www.blender.org
mtllib Crystal_23_low.mtl
o Crystal_23_low
v -0.189393 0.192177 -0.021488
v -0.144345 0.267930 -0.133866
v -0.117293 0.035833 -0.006117
v 0.193498 0.226780 -0.064664
v 0.114532 0.000617 -0.018779
v 0.027482 0.226471 -0.187217
v -0.181012 0.313539 0.095877
v -0.089048 0.434403 -0.072303
v 0.002233 0.436273 0.124828
v -0.165665 0.309396 0.118640
v -0.050123 0.303312 0.183951
v 0.208820 0.231852 -0.025893
v 0.085381 0.231039 0.170972
v 0.102990 0.086137 0.132091
v -0.097733 0.041653 0.037010
v 0.173904 0.313469 0.030590
v 0.097777 0.436721 0.028102
v 0.097973 0.352311 -0.130975
v 0.069030 -0.004508 0.109050
v -0.001586 0.003534 -0.103097
v -0.086527 -0.000791 -0.022612
v 0.029112 0.451447 -0.119801
v -0.112138 0.425563 0.054051
v -0.082145 0.284217 -0.178347
vt 0.341526 0.734487
vt 0.337474 0.861218
vt 0.208090 0.636217
vt 0.579778 0.300193
vt 0.346218 0.208461
vt 0.656651 0.145990
vt 0.462527 0.709013
vt 0.548947 0.920431
vt 0.663955 0.627622
vt 0.469436 0.687752
vt 0.502146 0.598885
vt 0.563610 0.332606
vt 0.499369 0.483851
vt 0.392482 0.410375
vt 0.229723 0.594329
vt 0.605162 0.399307
vt 0.741851 0.476424
vt 0.725147 0.271970
vt 0.282293 0.384794
vt 0.049966 0.718764
vt 0.752808 0.821204
vt 0.939870 0.758600
vt 0.939870 0.891790
vt 0.852931 0.309690
vt 0.826515 0.505476
vt 0.825643 0.718572
vt 0.752808 0.615400
vt 0.772126 0.059806
vt 0.424734 0.047120
vt 0.951529 0.712521
vt 0.962168 0.191030
vt 0.804823 0.718797
vt 0.951529 0.551920
vt 0.756030 0.893758
vt 0.156031 0.624458
vt 0.575548 0.765035
vt 0.311052 0.947665
vn -0.9708 -0.2157 -0.1047
vn -0.7882 0.0464 -0.6136
vn -0.8382 -0.5416 -0.0638
vn 0.8348 0.0080 -0.5506
vn 0.6266 -0.7482 -0.2181
vn 0.2106 -0.1010 -0.9723
vn -0.9346 0.1837 0.3044
vn -0.5409 0.7741 -0.3288
vn 0.0959 0.7746 0.6251
vn -0.6841 0.0840 0.7245
vn -0.2217 0.0943 0.9705
vn 0.9961 0.0825 -0.0301
vn 0.4606 0.0164 0.8874
vn 0.5711 -0.3012 0.7636
vn -0.6136 -0.5346 0.5812
vn 0.8916 0.3781 0.2493
vn 0.6114 0.7737 0.1662
vn 0.6450 0.4148 -0.6417
vn 0.2144 -0.7622 0.6107
vn -0.0368 -0.7396 -0.6720
vn -0.5682 -0.7974 -0.2032
vn 0.1993 0.7992 -0.5671
vn -0.5733 0.7912 0.2129
vn -0.3452 0.1214 -0.9306
g Crystal_23_low_Crystal_23_low_Default_OBJ.038
usemtl Default_OBJ.038
s 1
f 1/1/1 2/2/2 3/3/3
f 4/4/4 5/5/5 6/6/6
f 2/2/2 7/7/7 8/8/8
f 9/9/9 10/10/10 11/11/11
f 12/12/12 13/13/13 14/14/14
f 11/11/11 10/10/10 15/15/15
f 13/13/13 16/16/16 17/17/17
f 6/6/6 18/18/18 4/4/4
f 12/12/12 14/14/14 5/5/5
f 19/19/19 11/11/11 15/15/15
f 3/3/3 2/2/2 20/20/20
f 21/21/21 5/22/5 19/23/19
f 17/17/17 4/4/4 22/24/22
f 9/25/9 8/26/8 23/27/23
f 6/6/6 24/28/24 18/18/18
f 20/29/20 24/28/24 6/6/6
f 22/30/22 8/26/8 9/25/9
f 22/24/22 24/28/24 8/31/8
f 20/32/20 5/22/5 21/21/21
f 20/29/20 6/6/6 5/5/5
f 11/11/11 13/13/13 9/9/9
f 14/14/14 13/13/13 11/11/11
f 22/30/22 9/25/9 17/33/17
f 13/13/13 17/17/17 9/9/9
f 4/4/4 18/18/18 22/24/22
f 22/24/22 18/18/18 24/28/24
f 14/14/14 11/11/11 19/19/19
f 14/14/14 19/19/19 5/5/5
f 15/15/15 10/10/10 3/3/3
f 19/23/19 15/34/15 21/21/21
f 3/3/3 20/20/20 21/35/21
f 15/15/15 3/3/3 21/35/21
f 2/2/2 1/1/1 7/7/7
f 3/3/3 10/10/10 1/1/1
f 8/8/8 7/7/7 23/36/23
f 10/10/10 9/9/9 23/36/23
f 5/5/5 4/4/4 12/12/12
f 16/16/16 4/4/4 17/17/17
f 1/1/1 10/10/10 7/7/7
f 10/10/10 23/36/23 7/7/7
f 16/16/16 13/13/13 12/12/12
f 16/16/16 12/12/12 4/4/4
f 24/37/24 20/20/20 2/2/2
f 8/8/8 24/37/24 2/2/2
