# Blender v2.90.1 OBJ File: 'Crystal_OBJ.blend'
# www.blender.org
mtllib Crystal_19_low.mtl
o Crystal_19_low
v 0.170255 0.385838 0.049782
v 0.113388 1.349265 0.063931
v 0.092021 0.363405 0.118081
v -0.005340 0.902103 -0.052544
v -0.087225 0.065065 -0.072665
v -0.085680 0.905296 -0.033603
v -0.036906 0.275446 0.154261
v -0.154356 0.932790 0.124608
v -0.103111 0.087755 0.154367
v -0.207575 0.664301 -0.055977
v -0.120191 0.420522 -0.047341
v 0.027485 0.320447 0.102863
v -0.038234 0.057274 0.160111
v -0.039627 0.005371 0.028120
v 0.031802 0.022832 0.089790
v -0.167177 0.006349 0.095357
v 0.028317 1.027001 0.004354
v -0.017131 1.010332 0.073869
v 0.016922 1.008068 0.074298
v 0.072629 1.245271 0.096072
v 0.019064 1.098259 0.085793
v 0.031730 1.444828 -0.007840
v 0.009412 1.519029 -0.055272
v 0.008223 0.633252 -0.100518
v 0.019301 0.571971 0.096126
v -0.033288 1.059475 0.102889
v -0.066688 0.977199 0.133045
v 0.044878 -0.034620 0.035215
v 0.181522 0.974410 -0.105034
v 0.191948 0.391285 -0.085975
v 0.156193 0.397882 -0.118793
v 0.023454 -0.019631 -0.048160
v 0.095058 -0.022979 -0.125301
v 0.084951 -0.037837 -0.050147
v 0.080002 0.259055 -0.127242
v 0.050111 0.537448 -0.111479
v -0.123750 0.007416 -0.076168
v -0.011442 0.055424 -0.076712
v -0.033297 0.007979 -0.020213
v -0.023709 0.062228 -0.061917
v 0.063289 0.044882 0.121807
v 0.200003 1.270377 0.016207
v 0.161757 1.296355 -0.053009
v 0.129945 1.287446 0.038339
v 0.027839 1.448181 0.031150
v -0.180072 0.212622 0.101491
v -0.239941 0.496616 0.055731
v -0.276241 0.031718 0.061052
v 0.069654 1.798654 -0.007097
v 0.077726 1.771946 -0.096188
v 0.030618 1.367816 -0.111416
v -0.170765 0.380889 0.097674
v 0.101091 1.054663 -0.086419
v 0.143174 1.753740 -0.026670
v 0.129815 1.751373 -0.080942
v -0.162228 1.137249 0.077159
v -0.164014 0.588619 0.070425
v -0.171965 1.132071 0.040433
v -0.249569 0.522664 0.004268
v -0.019542 1.026855 0.003664
v 0.090717 0.037112 0.125480
v 0.155633 -0.006130 0.058795
v 0.208395 0.371423 0.034165
v -0.093142 1.150832 0.063343
v -0.094238 1.409173 0.051202
v -0.255868 0.087172 -0.031235
v 0.122309 1.460081 0.011820
v -0.223732 1.200419 -0.025453
v -0.139831 1.388823 -0.044515
v 0.092814 1.468607 0.022382
v -0.031245 1.362517 -0.016632
v -0.033951 1.154163 0.044554
v 0.127709 0.035610 -0.122492
v 0.162763 -0.030431 -0.051507
v 0.202299 -0.022929 0.049034
v 0.033577 1.641156 -0.016580
v 0.240972 0.036012 -0.046651
v 0.089619 1.681950 0.011594
v -0.041776 1.147122 0.068832
v 0.224378 -0.022566 -0.055936
vt 0.843081 0.535465
vt 0.855164 0.181991
vt 0.885054 0.542628
vt 0.573362 0.315895
vt 0.558456 0.628425
vt 0.542663 0.314219
vt 0.732435 0.308324
vt 0.683812 0.554982
vt 0.706147 0.235838
vt 0.501789 0.409010
vt 0.539203 0.496090
vt 0.764006 0.326752
vt 0.731390 0.222500
vt 0.105548 0.877625
vt 0.074457 0.897018
vt 0.093731 0.823689
vt 0.770706 0.602653
vt 0.738855 0.589251
vt 0.752495 0.583593
vt 0.871575 0.214466
vt 0.893097 0.258590
vt 0.901146 0.290098
vt 0.899205 0.141567
vt 0.923071 0.279155
vt 0.147265 0.390423
vt 0.148280 0.155584
vt 0.167665 0.494773
vt 0.758115 0.425520
vt 0.723572 0.602242
vt 0.712455 0.570934
vt 0.098587 0.911004
vt 0.560538 0.833916
vt 0.769067 0.821772
vt 0.766642 0.840700
vt 0.129009 0.908770
vt 0.150422 0.940913
vt 0.123930 0.931947
vt 0.211646 0.651559
vt 0.211472 0.508643
vt 0.220454 0.547385
vt 0.151701 0.855395
vt 0.198681 0.757378
vt 0.157905 0.753640
vt 0.158994 0.719612
vt 0.584367 0.651990
vt 0.582468 0.627101
vt 0.909623 0.456142
vt 0.912926 0.558069
vt 0.056968 0.903710
vt 0.469226 0.793260
vt 0.445689 0.817140
vt 0.449289 0.769920
vt 0.885467 0.151596
vt 0.395462 0.389712
vt 0.341708 0.489909
vt 0.369647 0.308449
vt 0.116858 0.786571
vt 0.134361 0.056126
vt 0.166961 0.065927
vt 0.171701 0.209358
vt 0.670202 0.353482
vt 0.051986 0.864074
vt 0.530038 0.859806
vt 0.354970 0.112742
vt 0.318430 0.277670
vt 0.334533 0.110077
vt 0.677584 0.617460
vt 0.357791 0.534089
vt 0.302489 0.750579
vt 0.319819 0.498564
vt 0.768205 0.753642
vt 0.122376 0.342102
vt 0.127608 0.181405
vt 0.584367 0.265419
vt 0.566879 0.266025
vt 0.054543 0.914439
vt 0.076961 0.946396
vt 0.775205 0.770325
vt 0.270955 0.241940
vt 0.276792 0.360411
vt 0.758923 0.612212
vt 0.330692 0.770326
vt 0.297996 0.824362
vt 0.329536 0.325314
vt 0.156771 0.795587
vt 0.354970 0.222128
vt 0.353109 0.286510
vt 0.480338 0.208936
vt 0.508321 0.135911
vt 0.263319 0.771456
vt 0.863572 0.132197
vt 0.312917 0.843689
vt 0.350040 0.786398
vt 0.389165 0.770382
vt 0.156771 0.964120
vt 0.118015 0.960609
vt 0.930791 0.864893
vt 0.909080 0.852602
vt 0.843351 0.201937
vt 0.848694 0.134756
vt 0.275800 0.836026
vt 0.151482 0.717077
vt 0.663607 0.624197
vt 0.661305 0.435621
vt 0.077730 0.965204
vt 0.136299 0.113506
vt 0.417463 0.308206
vt 0.668318 0.284479
vt 0.673740 0.201607
vt 0.856894 0.692784
vt 0.893531 0.673707
vt 0.930791 0.759835
vt 0.923396 0.741189
vt 0.549555 0.142376
vt 0.906030 0.799807
vt 0.117608 0.096815
vt 0.104187 0.169545
vt 0.713262 0.632589
vt 0.203595 0.888411
vt 0.225140 0.886863
vt 0.225140 0.921605
vt 0.316273 0.098947
vt 0.123584 0.883666
vt 0.695963 0.630369
vt 0.135585 0.738736
vt 0.382429 0.455421
vt 0.100586 0.065851
vt 0.195415 0.907555
vt 0.475084 0.461610
vt 0.492384 0.623361
vt 0.770706 0.209550
vt 0.904462 0.669879
vt 0.923071 0.677582
vt 0.716240 0.641847
vt 0.112146 0.983210
vt 0.545747 0.650358
vt 0.092752 0.170457
vt 0.929680 0.804063
vn 0.5242 0.0225 0.8513
vn 0.5511 0.2236 0.8039
vn 0.2357 0.0243 0.9715
vn -0.6892 0.1412 -0.7107
vn 0.1590 -0.1143 -0.9806
vn 0.0354 0.0853 -0.9957
vn 0.2876 0.0298 0.9573
vn -0.6657 0.0596 0.7438
vn -0.3514 -0.1347 0.9265
vn -0.2828 0.0221 -0.9589
vn 0.0117 0.0542 -0.9985
vn 0.1949 0.0301 0.9804
vn 0.2423 -0.3972 0.8852
vn -0.1365 -0.9837 0.1170
vn -0.1136 -0.6524 0.7493
vn -0.2860 -0.7770 0.5608
vn -0.9002 0.4351 0.0201
vn 0.7471 0.4354 0.5024
vn -0.8215 0.3347 0.4616
vn 0.0108 0.1191 0.9928
vn -0.7958 0.0382 0.6044
vn -0.9010 0.2150 0.3767
vn -0.9922 0.0906 -0.0852
vn -0.6566 0.0108 -0.7541
vn 0.1881 0.0382 0.9814
vn 0.6486 0.2981 0.7003
vn 0.2032 0.1379 0.9694
vn -0.1720 -0.9325 0.3175
vn 0.5596 0.0565 -0.8269
vn 0.8808 0.0297 -0.4725
vn 0.2471 0.0124 -0.9689
vn -0.4994 -0.7954 -0.3435
vn -0.0072 -0.6110 -0.7916
vn -0.0744 -0.9946 -0.0725
vn 0.0832 0.0037 -0.9965
vn -0.1059 0.0411 -0.9935
vn -0.0458 -0.6633 -0.7470
vn -0.6776 -0.2517 -0.6910
vn -0.2296 -0.8719 -0.4326
vn -0.4036 -0.3214 -0.8566
vn -0.3965 -0.2759 0.8756
vn 0.8146 0.4461 0.3707
vn 0.8526 0.2085 -0.4792
vn 0.8066 0.2078 0.5534
vn -0.6708 0.5803 0.4618
vn -0.4853 0.0278 0.8739
vn -0.7431 0.2274 0.6294
vn -0.7840 -0.5329 0.3184
vn -0.3157 0.8309 0.4581
vn -0.2869 0.6252 -0.7259
vn -0.4063 0.0201 -0.9135
vn -0.5780 0.0272 0.8156
vn 0.1551 0.0617 -0.9860
vn 0.8248 0.4580 0.3315
vn 0.6774 0.4196 -0.6042
vn -0.5589 0.6322 0.5366
vn -0.8919 0.0912 0.4429
vn -0.7624 0.2275 0.6058
vn -0.9764 0.1497 0.1555
vn 0.5852 0.4800 -0.6536
vn 0.2073 -0.3671 0.9068
vn 0.1960 -0.6032 0.7731
vn 0.8551 0.0545 0.5155
vn -0.0316 0.5221 0.8523
vn 0.0193 0.7962 0.6047
vn -0.7387 -0.2109 -0.6402
vn 0.6927 0.1351 0.7085
vn -0.9566 0.1907 -0.2205
vn -0.4278 0.6763 -0.5996
vn 0.0379 0.2862 0.9574
vn 0.8424 0.4233 -0.3335
vn 0.8401 0.2070 0.5014
vn 0.3338 -0.1249 -0.9343
vn 0.1621 -0.9420 -0.2938
vn 0.4752 -0.6140 0.6302
vn -0.8735 0.1564 0.4610
vn 0.9577 -0.0762 -0.2775
vn 0.0335 0.0828 0.9960
vn 0.5217 0.5964 0.6100
vn 0.6467 -0.6498 -0.3993
g Crystal_19_low_Crystal_19_low_Default_OBJ.054
usemtl Default_OBJ.054
s 1
f 1/1/1 2/2/2 3/3/3
f 4/4/4 5/5/5 6/6/6
f 7/7/7 8/8/8 9/9/9
f 10/10/10 6/6/6 11/11/11
f 12/12/12 7/7/7 13/13/13
f 14/14/14 15/15/15 16/16/16
f 17/17/17 18/18/18 19/19/19
f 20/20/20 21/21/21 3/3/3
f 19/22/19 22/23/22 17/24/17
f 4/25/4 23/26/23 24/27/24
f 25/28/25 26/29/26 27/30/27
f 25/28/25 7/7/7 12/12/12
f 28/31/28 15/15/15 14/14/14
f 29/32/29 30/33/30 31/34/31
f 32/35/32 33/36/33 34/37/34
f 35/38/35 24/39/24 36/40/36
f 14/14/14 16/16/16 37/41/37
f 33/42/33 32/43/32 38/44/38
f 39/45/39 5/5/5 40/46/40
f 4/4/4 40/46/40 5/5/5
f 3/3/3 25/47/25 12/48/12
f 28/31/28 41/49/41 15/15/15
f 42/50/42 43/51/43 44/52/44
f 45/53/45 22/23/22 21/21/21
f 46/54/46 47/55/47 48/56/48
f 48/57/48 37/41/37 16/16/16
f 23/26/23 49/58/49 50/59/50
f 23/26/23 51/60/51 24/27/24
f 8/8/8 52/61/52 9/9/9
f 13/62/13 16/16/16 15/15/15
f 53/63/53 29/32/29 31/34/31
f 54/64/54 43/65/43 55/66/55
f 56/67/56 27/30/27 26/29/26
f 57/68/57 58/69/58 59/70/59
f 44/52/44 1/71/1 42/50/42
f 29/32/29 42/50/42 30/33/30
f 17/72/17 22/73/22 4/25/4
f 17/74/17 4/4/4 60/75/60
f 61/76/61 28/31/28 62/77/62
f 42/50/42 63/78/63 30/33/30
f 24/39/24 51/79/51 36/40/36
f 55/66/55 43/65/43 53/80/53
f 60/81/60 18/18/18 17/17/17
f 64/82/64 65/83/65 58/69/58
f 43/51/43 29/32/29 53/63/53
f 43/51/43 42/50/42 29/32/29
f 48/56/48 59/70/59 66/84/66
f 66/85/66 37/41/37 48/57/48
f 20/20/20 45/53/45 21/21/21
f 43/65/43 67/86/67 44/87/44
f 68/88/68 69/89/69 10/10/10
f 68/90/68 58/69/58 65/83/65
f 70/91/70 45/53/45 2/2/2
f 70/91/70 22/23/22 45/53/45
f 34/37/34 62/77/62 28/31/28
f 28/31/28 32/35/32 34/37/34
f 71/92/71 72/93/72 60/94/60
f 6/6/6 10/10/10 69/89/69
f 73/95/73 74/96/74 33/36/33
f 33/97/33 53/63/53 73/98/73
f 1/1/1 44/99/44 2/2/2
f 44/99/44 67/100/67 2/2/2
f 71/92/71 65/83/65 72/93/72
f 68/90/68 65/83/65 69/101/69
f 4/25/4 24/27/24 40/102/40
f 38/44/38 24/39/24 35/38/35
f 8/8/8 58/103/58 57/104/57
f 56/67/56 8/8/8 27/30/27
f 34/37/34 75/105/75 62/77/62
f 63/78/63 42/50/42 1/71/1
f 22/73/22 76/106/76 23/26/23
f 4/25/4 22/73/22 23/26/23
f 48/56/48 16/107/16 46/54/46
f 9/9/9 46/108/46 16/109/16
f 62/110/62 1/1/1 61/111/61
f 75/112/75 1/71/1 62/113/62
f 36/40/36 53/80/53 35/38/35
f 51/79/51 53/80/53 36/40/36
f 60/75/60 6/6/6 71/114/71
f 6/6/6 60/75/60 4/4/4
f 77/115/77 63/78/63 75/112/75
f 63/78/63 1/71/1 75/112/75
f 43/65/43 54/64/54 67/86/67
f 78/116/78 22/73/22 70/117/70
f 60/81/60 79/118/79 26/29/26
f 79/118/79 56/67/56 26/29/26
f 30/33/30 63/78/63 77/115/77
f 30/33/30 77/115/77 31/34/31
f 21/21/21 25/47/25 3/3/3
f 19/19/19 18/18/18 25/28/25
f 55/119/55 50/120/50 49/121/49
f 51/79/51 55/66/55 53/80/53
f 34/37/34 74/96/74 75/105/75
f 33/36/33 74/96/74 34/37/34
f 21/21/21 19/22/19 25/47/25
f 21/21/21 22/23/22 19/22/19
f 7/7/7 9/9/9 13/13/13
f 13/13/13 9/9/9 16/109/16
f 23/26/23 50/59/50 51/60/51
f 50/122/50 55/66/55 51/79/51
f 69/89/69 71/114/71 6/6/6
f 71/92/71 69/101/69 65/83/65
f 28/31/28 14/14/14 32/35/32
f 37/41/37 39/123/39 14/14/14
f 58/103/58 56/67/56 64/124/64
f 56/67/56 58/103/58 8/8/8
f 2/2/2 20/20/20 3/3/3
f 2/2/2 45/53/45 20/20/20
f 14/14/14 39/123/39 32/35/32
f 39/125/39 40/102/40 32/43/32
f 18/18/18 26/29/26 25/28/25
f 60/81/60 26/29/26 18/18/18
f 57/68/57 47/55/47 52/126/52
f 8/8/8 57/104/57 52/61/52
f 54/127/54 78/116/78 70/117/70
f 54/128/54 55/119/55 49/121/49
f 38/44/38 35/38/35 33/42/33
f 35/38/35 53/80/53 33/42/33
f 59/129/59 68/88/68 66/130/66
f 58/69/58 68/90/68 59/70/59
f 15/131/15 12/12/12 13/13/13
f 41/132/41 12/48/12 15/133/15
f 72/134/72 79/118/79 60/81/60
f 72/93/72 65/83/65 64/82/64
f 73/95/73 80/135/80 74/96/74
f 75/105/75 74/96/74 80/135/80
f 64/124/64 79/118/79 72/134/72
f 56/67/56 79/118/79 64/124/64
f 37/136/37 66/130/66 10/10/10
f 66/130/66 68/88/68 10/10/10
f 61/111/61 1/1/1 3/3/3
f 12/48/12 41/132/41 3/3/3
f 5/5/5 39/45/39 37/136/37
f 10/10/10 11/11/11 37/136/37
f 53/63/53 31/34/31 73/98/73
f 77/115/77 73/98/73 31/34/31
f 46/54/46 52/126/52 47/55/47
f 46/108/46 9/9/9 52/61/52
f 37/136/37 11/11/11 5/5/5
f 11/11/11 6/6/6 5/5/5
f 61/76/61 41/49/41 28/31/28
f 3/3/3 41/132/41 61/111/61
f 54/127/54 70/117/70 67/137/67
f 67/100/67 70/91/70 2/2/2
f 38/44/38 40/102/40 24/27/24
f 40/102/40 38/44/38 32/43/32
f 47/55/47 59/70/59 48/56/48
f 47/55/47 57/68/57 59/70/59
f 77/115/77 80/138/80 73/98/73
f 77/115/77 75/112/75 80/138/80
f 22/73/22 78/116/78 76/106/76
f 76/106/76 49/58/49 23/26/23
f 27/30/27 8/8/8 7/7/7
f 25/28/25 27/30/27 7/7/7
f 78/116/78 49/58/49 76/106/76
f 54/127/54 49/58/49 78/116/78
