# Blender v2.90.1 OBJ File: ''
# www.blender.org
mtllib Crystal_01_low.mtl
o Crystal_01_low
v -0.005840 -0.126179 -0.000872
v -0.002519 -0.124301 -0.001630
v -0.002787 -0.129503 0.001155
v -0.005257 -0.128143 0.004914
v 0.000042 -0.083222 0.019241
v 0.012967 -0.089765 0.006502
v -0.002043 0.097250 -0.016366
v 0.016449 0.079515 -0.006466
v -0.001218 0.059532 -0.025902
v 0.021305 0.002728 0.024597
v 0.005337 0.027198 0.021396
v -0.013941 0.004086 0.023675
v -0.015767 -0.091136 0.006887
v -0.022652 -0.065583 0.008782
v -0.008167 -0.093510 -0.007451
v -0.031722 0.011883 -0.006142
v -0.011888 0.038106 0.018776
v -0.019828 0.039106 0.004910
v -0.023529 0.075915 -0.011559
v -0.001228 -0.060392 0.027384
v 0.012655 -0.020768 -0.025929
v 0.021976 -0.012183 -0.014751
v 0.014243 -0.047775 -0.007991
v 0.018789 0.027920 0.021107
v 0.025503 0.012146 0.008962
v 0.010578 -0.032769 0.029638
v 0.021239 -0.061108 0.009098
v 0.024997 -0.017054 0.018457
v 0.028834 -0.038051 0.010299
v 0.030027 -0.009627 -0.002326
v -0.019626 0.003429 -0.029798
v -0.025931 -0.002522 -0.011643
v -0.033657 0.034000 -0.014965
v 0.000169 0.024315 -0.034338
v 0.010384 0.008813 -0.030464
v -0.000752 0.046860 -0.029393
v 0.031971 0.013397 -0.012168
v 0.013605 -0.002058 -0.030165
v -0.003456 -0.014378 0.026387
v -0.004423 -0.034928 0.029623
v -0.014083 -0.014591 0.025353
v -0.029462 -0.032830 0.009981
v -0.003664 0.137029 -0.003681
v 0.001018 0.131045 0.005416
v 0.010212 0.106050 -0.003570
v 0.005060 -0.068806 -0.014922
v -0.015603 -0.035417 -0.021454
v -0.019121 -0.042150 -0.012464
v 0.018691 -0.019414 0.027275
v 0.010086 -0.033705 -0.022844
v 0.024009 0.007747 -0.019659
v -0.005615 0.119645 0.007417
v -0.010345 0.131840 -0.002460
v -0.010720 0.072244 0.012429
v -0.020727 0.056125 0.000149
v 0.023363 0.047815 -0.009281
v 0.020478 0.042021 0.006832
v -0.029426 0.047770 -0.013670
v 0.004658 0.109924 0.010014
v 0.012656 0.065081 0.015704
v -0.021635 -0.019372 -0.014356
v 0.021300 -0.005040 0.025380
v -0.012134 -0.110808 0.004750
v -0.025176 0.065661 -0.012253
v 0.002422 -0.099504 -0.007144
v 0.025856 0.031758 -0.002673
v -0.026943 -0.011377 0.008261
vt 0.141748 0.146563
vt 0.158296 0.155558
vt 0.145160 0.165149
vt 0.141067 0.169909
vt 0.260379 0.295920
vt 0.279717 0.234272
vt 0.865591 0.614279
vt 0.752589 0.574136
vt 0.813585 0.440473
vt 0.492746 0.441219
vt 0.524085 0.527733
vt 0.426236 0.526035
vt 0.181374 0.315996
vt 0.229544 0.403043
vt 0.112268 0.327000
vt 0.375580 0.637745
vt 0.516019 0.597225
vt 0.487588 0.646674
vt 0.575832 0.777336
vt 0.653721 0.876921
vt 0.480187 0.864321
vt 0.310896 0.361291
vt 0.550629 0.249848
vt 0.545821 0.307568
vt 0.436401 0.246321
vt 0.552430 0.493129
vt 0.548085 0.426347
vt 0.393921 0.395241
vt 0.369229 0.285426
vt 0.463989 0.384787
vt 0.433574 0.326312
vt 0.524291 0.352006
vt 0.280390 0.704172
vt 0.316226 0.625425
vt 0.422258 0.706212
vt 0.327853 0.833333
vt 0.646615 0.299768
vt 0.786675 0.385868
vt 0.596526 0.379243
vt 0.696812 0.185911
vt 0.720365 0.309997
vt 0.610302 0.280748
vt 0.405746 0.462855
vt 0.359080 0.422203
vt 0.383129 0.486278
vt 0.291975 0.494474
vt 0.870929 0.797543
vt 0.819585 0.788111
vt 0.802965 0.672601
vt 0.384431 0.178419
vt 0.278191 0.110294
vt 0.535881 0.124846
vt 0.203113 0.515879
vt 0.438018 0.404393
vt 0.507983 0.227772
vt 0.604909 0.341693
vt 0.765969 0.770654
vt 0.777986 0.823392
vt 0.618083 0.673871
vt 0.532437 0.697507
vt 0.806068 0.842149
vt 0.678619 0.467798
vt 0.620728 0.495722
vt 0.470038 0.730043
vt 0.764137 0.717510
vt 0.648860 0.585953
vt 0.257218 0.590071
vt 0.183146 0.561140
vt 0.475054 0.426319
vt 0.107962 0.190793
vt 0.146931 0.247617
vt 0.537501 0.761122
vt 0.255888 0.159694
vt 0.424125 0.856194
vt 0.619347 0.444430
vt 0.346714 0.543384
vn -0.6149 -0.4620 -0.6391
vn 0.4408 -0.3126 -0.8414
vn -0.2443 -0.9477 -0.2054
vn -0.2952 -0.7204 0.6276
vn 0.4199 -0.3045 0.8550
vn 0.9317 -0.3226 0.1671
vn 0.1104 0.2750 -0.9551
vn 0.9263 0.2404 -0.2900
vn 0.1039 0.2510 -0.9624
vn 0.5976 0.1111 0.7941
vn -0.0220 0.1409 0.9898
vn -0.4848 0.1340 0.8643
vn -0.9453 -0.2448 0.2157
vn -0.9393 -0.2496 0.2354
vn -0.5488 -0.2266 -0.8046
vn -0.9949 -0.0391 0.0926
vn -0.5048 0.1634 0.8476
vn -0.8461 0.1286 0.5172
vn -0.9195 0.2267 -0.3213
vn -0.0938 -0.2508 0.9635
vn 0.4639 -0.2678 -0.8445
vn 0.8237 -0.2489 -0.5095
vn 0.8377 -0.2386 -0.4912
vn 0.5879 0.1929 0.7856
vn 0.9456 0.1109 0.3058
vn 0.3215 -0.0888 0.9427
vn 0.9402 -0.3098 0.1416
vn 0.9057 0.0085 0.4237
vn 0.9615 -0.2449 0.1248
vn 0.9832 -0.1252 -0.1328
vn -0.5500 -0.1260 -0.8256
vn -0.8993 -0.1941 -0.3919
vn -0.9508 0.1715 -0.2580
vn 0.0872 0.1411 -0.9862
vn 0.5717 0.1595 -0.8048
vn 0.0894 0.2403 -0.9666
vn 0.9494 0.0741 -0.3051
vn 0.4254 -0.1206 -0.8969
vn -0.0489 0.1382 0.9892
vn -0.3009 -0.0387 0.9529
vn -0.4889 0.0603 0.8703
vn -0.9567 -0.1196 0.2655
vn 0.0699 0.9527 -0.2956
vn 0.4243 0.6628 0.6170
vn 0.9212 0.2845 -0.2655
vn 0.4383 -0.2587 -0.8608
vn -0.5334 -0.2228 -0.8160
vn -0.8853 -0.1860 -0.4263
vn 0.4679 -0.0130 0.8837
vn 0.4513 -0.2823 -0.8465
vn 0.7086 -0.0289 -0.7051
vn -0.4753 0.2204 0.8518
vn -0.8152 0.5728 -0.0861
vn -0.5368 0.1519 0.8299
vn -0.8607 0.1368 0.4904
vn 0.9180 0.2492 -0.3084
vn 0.9364 0.2021 0.2868
vn -0.9112 0.2774 -0.3045
vn 0.5064 0.2228 0.8330
vn 0.5468 0.2209 0.8076
vn -0.9091 -0.1626 -0.3837
vn 0.5828 0.0898 0.8077
vn -0.9378 -0.2433 0.2476
vn -0.9293 0.2037 -0.3080
vn 0.4592 -0.2706 -0.8461
vn 0.9437 0.2056 0.2591
vn -0.8225 0.1355 0.5523
g Crystal_01_low_Crystal_01_low_defaultMat.001
usemtl defaultMat.001
s 1
f 1/1/1 2/2/2 3/3/3
f 1/1/1 3/3/3 4/4/4
f 5/5/5 4/4/4 6/6/6
f 7/7/7 8/8/8 9/9/9
f 10/10/10 11/11/11 12/12/12
f 13/13/13 14/14/14 15/15/15
f 16/16/16 17/17/17 18/18/18
f 19/19/19 7/20/7 9/21/9
f 20/22/20 14/14/14 13/13/13
f 12/12/12 17/17/17 16/16/16
f 21/23/21 22/24/22 23/25/23
f 24/26/24 10/10/10 25/27/25
f 26/28/26 5/5/5 27/29/27
f 28/30/28 29/31/29 30/32/30
f 31/33/31 32/34/32 33/35/33
f 34/36/34 31/33/31 33/35/33
f 35/37/35 36/38/36 37/39/37
f 31/40/31 34/41/34 38/42/38
f 26/28/26 39/43/39 40/44/40
f 40/44/40 41/45/41 42/46/42
f 11/11/11 17/17/17 12/12/12
f 43/47/43 44/48/44 45/49/45
f 46/50/46 15/51/15 47/52/47
f 15/15/15 14/14/14 48/53/48
f 23/25/23 27/29/27 46/50/46
f 49/54/49 27/29/27 29/31/29
f 40/44/40 20/22/20 26/28/26
f 20/22/20 40/44/40 42/46/42
f 50/55/50 46/50/46 47/52/47
f 46/50/46 50/55/50 23/25/23
f 21/23/21 51/56/51 22/24/22
f 21/23/21 47/52/47 38/42/38
f 52/57/52 53/58/53 54/59/54
f 53/58/53 19/19/19 55/60/55
f 19/19/19 53/58/53 7/20/7
f 53/58/53 44/48/44 43/61/43
f 9/9/9 8/8/8 56/62/56
f 24/26/24 25/27/25 57/63/57
f 42/46/42 14/14/14 20/22/20
f 48/53/48 14/14/14 42/46/42
f 22/24/22 29/31/29 23/25/23
f 23/25/23 29/31/29 27/29/27
f 58/64/58 34/36/34 33/35/33
f 55/60/55 58/64/58 33/35/33
f 59/65/59 60/66/60 45/49/45
f 59/65/59 54/59/54 60/66/60
f 31/40/31 38/42/38 47/52/47
f 61/67/61 31/33/31 47/68/47
f 49/54/49 39/43/39 26/28/26
f 26/28/26 27/29/27 49/54/49
f 62/69/62 39/43/39 49/54/49
f 28/30/28 49/54/49 29/31/29
f 1/1/1 15/51/15 2/2/2
f 15/15/15 1/70/1 63/71/63
f 28/30/28 30/32/30 37/39/37
f 22/24/22 51/56/51 37/39/37
f 64/72/64 55/60/55 19/19/19
f 64/72/64 19/19/19 9/21/9
f 65/73/65 46/50/46 6/6/6
f 15/51/15 46/50/46 65/73/65
f 58/64/58 36/74/36 34/36/34
f 35/37/35 34/41/34 36/38/36
f 5/5/5 20/22/20 4/4/4
f 20/22/20 5/5/5 26/28/26
f 37/39/37 62/69/62 28/30/28
f 62/69/62 49/54/49 28/30/28
f 47/68/47 48/53/48 61/67/61
f 47/68/47 15/15/15 48/53/48
f 57/63/57 25/27/25 66/75/66
f 37/39/37 25/27/25 62/69/62
f 4/4/4 3/3/3 6/6/6
f 3/3/3 2/2/2 6/6/6
f 67/76/67 16/16/16 42/46/42
f 42/46/42 61/67/61 48/53/48
f 45/49/45 7/7/7 43/47/43
f 7/20/7 53/58/53 43/61/43
f 22/24/22 30/32/30 29/31/29
f 22/24/22 37/39/37 30/32/30
f 66/75/66 25/27/25 37/39/37
f 56/62/56 57/63/57 66/75/66
f 54/59/54 17/17/17 60/66/60
f 55/60/55 18/18/18 17/17/17
f 56/62/56 66/75/66 37/39/37
f 37/39/37 36/38/36 56/62/56
f 4/4/4 20/22/20 13/13/13
f 4/4/4 63/71/63 1/70/1
f 32/34/32 42/46/42 16/16/16
f 16/16/16 33/35/33 32/34/32
f 56/62/56 36/38/36 9/9/9
f 36/74/36 64/72/64 9/21/9
f 17/17/17 54/59/54 55/60/55
f 54/59/54 53/58/53 55/60/55
f 51/56/51 21/23/21 38/42/38
f 38/42/38 34/41/34 35/37/35
f 60/66/60 17/17/17 11/11/11
f 57/63/57 60/66/60 24/26/24
f 5/5/5 6/6/6 27/29/27
f 6/6/6 46/50/46 27/29/27
f 42/46/42 32/34/32 61/67/61
f 31/33/31 61/67/61 32/34/32
f 35/37/35 37/39/37 51/56/51
f 38/42/38 35/37/35 51/56/51
f 60/66/60 11/11/11 24/26/24
f 11/11/11 10/10/10 24/26/24
f 4/4/4 13/13/13 63/71/63
f 63/71/63 13/13/13 15/15/15
f 10/10/10 12/12/12 39/43/39
f 42/46/42 41/45/41 67/76/67
f 56/62/56 8/8/8 57/63/57
f 60/66/60 57/63/57 8/8/8
f 2/2/2 15/51/15 65/73/65
f 65/73/65 6/6/6 2/2/2
f 12/12/12 16/16/16 67/76/67
f 41/45/41 12/12/12 67/76/67
f 7/7/7 45/49/45 8/8/8
f 45/49/45 60/66/60 8/8/8
f 44/48/44 53/58/53 52/57/52
f 59/65/59 52/57/52 54/59/54
f 18/18/18 33/35/33 16/16/16
f 18/18/18 55/60/55 33/35/33
f 23/25/23 50/55/50 21/23/21
f 21/23/21 50/55/50 47/52/47
f 44/48/44 52/57/52 59/65/59
f 44/48/44 59/65/59 45/49/45
f 62/69/62 25/27/25 10/10/10
f 10/10/10 39/43/39 62/69/62
f 58/64/58 64/72/64 36/74/36
f 55/60/55 64/72/64 58/64/58
f 39/43/39 41/45/41 40/44/40
f 39/43/39 12/12/12 41/45/41
