# Blender v2.90.1 OBJ File: 'Crystal_OBJ.blend'
# www.blender.org
mtllib Crystal_49_low.mtl
o Crystal_49_low
v -0.119885 0.044961 0.014936
v -0.258225 0.489471 -0.103327
v -0.028767 0.460341 -0.268101
v 0.269063 0.461502 0.105883
v 0.054739 0.032196 -0.085314
v 0.241247 0.415058 -0.205980
v 0.218294 1.382647 -0.013747
v 0.161408 1.700714 0.063577
v 0.265972 0.645205 0.200895
v -0.173189 0.675006 0.203837
v -0.267461 0.651890 0.044882
v -0.171891 0.141624 0.063432
v -0.017678 1.916515 -0.075520
v -0.090702 0.956224 -0.241260
v -0.228919 0.648727 -0.198125
v -0.056914 1.190745 0.216946
v -0.007564 1.932532 -0.000395
v -0.141654 1.362870 0.029863
v 0.184615 0.572504 0.301495
v -0.003121 0.554199 0.274891
v 0.025776 0.107755 0.147482
v 0.087947 1.367528 0.196247
v -0.013177 1.480801 -0.186753
v 0.076197 1.816862 -0.082532
v 0.078774 0.965800 -0.248098
v 0.063136 1.918094 0.021477
v 0.076322 0.874649 0.283939
v 0.030649 -0.015322 0.059731
v -0.017729 0.824873 -0.275797
v 0.294440 0.553540 0.021255
vt 0.160182 0.925083
vt 0.127053 0.683858
vt 0.246135 0.700900
vt 0.486591 0.801256
vt 0.263460 0.884829
vt 0.353953 0.741558
vt 0.917408 0.687423
vt 0.866878 0.820277
vt 0.841046 0.353408
vt 0.624740 0.393605
vt 0.536042 0.392539
vt 0.581699 0.128247
vt 0.361666 0.083462
vt 0.268987 0.491279
vt 0.164551 0.608810
vt 0.717491 0.608275
vt 0.812869 0.957559
vt 0.659751 0.715324
vt 0.783245 0.330537
vt 0.702095 0.331041
vt 0.694314 0.120129
vt 0.794965 0.671298
vt 0.345814 0.267181
vt 0.412046 0.113547
vt 0.344692 0.505680
vt 0.031849 0.605875
vt 0.111788 0.880560
vt 0.210047 0.241543
vt 0.922292 0.903559
vt 0.845592 0.940391
vt 0.864859 0.254034
vt 0.754454 0.460631
vt 0.265527 0.966626
vt 0.286008 0.557581
vt 0.391120 0.033374
vt 0.351536 0.051951
vt 0.486591 0.331663
vt 0.469819 0.729645
vt 0.922292 0.295281
vt 0.602561 0.064657
vt 0.693051 0.042057
vn -0.6658 -0.7436 -0.0612
vn -0.9048 -0.2301 -0.3583
vn -0.1828 -0.2392 -0.9536
vn 0.9017 -0.3366 0.2714
vn 0.2994 -0.7554 -0.5829
vn 0.7245 -0.2593 -0.6386
vn 0.9543 0.1484 -0.2594
vn 0.8397 0.3593 0.4072
vn 0.9000 0.0201 0.4353
vn -0.6666 -0.0005 0.7454
vn -0.9763 0.0346 0.2139
vn -0.8160 -0.4226 0.3944
vn -0.3715 0.7204 -0.5857
vn -0.3764 0.1567 -0.9131
vn -0.7722 -0.0014 -0.6354
vn -0.5004 0.1947 0.8436
vn -0.4385 0.8293 0.3463
vn -0.9571 0.2071 0.2028
vn 0.4181 -0.1571 0.8947
vn -0.2972 -0.1429 0.9441
vn 0.1167 -0.4872 0.8655
vn 0.2109 0.2437 0.9466
vn -0.1740 0.2059 -0.9630
vn 0.6363 0.3570 -0.6838
vn 0.3727 0.1429 -0.9169
vn 0.4795 0.7741 0.4133
vn -0.0255 0.1106 0.9935
vn 0.2259 -0.9197 0.3212
vn -0.0547 0.0498 -0.9973
vn 0.9973 -0.0604 -0.0413
g Crystal_49_low_Crystal_49_low_Default_OBJ.098
usemtl Default_OBJ.098
s 1
f 1/1/1 2/2/2 3/3/3
f 4/4/4 5/5/5 6/6/6
f 7/7/7 8/8/8 9/9/9
f 10/10/10 11/11/11 12/12/12
f 13/13/13 14/14/14 15/15/15
f 16/16/16 17/17/17 18/18/18
f 19/19/19 20/20/20 21/21/21
f 22/22/22 19/19/19 8/8/8
f 23/23/23 24/24/24 25/25/25
f 5/5/5 3/3/3 6/6/6
f 11/26/11 2/2/2 12/27/12
f 13/13/13 15/15/15 18/28/18
f 7/7/7 24/29/24 8/8/8
f 8/8/8 26/30/26 22/22/22
f 19/19/19 9/9/9 8/8/8
f 4/31/4 19/19/19 21/21/21
f 16/16/16 22/22/22 26/30/26
f 27/32/27 20/20/20 19/19/19
f 20/20/20 12/12/12 21/21/21
f 1/1/1 3/3/3 5/5/5
f 1/1/1 5/5/5 28/33/28
f 28/33/28 5/5/5 4/4/4
f 29/34/29 6/6/6 3/3/3
f 29/34/29 3/3/3 15/15/15
f 13/13/13 24/24/24 23/23/23
f 24/29/24 26/30/26 8/8/8
f 26/35/26 24/24/24 13/13/13
f 17/36/17 13/13/13 18/28/18
f 27/32/27 16/16/16 10/10/10
f 10/10/10 16/16/16 18/18/18
f 25/25/25 24/24/24 7/37/7
f 7/37/7 30/38/30 6/6/6
f 27/32/27 10/10/10 20/20/20
f 10/10/10 12/12/12 20/20/20
f 25/25/25 7/37/7 6/6/6
f 29/34/29 25/25/25 6/6/6
f 11/11/11 10/10/10 18/18/18
f 15/15/15 11/26/11 18/28/18
f 7/7/7 9/9/9 30/39/30
f 19/19/19 4/31/4 9/9/9
f 15/15/15 2/2/2 11/26/11
f 3/3/3 2/2/2 15/15/15
f 22/22/22 27/32/27 19/19/19
f 16/16/16 27/32/27 22/22/22
f 14/14/14 29/34/29 15/15/15
f 29/34/29 14/14/14 25/25/25
f 1/40/1 28/41/28 21/21/21
f 4/31/4 21/21/21 28/41/28
f 23/23/23 14/14/14 13/13/13
f 23/23/23 25/25/25 14/14/14
f 4/4/4 6/6/6 30/38/30
f 30/39/30 9/9/9 4/31/4
f 17/17/17 16/16/16 26/30/26
f 26/35/26 13/13/13 17/36/17
f 12/27/12 2/2/2 1/1/1
f 12/12/12 1/40/1 21/21/21
