# Blender v2.90.1 OBJ File: 'Crystal_OBJ.blend'
# www.blender.org
mtllib Crystal_29_low.mtl
o Crystal_29_low
v -0.125693 0.913967 0.074972
v 0.020397 0.795939 0.158694
v -0.038958 0.857829 0.108060
v 0.076543 0.851555 0.060187
v 0.145515 0.846400 0.033456
v 0.099083 0.923562 -0.046183
v 0.139003 0.857705 0.021656
v 0.110326 0.779792 0.136926
v 0.217358 0.550178 -0.033795
v 0.085674 0.914542 -0.108141
v -0.276143 0.073092 -0.012024
v -0.217727 0.270951 -0.134656
v -0.194326 -0.011718 -0.172821
v 0.001403 0.543245 -0.190604
v 0.046542 0.064174 -0.241254
v -0.219910 -0.014722 0.089965
v 0.250825 0.005835 -0.055257
v 0.208266 0.455998 -0.105859
v 0.157174 0.435521 0.146746
v 0.011913 0.281785 0.214580
v 0.190828 0.034486 0.190449
v -0.109744 0.274553 0.151319
v 0.098297 0.034394 0.212184
v -0.015950 0.906735 -0.156265
v -0.191124 0.900077 -0.040020
v -0.068659 0.696589 0.193799
v -0.179077 0.612453 -0.074263
v -0.073860 0.592793 0.182647
v 0.253190 0.294524 -0.038446
v -0.145045 0.883091 -0.122342
v 0.218154 0.062348 -0.151391
v -0.208149 0.128258 0.116823
vt 0.691204 0.746427
vt 0.755141 0.648942
vt 0.734095 0.697464
vt 0.809257 0.694603
vt 0.848982 0.684254
vt 0.295929 0.305590
vt 0.269614 0.371227
vt 0.150636 0.299124
vt 0.319805 0.351441
vt 0.803450 0.632380
vt 0.938432 0.529394
vt 0.261153 0.397508
vt 0.424248 0.519675
vt 0.481746 0.260663
vt 0.438076 0.391056
vt 0.370949 0.225759
vt 0.136161 0.776898
vt 0.263860 0.585057
vt 0.366553 0.886335
vt 0.052262 0.259616
vt 0.030947 0.099764
vt 0.312239 0.107649
vt 0.416070 0.590466
vt 0.822633 0.442836
vt 0.716303 0.353556
vt 0.312239 0.263112
vt 0.630311 0.356308
vt 0.753650 0.185946
vt 0.816446 0.179717
vt 0.218231 0.416458
vt 0.114653 0.386555
vt 0.610730 0.774625
vt 0.699922 0.602732
vt 0.524667 0.598906
vt 0.685753 0.546478
vt 0.984529 0.169922
vt 0.963697 0.360070
vt 0.160243 0.424573
vt 0.166356 0.014903
vt 0.281069 0.043890
vt 0.198778 0.974548
vt 0.852526 0.694106
vt 0.565007 0.269607
vt 0.529409 0.187199
vt 0.497259 0.841351
vt 0.506097 0.659947
vt 0.577959 0.848279
vt 0.117925 0.565661
vt 0.260480 0.289400
vn -0.4288 0.7300 0.5322
vn 0.1686 0.4805 0.8607
vn 0.2644 0.7557 0.5992
vn 0.2824 0.7615 0.5834
vn 0.7907 0.5395 0.2895
vn 0.5286 0.8483 0.0318
vn 0.7408 0.6418 0.1980
vn 0.5749 0.3764 0.7265
vn 0.9812 0.1923 -0.0160
vn 0.4959 0.6876 -0.5303
vn -0.9970 -0.0702 0.0328
vn -0.8592 0.1770 -0.4801
vn -0.4694 -0.6340 -0.6145
vn 0.0529 0.0957 -0.9940
vn 0.1388 -0.4084 -0.9022
vn -0.5405 -0.6931 0.4769
vn 0.7317 -0.6698 -0.1263
vn 0.7477 0.1465 -0.6477
vn 0.6928 0.1175 0.7115
vn -0.0755 0.0280 0.9968
vn 0.5819 -0.5069 0.6359
vn -0.7110 0.1423 0.6887
vn 0.0251 -0.5536 0.8324
vn 0.0190 0.6559 -0.7546
vn -0.8185 0.5733 -0.0372
vn -0.4248 0.1203 0.8973
vn -0.9854 0.0490 0.1629
vn -0.7647 -0.0168 0.6442
vn 0.9962 0.0848 -0.0204
vn -0.5501 0.4723 -0.6888
vn 0.6365 -0.3576 -0.6834
vn -0.7252 0.1714 0.6669
g Crystal_29_low_Crystal_29_low_Default_OBJ.037
usemtl Default_OBJ.037
s 1
f 1/1/1 2/2/2 3/3/3
f 4/4/4 3/3/3 2/2/2
f 1/1/1 3/3/3 4/4/4
f 4/4/4 2/2/2 5/5/5
f 4/6/4 6/7/6 1/8/1
f 4/6/4 7/9/7 6/7/6
f 5/5/5 8/10/8 9/11/9
f 10/12/10 7/9/7 9/13/9
f 11/14/11 12/15/12 13/16/13
f 12/17/12 14/18/14 15/19/15
f 16/20/16 13/21/13 17/22/17
f 15/19/15 14/18/14 18/23/18
f 8/10/8 19/24/19 9/11/9
f 5/5/5 2/2/2 8/10/8
f 8/10/8 20/25/20 19/24/19
f 17/22/17 21/26/21 16/20/16
f 22/27/22 12/15/12 11/14/11
f 23/28/23 21/29/21 20/25/20
f 24/30/24 25/31/25 1/8/1
f 1/1/1 25/32/25 26/33/26
f 27/34/27 28/35/28 26/33/26
f 8/10/8 26/33/26 20/25/20
f 10/12/10 9/13/9 18/23/18
f 21/29/21 17/36/17 29/37/29
f 10/12/10 18/23/18 14/18/14
f 10/12/10 24/30/24 1/8/1
f 7/9/7 10/12/10 6/7/6
f 10/12/10 1/8/1 6/7/6
f 25/32/25 27/34/27 26/33/26
f 30/38/30 25/31/25 24/30/24
f 15/39/15 31/40/31 13/21/13
f 12/17/12 15/19/15 13/41/13
f 4/4/4 5/5/5 7/42/7
f 7/42/7 5/5/5 9/11/9
f 22/27/22 11/14/11 32/43/32
f 16/44/16 11/14/11 13/16/13
f 31/45/31 29/46/29 17/47/17
f 13/21/13 31/40/31 17/22/17
f 26/33/26 8/10/8 2/2/2
f 2/2/2 1/1/1 26/33/26
f 31/45/31 18/23/18 29/46/29
f 31/45/31 15/19/15 18/23/18
f 20/25/20 26/33/26 28/35/28
f 20/25/20 22/27/22 32/43/32
f 30/38/30 14/18/14 12/17/12
f 25/31/25 30/38/30 27/48/27
f 9/11/9 19/24/19 29/37/29
f 29/46/29 18/23/18 9/13/9
f 27/48/27 30/38/30 12/17/12
f 28/35/28 27/34/27 12/15/12
f 21/29/21 29/37/29 19/24/19
f 21/29/21 19/24/19 20/25/20
f 16/20/16 21/26/21 23/49/23
f 23/28/23 20/25/20 32/43/32
f 30/38/30 24/30/24 14/18/14
f 14/18/14 24/30/24 10/12/10
f 16/44/16 32/43/32 11/14/11
f 32/43/32 16/44/16 23/28/23
f 28/35/28 22/27/22 20/25/20
f 22/27/22 28/35/28 12/15/12
