# Blender v2.90.1 OBJ File: 'Crystal_OBJ.blend'
# www.blender.org
mtllib Crystal_38_low.mtl
o Crystal_38_low
v 0.041417 0.130646 0.099989
v -0.044850 0.429525 0.057475
v -0.045852 0.148181 0.095300
v 0.076213 0.276392 -0.033424
v 0.090995 0.246173 0.017619
v 0.087477 0.144146 -0.042683
v -0.101560 0.090187 0.017133
v -0.066811 0.430246 -0.019605
v -0.095095 0.157567 -0.037848
v 0.048529 0.015258 -0.014637
v 0.036293 0.074989 0.077156
v -0.005526 -0.010030 0.050527
v -0.041600 0.018870 -0.046998
v -0.007008 0.282785 -0.083539
v 0.064246 0.390409 -0.024618
v -0.011992 0.464005 -0.054445
v 0.063440 0.257265 0.082878
v 0.029232 0.513999 0.047878
v 0.000422 0.091032 0.103679
v -0.059666 -0.004623 0.013108
v 0.078618 0.091114 -0.056179
v 0.032401 0.137219 -0.076975
v -0.006080 0.194349 -0.095918
v -0.051805 0.103399 -0.077576
v -0.093043 0.164049 0.059307
v -0.050874 0.558638 0.032432
v -0.075089 0.329471 0.050273
v -0.049522 0.578941 -0.008766
v -0.026955 0.592369 0.033216
v 0.017786 0.611515 0.031195
v -0.048394 0.052865 -0.059610
v -0.022493 0.582805 -0.027699
v 0.063342 0.479930 0.002665
v 0.043741 0.512070 -0.009442
v 0.040750 0.582087 0.026678
v 0.034241 0.611453 0.015396
v 0.055076 0.021923 -0.031192
vt 0.727410 0.430364
vt 0.342795 0.314636
vt 0.713762 0.333640
vt 0.549761 0.600575
vt 0.590695 0.536320
vt 0.717320 0.602453
vt 0.797334 0.204698
vt 0.314905 0.177370
vt 0.705887 0.126852
vt 0.932231 0.586255
vt 0.800437 0.444126
vt 0.959104 0.383168
vt 0.182908 0.941291
vt 0.054803 0.898694
vt 0.182908 0.794877
vt 0.529095 0.717595
vt 0.392435 0.577559
vt 0.251238 0.688495
vt 0.579999 0.453965
vt 0.210044 0.428021
vt 0.776231 0.388791
vt 0.967404 0.244267
vt 0.958786 0.116171
vt 0.786581 0.632521
vt 0.727929 0.688171
vt 0.654652 0.733478
vt 0.777806 0.828134
vt 0.696447 0.263543
vt 0.131047 0.288804
vt 0.484567 0.273414
vt 0.108518 0.190419
vt 0.077670 0.121337
vt 0.122032 0.061591
vt 0.899899 0.082532
vt 0.264464 0.807763
vt 0.156526 0.173919
vt 0.264804 0.525409
vt 0.692564 0.911449
vt 0.890114 0.834102
vt 0.067810 0.327044
vt 0.203592 0.547293
vt 0.080715 0.801188
vt 0.095533 0.458880
vt 0.156526 0.056596
vt 0.896052 0.612462
vt 0.967404 0.815390
vt 0.033393 0.469412
vt 0.040217 0.624122
vt 0.021737 0.681772
vt 0.076271 0.233308
vt 0.033245 0.418478
vn 0.5662 -0.0963 0.8186
vn -0.3273 0.1371 0.9349
vn -0.3995 -0.0606 0.9147
vn 0.8056 0.1146 -0.5813
vn 0.9924 0.0168 0.1215
vn 0.9383 -0.0435 -0.3432
vn -0.9508 -0.2739 0.1446
vn -0.8916 0.1286 -0.4343
vn -0.8928 0.0225 -0.4499
vn 0.6367 -0.7708 0.0220
vn 0.7242 -0.3727 0.5802
vn 0.0766 -0.8662 0.4937
vn -0.3196 -0.6544 -0.6853
vn -0.0273 0.1410 -0.9896
vn 0.7376 0.1497 -0.6584
vn -0.0424 0.1884 -0.9812
vn 0.5779 0.0874 0.8114
vn 0.2320 0.1725 0.9573
vn -0.0684 -0.2924 0.9538
vn -0.5764 -0.8137 0.0749
vn 0.7926 -0.2842 -0.5395
vn 0.2239 -0.1927 -0.9554
vn -0.0015 0.0592 -0.9982
vn -0.4029 -0.2212 -0.8881
vn -0.8695 -0.0130 0.4937
vn -0.7741 0.2728 0.5712
vn -0.8650 0.1191 0.4874
vn -0.7768 0.5360 -0.3306
vn -0.4280 0.6684 0.6084
vn 0.0510 0.8298 0.5557
vn -0.4349 -0.3702 -0.8209
vn -0.1249 0.5733 -0.8098
vn 0.9662 0.1886 -0.1758
vn 0.6262 0.2267 -0.7460
vn 0.8197 0.2533 0.5137
vn 0.5860 0.7946 -0.1591
vn 0.6669 -0.6396 -0.3824
g Crystal_38_low_Crystal_38_low_Default_OBJ.075
usemtl Default_OBJ.075
s 1
f 1/1/1 2/2/2 3/3/3
f 4/4/4 5/5/5 6/6/6
f 7/7/7 8/8/8 9/9/9
f 10/10/10 11/11/11 12/12/12
f 10/13/10 12/14/12 13/15/13
f 4/4/4 6/6/6 14/16/14
f 15/17/15 14/16/14 16/18/16
f 17/19/17 18/20/18 2/2/2
f 12/12/12 11/11/11 19/21/19
f 20/22/20 7/7/7 13/23/13
f 21/24/21 22/25/22 23/26/23
f 16/18/16 14/16/14 24/27/24
f 3/3/3 2/2/2 25/28/25
f 25/28/25 20/22/20 3/3/3
f 26/29/26 8/8/8 27/30/27
f 28/31/28 29/32/29 30/33/30
f 24/27/24 23/26/23 22/25/22
f 7/7/7 9/9/9 31/34/31
f 27/30/27 8/8/8 7/7/7
f 20/22/20 25/28/25 7/7/7
f 24/27/24 8/35/8 16/18/16
f 32/36/32 28/31/28 30/33/30
f 1/1/1 6/6/6 5/5/5
f 33/37/33 17/19/17 5/5/5
f 1/1/1 5/5/5 17/19/17
f 17/19/17 2/2/2 1/1/1
f 9/38/9 8/35/8 24/27/24
f 24/27/24 31/39/31 9/38/9
f 6/6/6 21/24/21 14/16/14
f 6/6/6 11/11/11 10/10/10
f 2/2/2 26/29/26 27/30/27
f 18/20/18 29/40/29 2/2/2
f 15/17/15 16/18/16 34/41/34
f 4/4/4 33/37/33 5/5/5
f 19/21/19 20/22/20 12/12/12
f 20/42/20 13/15/13 12/14/12
f 35/43/35 18/20/18 17/19/17
f 32/36/32 30/33/30 36/44/36
f 21/24/21 37/45/37 13/46/13
f 6/6/6 37/45/37 21/24/21
f 35/43/35 17/19/17 33/37/33
f 36/47/36 34/41/34 32/48/32
f 3/3/3 19/21/19 1/1/1
f 19/21/19 3/3/3 20/22/20
f 32/48/32 34/41/34 16/18/16
f 32/48/32 16/18/16 8/35/8
f 1/1/1 11/11/11 6/6/6
f 1/1/1 19/21/19 11/11/11
f 8/35/8 28/49/28 32/48/32
f 26/29/26 28/50/28 8/8/8
f 37/45/37 6/6/6 10/10/10
f 13/46/13 37/45/37 10/10/10
f 33/37/33 36/47/36 35/43/35
f 36/47/36 30/51/30 35/43/35
f 24/27/24 14/16/14 23/26/23
f 14/16/14 21/24/21 23/26/23
f 2/2/2 27/30/27 25/28/25
f 25/28/25 27/30/27 7/7/7
f 33/37/33 34/41/34 36/47/36
f 33/37/33 15/17/15 34/41/34
f 21/24/21 13/46/13 22/25/22
f 24/27/24 22/25/22 31/39/31
f 29/40/29 26/29/26 2/2/2
f 26/29/26 29/40/29 28/50/28
f 15/17/15 4/4/4 14/16/14
f 15/17/15 33/37/33 4/4/4
f 29/40/29 18/20/18 30/51/30
f 35/43/35 30/51/30 18/20/18
f 13/23/13 7/7/7 31/34/31
f 31/39/31 22/25/22 13/46/13
