# Blender v2.90.1 OBJ File: ''
# www.blender.org
mtllib Crystal_02_low.mtl
o Crystal_02_low
v -0.088767 -0.013232 -0.104811
v -0.106276 0.008433 -0.086262
v 0.025782 0.120665 -0.043927
v 0.133745 -0.036209 0.059490
v 0.088752 -0.069520 -0.058685
v 0.144786 0.014461 -0.011904
v -0.006320 0.161901 0.063463
v -0.091493 0.093010 0.040844
v -0.021486 -0.006645 0.128240
v -0.074027 -0.090417 -0.106518
v 0.073046 -0.078548 -0.116857
v 0.019926 -0.179719 -0.061121
v -0.058596 -0.037226 0.119029
v -0.113605 -0.089246 0.012951
v -0.030302 -0.177245 -0.003848
v 0.061614 -0.122678 -0.056563
v 0.095677 -0.083645 0.036498
v 0.021027 -0.031473 0.156474
v 0.030339 -0.174631 0.001502
v 0.083420 0.040480 0.130256
v 0.046344 0.134180 0.090721
v 0.003188 0.151822 -0.012843
v -0.031299 -0.183615 -0.055308
v 0.012532 0.182559 0.037764
v 0.098640 0.128271 0.024112
v -0.135442 -0.014045 0.057831
v -0.144140 0.030794 0.021254
v -0.121682 -0.041238 -0.067821
v -0.130418 -0.040437 0.055283
v -0.110723 -0.044149 -0.094671
v 0.049564 0.167764 -0.012394
v 0.130303 0.010205 -0.049014
v 0.000443 -0.032279 -0.131970
v 0.094666 0.130023 -0.012431
v 0.050783 0.171628 0.051237
vt 0.318246 0.423326
vt 0.331536 0.385123
vt 0.545081 0.383786
vt 0.677409 0.684573
vt 0.602106 0.535697
vt 0.730239 0.611579
vt 0.547971 0.204890
vt 0.407424 0.244332
vt 0.288685 0.025455
vt 0.225353 0.448430
vt 0.199859 0.701158
vt 0.013471 0.503602
vt 0.229474 0.100216
vt 0.199273 0.291936
vt 0.025827 0.357462
vt 0.509317 0.549612
vt 0.604244 0.670287
vt 0.644488 0.831240
vt 0.441012 0.663731
vt 0.741229 0.784846
vt 0.899310 0.806794
vt 0.658312 0.911836
vt 0.554191 0.316700
vt 0.068719 0.427141
vt 0.583923 0.240015
vt 0.870464 0.673011
vt 0.286143 0.240288
vt 0.328142 0.277122
vt 0.273026 0.371337
vt 0.256417 0.243233
vt 0.277952 0.403028
vt 0.968092 0.608072
vt 0.727919 0.561647
vt 0.692904 0.306678
vt 0.879566 0.624735
vt 0.969131 0.726766
vt 0.347181 0.724121
vt 0.576774 0.943528
vt 0.326370 0.577597
vt 0.645901 0.200804
vt 0.591069 0.104136
vt 0.577002 0.428033
vt 0.376788 0.567273
vt 0.641963 0.333566
vn -0.3564 0.2574 -0.8982
vn -0.6398 0.4371 -0.6321
vn -0.0096 0.5382 -0.8428
vn 0.8799 -0.3304 0.3414
vn 0.8723 -0.4591 -0.1682
vn 0.9945 0.0263 -0.1014
vn -0.4089 0.6918 0.5951
vn -0.7211 0.6398 0.2658
vn -0.3887 0.3512 0.8518
vn -0.4933 -0.4323 -0.7548
vn 0.5711 -0.2609 -0.7783
vn 0.3404 -0.8332 -0.4358
vn -0.5095 -0.1973 0.8376
vn -0.8057 -0.5666 0.1725
vn -0.3295 -0.8717 0.3628
vn 0.8317 -0.5318 -0.1595
vn 0.7249 -0.6426 0.2483
vn 0.0405 -0.1959 0.9798
vn 0.4250 -0.8510 0.3085
vn 0.5016 0.2346 0.8327
vn 0.2359 0.5399 0.8080
vn -0.4157 0.7193 -0.5567
vn -0.3430 -0.8688 -0.3571
vn -0.2237 0.9720 0.0721
vn 0.8274 0.5297 0.1867
vn -0.8591 0.0265 0.5112
vn -0.9362 0.3455 0.0648
vn -0.9348 -0.2157 -0.2823
vn -0.8267 -0.3983 0.3973
vn -0.7574 -0.1812 -0.6273
vn 0.2521 0.8134 -0.5243
vn 0.8002 0.0714 -0.5955
vn 0.0388 0.1366 -0.9899
vn 0.6712 0.5571 -0.4890
vn 0.4325 0.8195 0.3759
g Crystal_02_low_Crystal_02_low_Default_OBJ.002
usemtl Default_OBJ.002
s 1
f 1/1/1 2/2/2 3/3/3
f 4/4/4 5/5/5 6/6/6
f 7/7/7 8/8/8 9/9/9
f 10/10/10 11/11/11 12/12/12
f 13/13/13 14/14/14 15/15/15
f 16/16/16 5/5/5 17/17/17
f 18/18/18 19/19/19 17/17/17
f 20/20/20 21/21/21 9/22/9
f 22/23/22 2/2/2 8/8/8
f 14/14/14 10/10/10 23/24/23
f 24/25/24 8/8/8 7/7/7
f 21/21/21 20/20/20 25/26/25
f 20/20/20 18/18/18 4/4/4
f 25/26/25 20/20/20 4/4/4
f 9/9/9 8/8/8 26/27/26
f 27/28/27 28/29/28 29/30/29
f 28/29/28 10/10/10 14/14/14
f 10/10/10 30/31/30 1/1/1
f 25/26/25 4/4/4 6/6/6
f 31/32/31 32/33/32 33/34/33
f 34/35/34 25/26/25 6/6/6
f 35/36/35 21/21/21 25/26/25
f 13/13/13 29/30/29 14/14/14
f 29/30/29 28/29/28 14/14/14
f 10/10/10 12/12/12 23/24/23
f 18/18/18 15/37/15 19/19/19
f 18/18/18 13/38/13 15/37/15
f 20/20/20 9/22/9 18/18/18
f 2/2/2 1/1/1 30/31/30
f 27/28/27 2/2/2 28/29/28
f 25/26/25 34/35/34 35/36/35
f 2/2/2 22/23/22 3/3/3
f 33/39/33 1/1/1 3/3/3
f 10/10/10 1/1/1 33/39/33
f 35/40/35 7/7/7 21/41/21
f 21/41/21 7/7/7 9/9/9
f 11/42/11 33/34/33 32/33/32
f 33/39/33 11/11/11 10/10/10
f 8/8/8 2/2/2 27/28/27
f 26/27/26 8/8/8 27/28/27
f 19/19/19 15/37/15 12/43/12
f 16/16/16 17/17/17 19/19/19
f 31/44/31 24/25/24 35/40/35
f 24/25/24 7/7/7 35/40/35
f 23/24/23 12/12/12 15/15/15
f 23/24/23 15/15/15 14/14/14
f 31/32/31 34/35/34 32/33/32
f 34/35/34 31/32/31 35/36/35
f 9/9/9 26/27/26 13/13/13
f 9/22/9 13/38/13 18/18/18
f 32/33/32 34/35/34 6/6/6
f 32/33/32 6/6/6 5/5/5
f 2/2/2 30/31/30 28/29/28
f 30/31/30 10/10/10 28/29/28
f 18/18/18 17/17/17 4/4/4
f 17/17/17 5/5/5 4/4/4
f 31/44/31 22/23/22 24/25/24
f 24/25/24 22/23/22 8/8/8
f 12/43/12 11/42/11 16/16/16
f 19/19/19 12/43/12 16/16/16
f 31/44/31 33/39/33 3/3/3
f 3/3/3 22/23/22 31/44/31
f 13/13/13 26/27/26 29/30/29
f 26/27/26 27/28/27 29/30/29
f 32/33/32 5/5/5 11/42/11
f 11/42/11 5/5/5 16/16/16
