# Blender v2.90.1 OBJ File: 'Crystal_OBJ.blend'
# www.blender.org
mtllib Crystal_12_low.mtl
o Crystal_12_low
v -0.016426 1.138953 -0.167117
v 0.007973 0.989201 -0.094422
v 0.026755 0.654272 -0.170523
v -0.129094 0.056007 0.199685
v -0.024000 0.441797 0.257314
v -0.125495 0.277944 0.197715
v -0.128656 0.344147 -0.188584
v -0.125458 1.096810 -0.184331
v -0.022213 0.089846 -0.231559
v -0.095496 1.041770 0.178121
v -0.106749 0.969797 0.126788
v -0.130272 0.295306 0.138460
v -0.035485 -0.003084 0.098340
v 0.081997 -0.001889 -0.018563
v 0.077896 -0.001283 0.096524
v 0.109746 1.057560 -0.024749
v 0.189051 0.702680 0.035897
v 0.131076 0.446480 -0.040413
v 0.030653 1.413399 0.067504
v 0.027715 1.306955 0.096090
v 0.032648 1.289436 -0.013491
v 0.060170 1.156476 0.158214
v 0.076109 0.374161 0.183103
v 0.123681 1.130201 0.146580
v -0.133759 0.001992 -0.068851
v -0.019131 0.011794 -0.092967
v -0.196230 0.075495 0.098230
v -0.172083 0.664212 0.035464
v -0.188191 0.121691 -0.041862
v -0.043029 1.285581 -0.057496
v 0.043765 1.083639 -0.014001
v -0.151115 0.864804 -0.074310
v -0.113423 1.321721 -0.077150
v -0.100848 1.115912 -0.085263
v -0.115632 -0.000129 -0.202131
v 0.040624 0.013877 -0.126710
v 0.050488 0.403328 -0.136850
v 0.076140 0.544991 -0.132421
v 0.137630 1.319821 0.019205
v -0.105245 0.359257 -0.094618
v -0.106669 1.523432 0.094435
v 0.013684 1.307409 0.130918
v -0.154473 1.433288 -0.028850
v -0.034538 0.017318 0.244292
v 0.009917 1.219740 0.203323
v 0.019836 0.097829 0.258059
v 0.084924 0.097146 0.200159
v 0.136806 0.081329 0.192236
v 0.204366 0.360432 0.071556
v -0.065745 1.508947 -0.050577
v 0.008439 1.542367 0.015323
v -0.050280 1.129803 0.203676
v -0.031904 1.323356 0.146235
v -0.071376 1.108443 0.173871
v -0.153754 0.411905 -0.079367
v 0.074598 0.032859 -0.186041
v 0.145383 0.527431 -0.209268
v 0.160840 0.180801 -0.181769
v 0.144876 0.672843 -0.072364
v 0.204150 0.658291 -0.102982
v 0.206918 0.007882 -0.047218
v -0.057106 -0.005590 -0.109146
v 0.075351 0.926172 -0.113947
v -0.008785 1.099340 -0.053086
v -0.153901 0.977798 0.100918
v -0.137555 0.004089 0.140248
v -0.061452 1.113324 -0.207129
v 0.056214 0.084744 -0.167543
v 0.202706 0.245528 -0.077952
v 0.098644 0.680499 -0.107695
v 0.173458 0.671235 -0.169930
v 0.090434 0.575913 -0.179852
v 0.154200 0.061203 -0.018104
v 0.200900 0.101526 0.011713
v 0.193761 0.018290 0.075596
v -0.134359 0.160536 -0.080236
v -0.153018 0.089514 -0.124530
v -0.130576 0.047627 0.150169
v 0.150512 1.219685 0.094917
v -0.136207 1.500196 0.017938
v -0.156819 1.413054 0.019040
v 0.192680 -0.001118 -0.148587
v 0.051287 0.018537 -0.094228
v -0.105292 0.988223 0.073880
v -0.129652 1.414463 0.038926
v -0.141696 0.997550 0.046742
v 0.121672 0.017864 -0.051918
v -0.091254 1.083702 0.123713
v 0.032314 1.203660 0.126729
v -0.027074 1.219036 0.150224
v 0.220928 0.057693 -0.115430
v -0.065934 1.222860 -0.090780
v -0.116462 1.444886 -0.031146
vt 0.906828 0.031091
vt 0.954224 0.102925
vt 0.935669 0.265439
vt 0.577061 0.230354
vt 0.607061 0.440659
vt 0.559698 0.347941
vt 0.845847 0.406250
vt 0.859634 0.073791
vt 0.907512 0.533354
vt 0.396941 0.736636
vt 0.380737 0.692840
vt 0.469223 0.371160
vt 0.305707 0.205752
vt 0.250138 0.270726
vt 0.250531 0.212425
vt 0.144917 0.660354
vt 0.110287 0.489718
vt 0.159626 0.375400
vt 0.091750 0.859548
vt 0.067697 0.798812
vt 0.142077 0.781217
vt 0.611960 0.758987
vt 0.684502 0.436487
vt 0.642213 0.754485
vt 0.356466 0.285723
vt 0.303878 0.301129
vt 0.712238 0.124332
vt 0.414958 0.099485
vt 0.683692 0.055912
vt 0.192396 0.793391
vt 0.166482 0.687132
vt 0.312006 0.042369
vt 0.094141 0.037989
vt 0.193868 0.024651
vt 0.859230 0.586734
vt 0.959156 0.589880
vt 0.962686 0.384078
vt 0.978226 0.316893
vt 0.106344 0.748217
vt 0.810683 0.023650
vt 0.794969 0.397109
vt 0.209216 0.636321
vt 0.289127 0.669829
vt 0.246175 0.714145
vt 0.040357 0.944585
vt 0.046586 0.803338
vt 0.057845 0.072163
vt 0.293840 0.134912
vt 0.581886 0.763468
vt 0.659199 0.271190
vt 0.714377 0.274617
vt 0.048349 0.693058
vt 0.033374 0.202415
vt 0.095336 0.330624
vt 0.638330 0.216811
vt 0.751613 0.178805
vt 0.748785 0.268075
vt 0.172506 0.923052
vt 0.118420 0.932256
vt 0.293181 0.452718
vt 0.342804 0.397192
vt 0.342804 0.466536
vt 0.564164 0.740049
vt 0.353635 0.885734
vt 0.267976 0.965009
vt 0.387638 0.771925
vt 0.745869 0.030838
vt 0.769450 0.372332
vt 0.936331 0.647370
vt 0.914009 0.872099
vt 0.896101 0.712847
vt 0.173726 0.483394
vt 0.876503 0.922635
vt 0.810544 0.853853
vt 0.803570 0.617100
vt 0.354246 0.349104
vt 0.323459 0.308449
vt 0.189376 0.600172
vt 0.197514 0.694406
vt 0.357593 0.680296
vt 0.459510 0.237982
vt 0.762917 0.137189
vt 0.882900 0.066705
vt 0.959343 0.541755
vt 0.840984 0.748842
vt 0.922166 0.973968
vt 0.902032 0.922980
vt 0.943413 0.897765
vt 0.149606 0.195230
vt 0.124436 0.216799
vt 0.096573 0.174469
vt 0.665206 0.022268
vt 0.788051 0.499642
vt 0.812963 0.537564
vt 0.782946 0.585554
vt 0.344273 0.143913
vt 0.551081 0.222652
vt 0.349385 0.166746
vt 0.356466 0.186534
vt 0.078153 0.723891
vt 0.301590 0.404910
vt 0.061614 0.093855
vt 0.874653 0.607858
vt 0.970142 0.615464
vt 0.354152 0.701679
vt 0.256878 0.893933
vt 0.333079 0.692100
vt 0.228224 0.293329
vt 0.270615 0.306029
vt 0.183782 0.304074
vt 0.205181 0.354503
vt 0.365381 0.750916
vt 0.849518 0.971687
vt 0.200996 0.492654
vt 0.597383 0.784457
vt 0.568919 0.778966
vt 0.547580 0.737310
vt 0.534353 0.033805
vt 0.849395 0.646729
vt 0.217421 0.763370
vt 0.200161 0.273142
vt 0.194285 0.220594
vt 0.382315 0.837839
vt 0.354190 0.541930
vt 0.951297 0.667166
vt 0.970142 0.893438
vt 0.228015 0.936183
vt 0.212072 0.894910
vt 0.777263 0.650857
vt 0.052276 0.138349
vt 0.230518 0.820539
vt 0.277595 0.320548
vt 0.037029 0.066342
vt 0.228518 0.435416
vt 0.036095 0.747534
vt 0.978226 0.595715
vt 0.249149 0.111968
vt 0.052323 0.109166
vt 0.538902 0.706279
vt 0.380029 0.892281
vt 0.417023 0.847691
vt 0.529729 0.353908
vt 0.509990 0.235025
vt 0.510034 0.209123
vn 0.5688 0.8077 -0.1553
vn 0.6413 0.3416 -0.6871
vn 0.8545 0.0661 -0.5152
vn -0.7843 -0.4030 0.4717
vn -0.1087 0.0453 0.9930
vn -0.8540 0.0234 0.5197
vn -0.8718 0.0513 -0.4871
vn -0.7930 0.4451 -0.4159
vn 0.2238 -0.2106 -0.9516
vn -0.8686 0.1401 0.4753
vn -0.8852 0.2440 0.3962
vn -0.8643 0.0293 0.5021
vn -0.0602 -0.9930 0.1018
vn 0.2087 -0.9666 -0.1490
vn 0.1772 -0.9598 0.2179
vn 0.5512 0.2160 -0.8059
vn 0.9494 0.0558 -0.3091
vn 0.9872 0.0904 0.1318
vn 0.8810 0.2626 0.3936
vn 0.8166 0.3631 0.4486
vn 0.5160 0.2883 -0.8066
vn 0.5908 0.3630 0.7206
vn 0.8413 0.0444 0.5387
vn 0.5403 0.1601 0.8261
vn -0.5907 -0.8020 -0.0886
vn 0.1285 -0.9819 0.1392
vn -0.9140 -0.2330 0.3321
vn -0.9978 0.0357 0.0552
vn -0.8786 -0.1161 -0.4632
vn 0.4606 0.1609 -0.8729
vn 0.3012 0.5482 -0.7802
vn -0.6522 0.0226 -0.7577
vn -0.1737 0.2178 -0.9604
vn -0.2725 0.3548 -0.8944
vn -0.4240 -0.6576 -0.6228
vn 0.5563 -0.7835 -0.2770
vn 0.4492 0.0942 -0.8885
vn -0.6627 0.1022 -0.7419
vn 0.5959 0.7592 -0.2619
vn -0.8850 0.0401 -0.4639
vn -0.3877 0.6794 0.6230
vn 0.6559 0.1755 0.7342
vn -0.6778 0.6513 -0.3413
vn -0.1186 -0.6707 0.7322
vn 0.1414 0.7340 0.6643
vn 0.3170 -0.1782 0.9315
vn 0.3714 0.0561 0.9268
vn 0.5679 -0.2909 0.7700
vn 0.9788 0.0265 0.2030
vn -0.0609 0.5657 -0.8223
vn 0.6090 0.7899 -0.0718
vn -0.6002 0.3361 0.7258
vn 0.1337 0.2203 0.9662
vn -0.8730 0.2714 0.4052
vn -0.5573 0.0070 -0.8303
vn -0.4070 -0.5151 -0.7544
vn 0.2987 0.0574 -0.9526
vn 0.5805 0.0014 -0.8143
vn 0.8466 0.4245 0.3211
vn 0.8513 0.4657 0.2418
vn 0.5704 -0.6323 0.5243
vn 0.1199 -0.9784 0.1685
vn 0.3589 0.1768 -0.9165
vn 0.4636 0.2676 -0.8446
vn -0.7166 0.5439 0.4366
vn -0.3171 -0.6945 0.6459
vn 0.0135 0.5642 -0.8255
vn -0.1438 -0.2335 -0.9617
vn 0.9446 0.0185 -0.3276
vn 0.3775 0.4076 -0.8315
vn 0.3671 0.6541 -0.6613
vn -0.7120 0.2450 -0.6580
vn 0.8200 -0.5416 0.1850
vn 0.8840 -0.1305 -0.4489
vn 0.7515 -0.6489 0.1194
vn -0.9166 0.0482 -0.3968
vn -0.9986 -0.0404 -0.0326
vn -0.6456 -0.3960 0.6530
vn 0.8042 0.3164 0.5032
vn -0.8618 0.4844 -0.1504
vn -0.7869 0.4391 0.4336
vn 0.4617 -0.7284 -0.5063
vn 0.0640 -0.9810 -0.1833
vn -0.6722 0.5615 0.4825
vn -0.8712 0.1583 0.4648
vn -0.7056 0.2224 0.6728
vn 0.1580 -0.9511 0.2654
vn -0.9678 0.0875 0.2362
vn 0.4429 0.5229 0.7283
vn 0.1280 0.4071 0.9044
vn 0.9716 -0.0551 -0.2302
vn 0.2761 0.0808 -0.9577
vn -0.5593 0.3545 -0.7493
g Crystal_12_low_Crystal_12_low_Default_OBJ.021
usemtl Default_OBJ.021
s 1
f 1/1/1 2/2/2 3/3/3
f 4/4/4 5/5/5 6/6/6
f 7/7/7 8/8/8 9/9/9
f 10/10/10 11/11/11 12/12/12
f 13/13/13 14/14/14 15/15/15
f 16/16/16 17/17/17 18/18/18
f 19/19/19 20/20/20 21/21/21
f 22/22/22 23/23/23 24/24/24
f 13/13/13 25/25/25 26/26/26
f 27/27/27 28/28/28 29/29/29
f 30/30/30 21/21/21 31/31/31
f 32/32/32 33/33/33 34/34/34
f 35/35/35 9/9/9 36/36/36
f 37/37/37 2/2/2 38/38/38
f 16/16/16 39/39/39 17/17/17
f 39/39/39 21/21/21 20/20/20
f 21/21/21 39/39/39 16/16/16
f 31/31/31 21/21/21 16/16/16
f 34/40/34 8/8/8 40/41/40
f 2/42/2 1/43/1 34/44/34
f 19/19/19 41/45/41 42/46/42
f 43/47/43 33/33/33 32/32/32
f 15/15/15 44/48/44 13/13/13
f 45/49/45 46/50/46 47/51/47
f 24/52/24 48/53/48 49/54/49
f 44/55/44 15/56/15 48/57/48
f 21/21/21 50/58/50 51/59/51
f 50/60/50 41/61/41 51/62/51
f 45/49/45 52/63/52 5/5/5
f 53/64/53 41/65/41 54/66/54
f 25/67/25 27/27/27 29/29/29
f 55/68/55 34/40/34 40/41/40
f 56/69/56 57/70/57 58/71/58
f 16/16/16 18/18/18 59/72/59
f 60/73/60 18/74/18 61/75/61
f 26/26/26 14/14/14 13/13/13
f 40/41/40 8/8/8 7/7/7
f 35/76/35 62/77/62 25/25/25
f 63/78/63 16/16/16 59/72/59
f 63/78/63 64/79/64 16/16/16
f 12/12/12 65/80/65 27/81/27
f 27/27/27 25/67/25 66/82/66
f 67/83/67 3/3/3 9/9/9
f 36/36/36 9/9/9 68/84/68
f 69/85/69 57/70/57 60/73/60
f 70/86/70 71/87/71 72/88/72
f 73/89/73 74/90/74 75/91/75
f 49/54/49 48/53/48 75/91/75
f 29/29/29 76/92/76 25/67/25
f 76/93/76 77/94/77 25/95/25
f 13/13/13 44/48/44 4/96/4
f 6/6/6 78/97/78 4/4/4
f 8/8/8 34/40/34 67/83/67
f 9/9/9 8/8/8 67/83/67
f 4/96/4 78/98/78 13/13/13
f 25/25/25 13/13/13 66/99/66
f 17/17/17 39/39/39 79/100/79
f 79/100/79 39/39/39 20/20/20
f 50/60/50 80/101/80 41/61/41
f 28/28/28 81/102/81 29/29/29
f 56/69/56 82/103/82 83/104/83
f 57/70/57 69/85/69 58/71/58
f 12/12/12 11/11/11 65/80/65
f 84/105/84 85/106/85 86/107/86
f 87/108/87 83/109/83 61/110/61
f 61/110/61 83/109/83 82/111/82
f 41/65/41 84/105/84 88/112/88
f 41/65/41 85/106/85 84/105/84
f 77/94/77 35/35/35 25/95/25
f 35/35/35 7/7/7 9/9/9
f 71/87/71 70/86/70 59/113/59
f 70/114/70 63/78/63 59/72/59
f 24/24/24 89/115/89 22/22/22
f 45/49/45 90/116/90 54/117/54
f 59/113/59 18/74/18 60/73/60
f 59/113/59 60/73/60 71/87/71
f 43/47/43 32/32/32 29/29/29
f 29/29/29 55/118/55 76/92/76
f 5/5/5 46/50/46 45/49/45
f 44/55/44 5/5/5 4/4/4
f 58/71/58 82/103/82 56/69/56
f 58/71/58 69/85/69 91/119/91
f 34/44/34 92/120/92 64/79/64
f 64/79/64 2/42/2 34/44/34
f 44/55/44 48/57/48 47/51/47
f 48/57/48 24/24/24 23/23/23
f 61/75/61 91/119/91 69/85/69
f 60/73/60 61/75/61 69/85/69
f 67/83/67 34/40/34 1/1/1
f 67/83/67 1/1/1 3/3/3
f 45/49/45 47/51/47 22/22/22
f 45/49/45 22/22/22 89/115/89
f 73/121/73 75/122/75 14/14/14
f 61/110/61 73/121/73 87/108/87
f 40/41/40 7/7/7 77/94/77
f 77/94/77 7/7/7 35/35/35
f 54/66/54 90/123/90 53/64/53
f 19/19/19 42/46/42 20/20/20
f 83/109/83 87/108/87 14/14/14
f 87/108/87 73/121/73 14/14/14
f 65/80/65 28/124/28 27/81/27
f 84/105/84 86/107/86 65/80/65
f 24/52/24 49/54/49 79/100/79
f 79/100/79 20/20/20 24/52/24
f 68/125/68 38/126/38 72/88/72
f 56/69/56 72/88/72 57/70/57
f 65/80/65 11/11/11 84/105/84
f 11/11/11 88/112/88 84/105/84
f 46/50/46 5/5/5 44/55/44
f 46/50/46 44/55/44 47/51/47
f 81/102/81 43/47/43 29/29/29
f 80/127/80 50/58/50 93/128/93
f 56/69/56 68/125/68 72/88/72
f 68/125/68 56/69/56 83/104/83
f 18/74/18 73/129/73 61/75/61
f 73/89/73 18/18/18 74/90/74
f 50/58/50 30/30/30 93/128/93
f 50/58/50 21/21/21 30/30/30
f 9/9/9 3/3/3 68/84/68
f 3/3/3 2/2/2 37/37/37
f 48/53/48 15/130/15 75/91/75
f 15/15/15 14/14/14 75/122/75
f 55/68/55 40/41/40 76/93/76
f 40/41/40 77/94/77 76/93/76
f 68/84/68 3/3/3 37/37/37
f 37/37/37 38/38/38 68/84/68
f 10/10/10 88/112/88 11/11/11
f 52/63/52 45/49/45 54/117/54
f 93/128/93 30/30/30 33/131/33
f 64/79/64 92/120/92 30/30/30
f 26/26/26 25/25/25 62/77/62
f 35/76/35 36/132/36 62/77/62
f 43/47/43 81/102/81 93/133/93
f 93/133/93 33/33/33 43/47/43
f 62/77/62 36/132/36 26/26/26
f 26/26/26 83/109/83 14/14/14
f 38/134/38 2/42/2 63/78/63
f 63/78/63 2/42/2 64/79/64
f 20/20/20 89/135/89 24/52/24
f 42/46/42 89/135/89 20/20/20
f 36/132/36 83/109/83 26/26/26
f 36/36/36 68/84/68 83/136/83
f 81/102/81 86/137/86 85/138/85
f 93/133/93 81/102/81 85/138/85
f 5/5/5 52/63/52 10/139/10
f 52/63/52 54/117/54 10/139/10
f 64/79/64 30/30/30 31/31/31
f 31/31/31 16/16/16 64/79/64
f 41/65/41 80/127/80 85/106/85
f 80/127/80 93/128/93 85/106/85
f 89/115/89 90/116/90 45/49/45
f 42/140/42 90/123/90 89/141/89
f 5/5/5 10/139/10 6/6/6
f 10/139/10 12/142/12 6/6/6
f 74/90/74 49/54/49 75/91/75
f 74/90/74 18/18/18 17/17/17
f 33/131/33 92/120/92 34/44/34
f 33/131/33 30/30/30 92/120/92
f 21/21/21 51/59/51 19/19/19
f 41/45/41 19/19/19 51/59/51
f 72/88/72 71/87/71 57/70/57
f 57/70/57 71/87/71 60/73/60
f 28/28/28 86/137/86 81/102/81
f 65/80/65 86/107/86 28/124/28
f 41/65/41 53/64/53 42/140/42
f 90/123/90 42/140/42 53/64/53
f 82/103/82 58/71/58 91/119/91
f 61/75/61 82/103/82 91/119/91
f 23/23/23 47/51/47 48/57/48
f 23/23/23 22/22/22 47/51/47
f 12/12/12 27/81/27 78/143/78
f 6/6/6 12/142/12 78/97/78
f 38/134/38 63/78/63 70/114/70
f 38/126/38 70/86/70 72/88/72
f 17/17/17 79/100/79 49/54/49
f 17/17/17 49/54/49 74/90/74
f 13/13/13 78/98/78 66/99/66
f 66/144/66 78/143/78 27/81/27
f 32/32/32 34/34/34 55/118/55
f 55/118/55 29/29/29 32/32/32
f 10/10/10 54/66/54 88/112/88
f 41/65/41 88/112/88 54/66/54
