# Blender v2.90.1 OBJ File: 'Crystal_OBJ.blend'
# www.blender.org
mtllib Crystal_50_low.mtl
o Crystal_50_low
v 0.227483 0.479774 0.137641
v 0.189055 1.007186 0.090095
v 0.033991 0.704440 0.241125
v 0.230694 0.275860 -0.035582
v 0.214151 0.598943 -0.226131
v 0.214608 0.829866 -0.111290
v 0.128502 0.073679 -0.001519
v 0.048429 0.109478 0.191307
v -0.077594 -0.044560 -0.073294
v -0.130979 1.069562 -0.048624
v -0.216637 0.576560 -0.067562
v -0.133555 1.036584 0.109859
v -0.121673 0.575550 -0.180583
v -0.022664 1.006815 -0.208199
v 0.109747 0.651851 -0.227349
v 0.008866 0.215431 -0.153544
v -0.152957 0.375997 -0.233289
v -0.226796 0.197137 0.134501
v 0.193407 1.035136 -0.087596
v 0.016673 1.116797 -0.189641
v 0.000374 1.120815 0.170909
v -0.092536 0.946145 0.183737
v -0.154184 0.609595 0.251011
v -0.083188 0.412357 0.312285
v 0.063491 1.365877 -0.141550
v 0.035438 1.568856 0.009399
v 0.157019 0.356334 0.209131
v -0.000045 0.420860 0.315405
v -0.035424 0.252812 0.304191
v -0.047536 1.476576 0.053056
v -0.054317 1.449917 -0.055164
v 0.043404 0.408047 -0.249998
vt 0.581531 0.372280
vt 0.492164 0.680424
vt 0.428463 0.475787
vt 0.788717 0.748923
vt 0.736272 0.586802
vt 0.808588 0.482358
vt 0.759476 0.852038
vt 0.849589 0.914859
vt 0.660239 0.944597
vt 0.197599 0.668781
vt 0.182119 0.392774
vt 0.283430 0.644397
vt 0.563096 0.578017
vt 0.681298 0.346003
vt 0.693410 0.551990
vt 0.662782 0.781577
vt 0.545862 0.697780
vt 0.096901 0.268400
vt 0.258983 0.061069
vt 0.301812 0.233868
vt 0.833854 0.373136
vt 0.725806 0.289827
vt 0.360443 0.704650
vt 0.332237 0.595048
vt 0.430511 0.158139
vt 0.343003 0.414244
vt 0.386696 0.327195
vt 0.812572 0.187307
vt 0.081711 0.650927
vt 0.100824 0.392926
vt 0.927056 0.396165
vt 0.909073 0.682997
vt 0.894925 0.070845
vt 0.524015 0.293779
vt 0.423868 0.333147
vt 0.406028 0.261278
vt 0.306238 0.949106
vt 0.283167 0.876962
vt 0.791791 0.098758
vt 0.927056 0.776853
vt 0.220543 0.888731
vt 0.088538 0.720454
vt 0.657114 0.671268
vn 0.8950 0.0060 0.4460
vn 0.8204 0.1898 0.5394
vn 0.2773 0.2080 0.9380
vn 0.9054 -0.3607 -0.2239
vn 0.7040 -0.0115 -0.7101
vn 0.9907 0.0987 -0.0932
vn 0.7306 -0.6670 -0.1461
vn 0.3033 -0.6910 0.6562
vn -0.2110 -0.9202 -0.3296
vn -0.9248 0.1988 -0.3244
vn -0.9642 0.1138 -0.2394
vn -0.9074 0.2099 0.3641
vn -0.5426 0.2040 -0.8148
vn -0.3878 0.1884 -0.9023
vn -0.0492 0.0739 -0.9960
vn 0.3207 -0.4070 -0.8553
vn -0.5780 -0.1314 -0.8054
vn -0.8625 -0.3942 0.3172
vn 0.9014 0.2229 -0.3713
vn -0.1031 0.2295 -0.9678
vn 0.1115 0.1808 0.9772
vn -0.2900 0.2460 0.9249
vn -0.6659 0.1853 0.7227
vn -0.3875 0.0157 0.9217
vn 0.3486 0.4106 -0.8425
vn 0.2150 0.9715 0.1003
vn 0.7301 -0.1751 0.6605
vn 0.2657 0.0703 0.9615
vn -0.0532 -0.3913 0.9187
vn -0.6135 0.5210 0.5935
vn -0.7290 0.4560 -0.5105
vn 0.1971 -0.2326 -0.9524
g Crystal_50_low_Crystal_50_low_Default_OBJ.099
usemtl Default_OBJ.099
s 1
f 1/1/1 2/2/2 3/3/3
f 4/4/4 5/5/5 6/6/6
f 7/7/7 8/8/8 9/9/9
f 10/10/10 11/11/11 12/12/12
f 13/13/13 14/14/14 15/15/15
f 16/16/16 7/7/7 9/9/9
f 17/17/17 16/16/16 9/9/9
f 17/18/17 9/19/9 18/20/18
f 19/21/19 5/5/5 20/22/20
f 21/23/21 22/24/22 2/2/2
f 18/20/18 9/19/9 8/25/8
f 22/24/22 3/3/3 2/2/2
f 18/20/18 23/26/23 11/11/11
f 24/27/24 23/26/23 18/20/18
f 25/28/25 19/21/19 20/22/20
f 11/11/11 10/10/10 14/29/14
f 11/11/11 14/29/14 13/30/13
f 18/20/18 11/11/11 17/18/17
f 19/21/19 2/31/2 1/32/1
f 19/21/19 26/33/26 2/31/2
f 27/34/27 1/1/1 28/35/28
f 29/36/29 18/20/18 8/25/8
f 22/24/22 23/26/23 3/3/3
f 12/12/12 11/11/11 23/26/23
f 26/37/26 21/23/21 2/2/2
f 21/23/21 30/38/30 22/24/22
f 19/21/19 25/28/25 26/33/26
f 25/28/25 20/22/20 31/39/31
f 31/39/31 26/33/26 25/28/25
f 30/38/30 21/23/21 26/37/26
f 4/4/4 6/6/6 1/32/1
f 4/4/4 1/32/1 27/40/27
f 12/12/12 30/38/30 31/41/31
f 30/38/30 26/37/26 31/41/31
f 27/40/27 7/7/7 4/4/4
f 4/4/4 7/7/7 16/16/16
f 10/10/10 31/41/31 20/42/20
f 12/12/12 31/41/31 10/10/10
f 27/40/27 8/8/8 7/7/7
f 8/25/8 27/34/27 29/36/29
f 10/10/10 20/42/20 14/29/14
f 20/22/20 5/5/5 14/14/14
f 29/36/29 27/34/27 28/35/28
f 23/26/23 24/27/24 28/35/28
f 32/43/32 5/5/5 4/4/4
f 14/14/14 5/5/5 15/15/15
f 22/24/22 30/38/30 12/12/12
f 22/24/22 12/12/12 23/26/23
f 5/5/5 32/43/32 15/15/15
f 17/17/17 15/15/15 32/43/32
f 28/35/28 3/3/3 23/26/23
f 1/1/1 3/3/3 28/35/28
f 13/13/13 15/15/15 17/17/17
f 17/18/17 11/11/11 13/30/13
f 19/21/19 1/32/1 6/6/6
f 19/21/19 6/6/6 5/5/5
f 24/27/24 18/20/18 29/36/29
f 28/35/28 24/27/24 29/36/29
f 4/4/4 16/16/16 32/43/32
f 32/43/32 16/16/16 17/17/17
