# Blender v2.90.1 OBJ File: 'Crystal_OBJ.blend'
# www.blender.org
mtllib Crystal_13_low.mtl
o Crystal_13_low
v -0.081177 1.038271 -0.006710
v -0.241522 1.085030 -0.032577
v -0.220210 0.941028 0.003536
v -0.213296 0.153017 -0.175562
v -0.153439 0.239388 -0.298132
v -0.068631 0.228654 -0.262448
v 0.141341 0.403680 0.114228
v 0.096156 0.284687 0.073495
v 0.130327 0.256997 -0.014010
v -0.127046 1.235888 -0.142184
v -0.067806 1.012134 -0.004485
v 0.038351 0.881171 -0.178140
v -0.234569 0.721039 -0.280958
v -0.137212 0.849161 -0.312803
v -0.034435 0.734264 -0.287896
v -0.343560 0.859509 -0.192354
v 0.196131 0.446729 0.018057
v -0.023087 0.402815 -0.280516
v 0.054800 0.435683 -0.279457
v -0.018749 0.325496 -0.258843
v -0.037944 0.446562 0.131721
v -0.070470 0.564903 0.083208
v -0.063756 0.444760 0.072193
v -0.189650 0.351642 -0.324430
v -0.254390 0.231440 -0.174120
v -0.219251 0.085633 0.031616
v -0.000320 -0.002833 -0.060805
v -0.075552 0.024621 0.079749
v 0.002691 -0.005960 0.083058
v 0.162918 0.113093 -0.115197
v -0.020125 0.642543 -0.260538
v -0.037884 0.420661 -0.263183
v -0.093385 0.416487 -0.193896
v -0.166615 0.419000 -0.191408
v -0.134910 0.336726 -0.109298
v -0.209502 0.294632 -0.101213
v -0.174894 0.349420 -0.038979
v -0.119313 0.385118 0.017000
v -0.191997 0.321156 0.189583
v -0.102170 0.372599 0.117657
v -0.165810 0.305476 0.206106
v -0.013670 0.244777 0.207331
v 0.048929 0.314641 0.130188
v 0.047369 0.278475 0.155174
v 0.102226 0.136697 0.130643
v -0.107194 0.554525 0.081600
v -0.274924 0.602518 -0.062259
v -0.198241 0.741441 0.042965
v -0.311098 0.745439 -0.131377
v 0.121726 0.849064 -0.153675
v 0.124483 0.758631 -0.080854
v 0.148028 0.661893 -0.133816
v 0.131263 0.498006 -0.223109
v 0.095787 0.344162 -0.215831
v 0.099009 0.896832 -0.223919
v 0.111397 0.725059 -0.239272
v 0.008948 0.788826 -0.237143
v -0.162330 0.952480 -0.287456
v -0.198803 0.110595 0.092803
v -0.246872 0.304992 -0.050330
v -0.203300 0.341702 -0.018837
v 0.144971 0.596167 0.152313
v 0.193592 0.600595 0.065839
v 0.114624 0.890528 0.102497
v -0.033269 0.757318 0.045083
v -0.179641 0.649528 0.057638
v 0.124968 0.579556 0.159960
v 0.025117 0.743950 0.168113
v 0.002166 0.594735 0.148010
v 0.055261 0.885334 0.132913
v 0.009824 0.038833 -0.089572
v 0.075020 0.121112 -0.147747
v 0.129923 0.120903 -0.143644
v 0.105526 0.172472 -0.136596
v 0.184549 0.462030 -0.141133
v 0.125891 0.210716 -0.073301
v -0.189377 0.474906 -0.149455
v 0.167192 0.178744 -0.042444
v -0.160742 0.066117 -0.088460
v -0.098596 0.090222 -0.107320
v 0.149804 0.707004 -0.038661
v 0.123874 0.901640 0.050027
v 0.174880 0.700081 0.013756
v -0.014085 0.779152 0.143946
v 0.027706 0.966448 0.090899
v -0.027806 0.330572 -0.320685
v -0.113809 0.511624 -0.307875
v 0.038775 0.870716 -0.139710
v 0.001357 0.821621 0.036102
v 0.038347 0.764729 -0.028205
v 0.062868 0.910170 0.021577
v -0.068504 0.457753 -0.252961
v 0.068750 0.039332 0.086788
v 0.026773 0.728937 -0.279517
v 0.046725 0.534608 -0.293555
v -0.065276 0.601603 0.102514
v -0.030422 0.145964 -0.172213
v 0.005959 0.033608 -0.114214
v 0.025870 0.271074 -0.240523
v -0.257300 0.542179 -0.030552
v 0.147291 0.586651 -0.068003
v 0.193324 0.546099 -0.037757
v 0.169700 0.401474 -0.056467
v 0.157251 0.291048 -0.049446
v -0.277412 0.260708 0.082916
v -0.189369 0.133657 -0.062056
v -0.174767 0.100351 -0.075594
v -0.231585 0.183223 0.007276
v 0.092999 0.948058 -0.200610
v 0.053157 0.894209 -0.133752
v -0.035749 0.398896 -0.364405
v -0.098784 0.519420 -0.327128
v -0.088310 0.472010 -0.393045
v -0.171172 0.363405 -0.354781
v -0.020004 0.379662 0.131682
v -0.033184 0.290778 -0.250700
v -0.135463 0.136996 -0.131072
v 0.058631 0.720694 -0.062643
v 0.106477 0.818635 -0.034488
v -0.045200 0.143121 -0.143246
v -0.081827 0.155915 -0.144806
v -0.049011 0.232632 -0.189703
v -0.060504 0.365602 0.042962
v 0.096506 0.597838 -0.259814
v 0.112108 0.944678 0.078005
v 0.060308 0.995119 0.081790
v -0.322839 1.101231 -0.174012
v 0.186473 0.419997 -0.074372
v 0.177032 0.541305 -0.113791
v -0.187548 1.300378 -0.055475
v -0.217055 1.224109 -0.210080
v 0.061518 0.161554 -0.170001
v -0.140052 0.420865 -0.192255
v -0.186948 1.334227 -0.130281
v -0.027911 0.351936 0.105366
v -0.124435 0.863852 0.026738
v -0.103401 0.140560 -0.133645
v -0.251409 1.405340 -0.078656
v -0.317931 1.193638 -0.157900
v 0.094277 0.742143 -0.064150
v -0.264556 1.414738 -0.140443
v -0.295910 1.385748 -0.132327
v -0.235875 0.116372 0.060844
v 0.151889 0.626067 -0.073537
v -0.016041 0.698183 -0.261521
v 0.169009 0.515529 0.134430
v 0.200519 0.532365 0.070487
v 0.077704 0.458592 0.148226
v -0.244972 0.225967 -0.128694
v 0.170820 0.479790 -0.070873
vt 0.001649 0.243535
vt 0.075057 0.187550
vt 0.090978 0.265707
vt 0.911685 0.145378
vt 0.829510 0.165188
vt 0.815562 0.122129
vt 0.472371 0.855860
vt 0.495325 0.927433
vt 0.450471 0.965135
vt 0.547920 0.485697
vt 0.422093 0.425605
vt 0.457850 0.301441
vt 0.612780 0.185058
vt 0.571934 0.265549
vt 0.510731 0.211760
vt 0.211501 0.245553
vt 0.404615 0.851412
vt 0.632205 0.774281
vt 0.679007 0.752765
vt 0.641303 0.827433
vt 0.565507 0.830390
vt 0.597281 0.766903
vt 0.600554 0.836352
vt 0.432672 0.097993
vt 0.455967 0.212648
vt 0.422941 0.186518
vt 0.796411 0.396925
vt 0.951190 0.419242
vt 0.842027 0.469089
vt 0.419828 0.698627
vt 0.338546 0.733933
vt 0.292586 0.648289
vt 0.491210 0.163865
vt 0.461062 0.047903
vt 0.506130 0.031868
vt 0.359035 0.116554
vt 0.662136 0.286830
vt 0.712186 0.304116
vt 0.667668 0.336924
vt 0.629211 0.377039
vt 0.699186 0.426991
vt 0.655408 0.428107
vt 0.701539 0.439038
vt 0.700332 0.512920
vt 0.622929 0.516376
vt 0.409714 0.522549
vt 0.391393 0.598912
vt 0.296025 0.554454
vt 0.111736 0.484056
vt 0.131678 0.476645
vt 0.152972 0.538850
vt 0.215726 0.393913
vt 0.123384 0.365669
vt 0.213058 0.311267
vt 0.757241 0.569316
vt 0.794016 0.581366
vt 0.780600 0.634701
vt 0.733580 0.721525
vt 0.720672 0.809499
vt 0.739924 0.563859
vt 0.729477 0.608836
vt 0.480418 0.245096
vt 0.584129 0.322737
vt 0.779352 0.419889
vt 0.876871 0.515114
vt 0.709274 0.337854
vt 0.683785 0.349925
vt 0.469451 0.755516
vt 0.415611 0.754066
vt 0.474842 0.600809
vt 0.040624 0.398764
vt 0.135763 0.412524
vt 0.480888 0.763403
vt 0.527304 0.681541
vt 0.543316 0.753437
vt 0.510168 0.608236
vt 0.313660 0.724480
vt 0.269170 0.681311
vt 0.279044 0.659413
vt 0.765224 0.922926
vt 0.784577 0.742578
vt 0.810135 0.899942
vt 0.302969 0.292525
vt 0.290160 0.445220
vt 0.253946 0.646137
vt 0.267624 0.599312
vt 0.302375 0.609199
vt 0.329686 0.200362
vt 0.964484 0.377825
vt 0.849503 0.349386
vt 0.884151 0.331190
vt 0.904283 0.709243
vt 0.942304 0.605569
vt 0.934480 0.713426
vt 0.548173 0.662115
vt 0.527328 0.558668
vt 0.603634 0.659335
vt 0.757400 0.144637
vt 0.367597 0.041959
vt 0.437515 0.307658
vt 0.345708 0.345964
vt 0.356060 0.297136
vt 0.852994 0.650492
vt 0.852791 0.599103
vt 0.909063 0.590492
vt 0.715087 0.131386
vt 0.758203 0.111873
vt 0.466315 0.021963
vt 0.389313 0.655414
vt 0.684828 0.594243
vt 0.645793 0.629070
vt 0.675578 0.698355
vt 0.619501 0.761685
vt 0.585237 0.748191
vt 0.229981 0.727272
vt 0.302572 0.731481
vt 0.677424 0.858422
vt 0.210023 0.542286
vt 0.212687 0.429636
vt 0.258328 0.529865
vt 0.886131 0.771899
vt 0.912998 0.795391
vt 0.897327 0.872438
vt 0.941373 0.848758
vt 0.898360 0.931759
vt 0.728866 0.392412
vt 0.807927 0.345472
vt 0.829552 0.346645
vt 0.762831 0.369373
vt 0.733580 0.538231
vt 0.742795 0.555405
vt 0.694149 0.560562
vt 0.749960 0.546169
vt 0.731933 0.173328
vt 0.660844 0.196417
vt 0.705718 0.214154
vt 0.785714 0.221492
vt 0.555503 0.863711
vt 0.780002 0.108476
vt 0.903701 0.093132
vt 0.832254 0.556278
vt 0.899035 0.647792
vt 0.940889 0.263475
vt 0.980056 0.363913
vt 0.920766 0.281094
vt 0.874528 0.078023
vt 0.821614 0.083509
vt 0.609491 0.418117
vt 0.711661 0.668083
vt 0.952134 0.579725
vt 0.937885 0.543009
vt 0.508974 0.541333
vt 0.852060 0.297679
vt 0.149841 0.142226
vt 0.286139 0.153317
vt 0.819794 0.766119
vt 0.799451 0.699764
vt 0.419593 0.266239
vt 0.439333 0.276306
vt 0.533091 0.547967
vt 0.431147 0.438228
vt 0.605404 0.473053
vt 0.669622 0.959817
vt 0.728374 0.932554
vt 0.948015 0.086384
vt 0.242734 0.677127
vt 0.531223 0.029109
vt 0.346815 0.111556
vt 0.324092 0.100301
vt 0.574368 0.537592
vt 0.394879 0.499792
vt 0.350825 0.526814
vt 0.391453 0.442171
vt 0.891316 0.274489
vt 0.910228 0.204132
vt 0.060841 0.324533
vt 0.008110 0.374214
vt 0.000260 0.259723
vt 0.967057 0.764399
vt 0.876123 0.290623
vt 0.890173 0.081018
vt 0.012703 0.086700
vt 0.028424 0.022162
vt 0.120634 0.101200
vt 0.875384 0.684244
vt 0.630041 0.462207
vt 0.162113 0.048478
vt 0.064094 0.000260
vt 0.068966 0.023869
vt 0.654465 0.975939
vt 0.632395 0.911184
vt 0.636404 0.853198
vt 0.777987 0.400684
vt 0.813823 0.646517
vt 0.825733 0.666038
vt 0.916452 0.956102
vt 0.655288 0.596643
vt 0.458274 0.797132
vt 0.419426 0.793742
vt 0.970672 0.802107
vt 0.506466 0.823284
vt 0.970672 0.605805
vt 0.476176 0.566746
vt 0.492312 0.194429
vt 0.814270 0.574103
vt 0.409397 0.203187
vt 0.603634 0.886366
vt 0.563371 0.882333
vt 0.753813 0.536612
vt 0.334807 0.169179
vt 0.372883 0.192406
vt 0.303032 0.527252
vt 0.592970 0.618963
vt 0.463020 0.533943
vt 0.580992 0.593520
vt 0.329686 0.468341
vt 0.832254 0.777734
vt 0.825431 0.734166
vt 0.891266 0.829609
vt 0.913391 0.539713
vt 0.698446 0.129781
vt 0.612780 0.581101
vt 0.440478 0.080511
vt 0.879560 0.976412
vt 0.851376 0.684757
vt 0.357293 0.265412
vt 0.405690 0.011925
vt 0.330868 0.060931
vt 0.671594 0.139028
vt 0.367352 0.029794
vt 0.187222 0.573935
vn 0.4455 0.3669 0.8166
vn -0.5542 0.1022 0.8261
vn -0.5133 0.1269 0.8488
vn -0.5342 -0.7506 -0.3889
vn -0.2215 -0.6117 -0.7594
vn 0.5338 -0.6737 -0.5111
vn 0.5900 -0.3734 0.7159
vn 0.7448 -0.3250 0.5828
vn 0.9496 -0.0975 0.2979
vn 0.8343 0.4688 -0.2901
vn 0.5995 0.3426 0.7234
vn -0.1356 0.8634 -0.4859
vn -0.5241 -0.2427 -0.8163
vn 0.0482 0.1453 -0.9882
vn 0.4245 -0.0590 -0.9035
vn -0.9683 -0.0175 -0.2492
vn 0.9762 -0.2069 0.0650
vn 0.6170 0.1818 -0.7656
vn 0.3974 -0.1793 -0.9000
vn 0.5971 -0.3072 -0.7410
vn -0.6190 -0.1145 0.7770
vn -0.6047 0.0279 0.7960
vn -0.7286 -0.2223 0.6478
vn -0.9151 0.0822 -0.3947
vn -0.9888 -0.0619 -0.1360
vn -0.7594 -0.6505 -0.0144
vn 0.0723 -0.9231 -0.3778
vn -0.3514 -0.7906 0.5015
vn 0.0866 -0.8888 0.4500
vn 0.8644 -0.2860 -0.4135
vn -0.2224 -0.1143 -0.9682
vn 0.1254 0.7963 -0.5918
vn -0.2049 0.7964 -0.5691
vn -0.5784 0.7023 0.4151
vn -0.9095 0.4118 0.0574
vn -0.8754 0.4805 -0.0528
vn -0.8521 0.4860 -0.1944
vn -0.6001 0.3922 0.6972
vn -0.5670 0.4699 0.6766
vn 0.0254 0.9330 0.3591
vn -0.2184 0.1857 0.9580
vn 0.1976 0.0437 0.9793
vn 0.5576 0.7181 0.4165
vn 0.6457 0.3238 0.6915
vn 0.7133 -0.2074 0.6695
vn -0.2980 -0.0838 0.9509
vn -0.9720 -0.1869 0.1426
vn -0.4901 0.0881 0.8672
vn -0.9715 -0.2122 0.1054
vn 0.9337 0.3108 0.1777
vn 0.6505 0.3392 0.6796
vn 0.9789 0.1892 -0.0767
vn 0.7539 -0.0758 -0.6526
vn 0.6836 -0.2487 -0.6862
vn 0.5405 0.3431 -0.7682
vn 0.7540 0.1099 -0.6477
vn 0.0411 0.4139 -0.9094
vn 0.0181 0.2563 -0.9664
vn -0.4745 -0.5359 0.6983
vn -0.8526 0.3786 -0.3603
vn -0.5443 0.8351 -0.0799
vn 0.6068 0.1087 0.7874
vn 0.9643 0.1534 0.2157
vn 0.7320 0.2708 0.6252
vn -0.6286 0.2804 0.7254
vn -0.4515 0.0165 0.8921
vn 0.1749 -0.0539 0.9831
vn -0.1338 0.0928 0.9866
vn -0.3396 -0.0405 0.9397
vn 0.0578 0.3185 0.9462
vn -0.0453 -0.7148 -0.6979
vn 0.1019 -0.5202 -0.8480
vn 0.4812 -0.2114 -0.8508
vn 0.7493 0.1178 -0.6517
vn 0.9490 -0.0610 -0.3094
vn 0.9362 0.1346 -0.3247
vn -0.8414 -0.3869 -0.3773
vn 0.9847 0.1734 -0.0191
vn -0.5538 -0.6183 -0.5577
vn -0.0814 -0.4817 -0.8725
vn 0.7310 0.2477 -0.6359
vn 0.8577 0.4246 -0.2898
vn 0.9567 0.2419 -0.1621
vn -0.7382 0.2362 0.6319
vn -0.7280 0.6491 0.2207
vn 0.7514 -0.3663 -0.5489
vn -0.4516 0.8771 0.1636
vn 0.1432 0.7594 0.6347
vn -0.5043 0.8632 -0.0234
vn 0.5075 0.6616 -0.5521
vn -0.2821 0.5083 -0.8137
vn 0.5567 0.6716 0.4888
vn 0.6023 -0.6614 0.4469
vn -0.1019 0.2223 -0.9696
vn 0.1372 0.0018 -0.9905
vn -0.8997 0.0960 0.4258
vn -0.4568 -0.4703 -0.7551
vn -0.1575 -0.9552 -0.2506
vn 0.2837 -0.3694 -0.8849
vn -0.8937 -0.2702 0.3581
vn 0.9816 0.1491 -0.1195
vn 0.8984 0.0927 -0.4292
vn 0.9804 -0.1481 0.1298
vn 0.9471 -0.2789 -0.1591
vn -0.9631 0.1245 0.2385
vn -0.9407 -0.3110 -0.1358
vn -0.8418 -0.3592 -0.4029
vn -0.9086 -0.2387 -0.3427
vn 0.1974 0.9604 -0.1968
vn -0.3209 0.6777 0.6616
vn 0.7037 -0.0267 -0.7100
vn 0.0459 0.9766 -0.2100
vn 0.0821 0.4786 -0.8742
vn -0.5792 -0.0535 -0.8134
vn -0.4250 -0.3426 0.8378
vn 0.5732 -0.5118 -0.6399
vn -0.0094 -0.7297 -0.6837
vn 0.2520 0.9669 0.0403
vn 0.2854 0.4374 -0.8528
vn -0.4791 -0.4844 -0.7320
vn 0.1598 -0.6562 -0.7374
vn 0.0248 -0.7138 -0.6999
vn -0.4391 0.5801 0.6861
vn 0.6128 0.0389 -0.7893
vn 0.7954 0.5957 0.1119
vn 0.0036 0.9987 0.0501
vn -0.9509 0.1139 -0.2878
vn 0.9466 -0.0673 0.3154
vn 0.9814 0.1758 0.0766
vn 0.4733 0.4027 0.7835
vn 0.0313 0.3090 -0.9505
vn 0.3182 -0.3529 -0.8799
vn -0.7476 0.6610 0.0653
vn 0.7787 0.5578 -0.2873
vn -0.1989 0.5706 0.7968
vn -0.0427 0.1832 0.9821
vn 0.0058 -0.6415 -0.7671
vn -0.0313 0.7541 0.6560
vn -0.9668 0.1290 -0.2204
vn -0.0320 0.8379 -0.5449
vn -0.0596 0.8890 -0.4540
vn -0.9213 0.3605 -0.1460
vn -0.8664 -0.4408 0.2348
vn 0.7783 0.1648 0.6058
vn 0.2552 0.0297 -0.9664
vn 0.6850 -0.1411 0.7147
vn 0.9726 -0.0254 0.2312
vn 0.0781 -0.2028 0.9761
vn -0.9312 -0.0133 0.3643
vn 0.9951 0.0984 0.0018
g Crystal_13_low_Crystal_13_low_Default_OBJ.022
usemtl Default_OBJ.022
s 1
f 1/1/1 2/2/2 3/3/3
f 4/4/4 5/5/5 6/6/6
f 7/7/7 8/8/8 9/9/9
f 10/10/10 11/11/11 12/12/12
f 13/13/13 14/14/14 15/15/15
f 2/2/2 16/16/16 3/3/3
f 9/9/9 17/17/17 7/7/7
f 18/18/18 19/19/19 20/20/20
f 21/21/21 22/22/22 23/23/23
f 24/24/24 4/25/4 25/26/25
f 26/27/26 27/28/27 28/29/28
f 29/30/29 27/31/27 30/32/30
f 31/33/31 32/34/32 33/35/33
f 25/26/25 34/36/34 24/24/24
f 35/37/35 36/38/36 37/39/37
f 38/40/38 39/41/39 40/42/40
f 41/43/41 42/44/42 43/45/43
f 44/46/44 45/47/45 9/48/9
f 22/49/22 46/50/46 23/51/23
f 47/52/47 48/53/48 49/54/49
f 50/55/50 51/56/51 52/57/52
f 19/19/19 53/58/53 54/59/54
f 55/60/55 52/57/52 56/61/56
f 57/62/57 58/63/58 12/12/12
f 41/43/41 59/64/59 29/65/29
f 60/66/60 39/41/39 61/67/61
f 62/68/62 63/69/63 64/70/64
f 65/71/65 66/72/66 22/49/22
f 67/73/67 68/74/68 69/75/69
f 70/76/70 62/68/62 64/70/64
f 71/77/71 72/78/72 73/79/73
f 74/80/74 75/81/75 76/82/76
f 13/13/13 31/33/31 33/35/33
f 13/83/13 77/84/77 47/52/47
f 74/85/74 76/86/76 30/32/30
f 9/48/9 45/47/45 78/87/78
f 49/54/49 13/83/13 47/52/47
f 13/83/13 16/16/16 14/88/14
f 71/89/71 79/90/79 80/91/80
f 26/27/26 79/90/79 27/28/27
f 81/92/81 82/93/82 83/94/83
f 84/95/84 85/96/85 65/97/65
f 6/6/6 5/5/5 86/98/86
f 87/99/87 24/24/24 34/36/34
f 88/100/88 89/101/89 90/102/90
f 90/103/90 89/104/89 91/105/91
f 86/98/86 18/106/18 20/107/20
f 92/108/92 33/35/33 32/34/32
f 42/44/42 41/43/41 29/65/29
f 45/47/45 93/109/93 30/32/30
f 55/60/55 56/61/56 94/110/94
f 31/111/31 95/112/95 32/113/32
f 84/95/84 65/97/65 96/114/96
f 69/75/69 68/74/68 96/114/96
f 97/115/97 72/78/72 98/116/98
f 20/20/20 19/19/19 99/117/99
f 38/118/38 46/50/46 100/119/100
f 47/52/47 77/84/77 37/120/37
f 101/121/101 81/92/81 102/122/102
f 103/123/103 17/124/17 104/125/104
f 60/66/60 105/126/105 39/41/39
f 106/127/106 107/128/107 108/129/108
f 12/130/12 109/131/109 57/132/57
f 109/131/109 110/133/110 51/56/51
f 111/134/111 112/135/112 18/106/18
f 113/136/113 111/134/111 114/137/114
f 7/7/7 115/138/115 8/8/8
f 41/43/41 43/45/43 40/42/40
f 86/98/86 116/139/116 6/6/6
f 4/4/4 6/6/6 117/140/117
f 51/56/51 110/133/110 118/141/118
f 90/103/90 91/105/91 119/142/119
f 97/143/97 98/144/98 120/145/120
f 121/146/121 6/6/6 122/147/122
f 123/148/123 38/40/38 40/42/40
f 23/51/23 46/50/46 38/118/38
f 19/19/19 124/149/124 53/58/53
f 94/110/94 124/149/124 95/112/95
f 125/150/125 119/142/119 126/151/126
f 70/76/70 64/70/64 126/152/126
f 107/128/107 117/153/117 79/90/79
f 107/128/107 79/90/79 108/129/108
f 58/63/58 10/10/10 12/12/12
f 16/16/16 127/154/127 58/155/58
f 75/81/75 128/156/128 76/82/76
f 56/61/56 129/157/129 75/81/75
f 106/158/106 25/26/25 107/159/107
f 36/38/36 60/66/60 37/39/37
f 130/160/130 1/161/1 10/10/10
f 58/63/58 131/162/131 10/10/10
f 54/59/54 99/117/99 19/19/19
f 97/163/97 99/117/99 132/164/132
f 4/25/4 107/159/107 25/26/25
f 4/4/4 117/140/117 107/165/107
f 68/74/68 84/95/84 96/114/96
f 70/76/70 85/96/85 84/95/84
f 54/59/54 132/164/132 99/117/99
f 73/79/73 132/166/132 74/85/74
f 120/145/120 98/144/98 71/89/71
f 98/116/98 72/78/72 71/77/71
f 13/13/13 33/35/33 133/167/133
f 87/99/87 133/168/133 33/169/33
f 16/16/16 2/2/2 127/154/127
f 134/170/134 130/160/130 10/10/10
f 43/171/43 8/172/8 135/173/135
f 8/172/8 44/46/44 9/48/9
f 80/91/80 121/174/121 122/175/122
f 117/153/117 80/91/80 79/90/79
f 136/176/136 89/177/89 11/178/11
f 11/11/11 89/101/89 88/100/88
f 83/94/83 82/93/82 63/179/63
f 102/122/102 17/124/17 103/123/103
f 117/153/117 137/180/137 80/91/80
f 6/6/6 137/181/137 117/140/117
f 1/1/1 130/182/130 2/2/2
f 138/183/138 139/184/139 2/2/2
f 73/79/73 30/32/30 27/31/27
f 73/79/73 74/85/74 30/32/30
f 140/185/140 81/92/81 101/121/101
f 90/103/90 119/142/119 140/185/140
f 123/148/123 40/42/40 135/186/135
f 43/45/43 135/186/135 40/42/40
f 58/155/58 139/184/139 131/187/131
f 141/188/141 142/189/142 138/183/138
f 120/190/120 122/191/122 97/163/97
f 116/192/116 99/117/99 97/163/97
f 105/126/105 59/64/59 41/43/41
f 105/126/105 60/66/60 108/129/108
f 105/126/105 108/129/108 143/193/143
f 59/64/59 26/27/26 28/29/28
f 6/6/6 116/139/116 122/147/122
f 116/192/116 97/163/97 122/191/122
f 75/81/75 129/157/129 128/156/128
f 144/194/144 101/195/101 129/157/129
f 62/68/62 70/76/70 68/74/68
f 70/76/70 84/95/84 68/74/68
f 108/129/108 79/90/79 26/27/26
f 108/129/108 26/27/26 143/193/143
f 12/12/12 11/11/11 88/100/88
f 12/130/12 110/133/110 109/131/109
f 137/180/137 121/174/121 80/91/80
f 6/6/6 121/146/121 137/181/137
f 76/86/76 9/48/9 78/87/78
f 17/124/17 9/196/9 104/125/104
f 61/67/61 39/41/39 38/40/38
f 100/119/100 37/120/37 38/118/38
f 122/175/122 120/145/120 80/91/80
f 80/91/80 120/145/120 71/89/71
f 57/132/57 109/131/109 94/110/94
f 145/197/145 94/110/94 95/112/95
f 146/198/146 17/17/17 147/199/147
f 102/122/102 147/200/147 17/124/17
f 27/28/27 79/90/79 71/89/71
f 71/77/71 73/79/73 27/31/27
f 148/201/148 67/73/67 69/75/69
f 63/69/63 62/68/62 146/198/146
f 65/71/65 136/176/136 66/72/66
f 48/53/48 47/52/47 66/72/66
f 36/38/36 106/127/106 60/66/60
f 108/129/108 60/66/60 106/127/106
f 82/93/82 64/202/64 63/179/63
f 64/70/64 125/203/125 126/152/126
f 145/197/145 57/132/57 94/110/94
f 15/15/15 14/14/14 57/62/57
f 22/49/22 66/72/66 46/50/46
f 46/50/46 66/72/66 100/119/100
f 115/138/115 7/7/7 148/201/148
f 148/201/148 146/198/146 67/73/67
f 15/15/15 31/33/31 13/13/13
f 145/204/145 15/15/15 57/62/57
f 51/56/51 118/141/118 140/205/140
f 144/194/144 140/205/140 101/195/101
f 146/198/146 148/201/148 7/7/7
f 17/17/17 146/198/146 7/7/7
f 149/206/149 34/36/34 25/26/25
f 106/158/106 149/206/149 25/26/25
f 115/138/115 123/207/123 135/208/135
f 8/8/8 115/138/115 135/208/135
f 56/61/56 75/81/75 53/58/53
f 54/59/54 53/58/53 75/81/75
f 131/162/131 134/170/134 10/10/10
f 142/189/142 141/188/141 131/187/131
f 110/133/110 12/130/12 88/209/88
f 118/141/118 110/133/110 88/209/88
f 55/60/55 50/55/50 52/57/52
f 109/131/109 51/56/51 50/55/50
f 78/87/78 45/47/45 30/32/30
f 76/86/76 78/87/78 30/32/30
f 27/28/27 29/65/29 28/29/28
f 59/64/59 28/29/28 29/65/29
f 138/183/138 142/189/142 139/184/139
f 139/184/139 142/189/142 131/187/131
f 59/64/59 105/126/105 143/193/143
f 59/64/59 143/193/143 26/27/26
f 102/122/102 83/94/83 63/179/63
f 102/122/102 81/92/81 83/94/83
f 54/59/54 75/81/75 74/80/74
f 132/164/132 54/59/54 74/80/74
f 35/210/35 34/36/34 36/211/36
f 77/84/77 35/212/35 37/120/37
f 65/97/65 85/96/85 89/213/89
f 89/177/89 136/176/136 65/71/65
f 34/36/34 35/210/35 133/168/133
f 87/99/87 34/36/34 133/168/133
f 42/214/42 45/47/45 44/46/44
f 45/47/45 42/214/42 29/30/29
f 130/182/130 138/183/138 2/2/2
f 134/170/134 138/215/138 130/160/130
f 13/83/13 133/216/133 77/84/77
f 133/216/133 35/212/35 77/84/77
f 109/131/109 55/60/55 94/110/94
f 55/60/55 109/131/109 50/55/50
f 139/184/139 127/154/127 2/2/2
f 127/154/127 139/184/139 58/155/58
f 103/217/103 76/82/76 128/156/128
f 150/218/150 128/156/128 129/157/129
f 95/112/95 19/19/19 18/18/18
f 95/112/95 124/149/124 19/19/19
f 150/219/150 102/122/102 103/123/103
f 150/218/150 103/217/103 128/156/128
f 21/21/21 69/75/69 96/114/96
f 21/21/21 148/201/148 69/75/69
f 56/61/56 52/57/52 129/157/129
f 52/57/52 144/194/144 129/157/129
f 85/96/85 70/76/70 126/152/126
f 85/220/85 91/105/91 89/104/89
f 114/137/114 111/134/111 5/5/5
f 5/5/5 4/4/4 114/137/114
f 91/105/91 85/220/85 126/151/126
f 126/151/126 119/142/119 91/105/91
f 57/62/57 14/14/14 58/63/58
f 16/16/16 58/155/58 14/88/14
f 39/41/39 105/126/105 41/43/41
f 41/43/41 40/42/40 39/41/39
f 96/114/96 65/97/65 22/22/22
f 96/114/96 22/22/22 21/21/21
f 8/172/8 43/171/43 44/46/44
f 44/46/44 43/171/43 42/214/42
f 32/221/32 18/106/18 112/135/112
f 32/113/32 95/112/95 18/18/18
f 36/211/36 149/206/149 106/158/106
f 36/211/36 34/36/34 149/206/149
f 94/110/94 56/61/56 124/149/124
f 124/149/124 56/61/56 53/58/53
f 81/92/81 119/142/119 82/93/82
f 140/185/140 119/142/119 81/92/81
f 111/134/111 18/106/18 86/98/86
f 111/134/111 86/98/86 5/5/5
f 148/201/148 21/21/21 115/138/115
f 21/21/21 23/23/23 115/138/115
f 11/178/11 1/1/1 136/176/136
f 1/161/1 11/11/11 10/10/10
f 37/39/37 61/67/61 38/40/38
f 37/39/37 60/66/60 61/67/61
f 138/215/138 134/170/134 141/222/141
f 141/222/141 134/170/134 131/162/131
f 100/119/100 47/52/47 37/120/37
f 100/119/100 66/72/66 47/52/47
f 24/24/24 114/223/114 4/25/4
f 87/99/87 114/223/114 24/24/24
f 104/125/104 9/196/9 76/224/76
f 76/224/76 103/123/103 104/125/104
f 118/225/118 90/103/90 140/185/140
f 88/100/88 90/102/90 118/226/118
f 113/136/113 112/135/112 111/134/111
f 87/99/87 113/227/113 114/223/114
f 102/122/102 150/219/150 101/121/101
f 129/157/129 101/195/101 150/218/150
f 87/99/87 33/169/33 92/228/92
f 92/229/92 32/221/32 112/135/112
f 93/109/93 29/30/29 30/32/30
f 45/47/45 29/30/29 93/109/93
f 82/93/82 119/142/119 125/150/125
f 125/150/125 64/202/64 82/93/82
f 1/1/1 3/3/3 136/176/136
f 136/176/136 48/53/48 66/72/66
f 112/230/112 113/227/113 87/99/87
f 92/228/92 112/230/112 87/99/87
f 140/205/140 144/194/144 51/56/51
f 51/56/51 144/194/144 52/57/52
f 146/198/146 62/68/62 67/73/67
f 62/68/62 68/74/68 67/73/67
f 15/15/15 145/204/145 31/33/31
f 31/111/31 145/197/145 95/112/95
f 132/166/132 73/79/73 72/78/72
f 97/115/97 132/166/132 72/78/72
f 147/199/147 63/69/63 146/198/146
f 102/122/102 63/179/63 147/200/147
f 136/176/136 3/3/3 48/53/48
f 3/3/3 49/54/49 48/53/48
f 115/138/115 23/23/23 123/207/123
f 38/118/38 123/231/123 23/51/23
f 20/107/20 116/139/116 86/98/86
f 20/20/20 99/117/99 116/192/116
f 49/54/49 3/3/3 16/16/16
f 16/16/16 13/83/13 49/54/49
