# Blender v2.90.1 OBJ File: 'Crystal_OBJ.blend'
# www.blender.org
mtllib Crystal_27_low.mtl
o Crystal_27_low
v 0.485194 0.272248 0.131051
v 0.321105 0.511574 0.242938
v 0.404393 0.361629 0.372801
v -0.291455 0.426654 -0.273888
v -0.501340 0.289271 -0.083610
v -0.315699 0.320751 0.116338
v 0.149644 0.004784 -0.099050
v -0.113526 0.002860 0.016300
v -0.234522 0.004301 -0.289620
v -0.243090 0.256517 -0.551392
v -0.513664 0.297113 -0.148777
v 0.355911 -0.007256 0.095981
v 0.254004 0.302564 -0.239468
v 0.282263 0.401485 -0.127203
v 0.380207 0.204757 0.270692
v 0.092426 0.051112 0.351023
v -0.288189 0.278022 0.172458
v -0.303221 0.044505 -0.175600
v -0.108424 0.090256 -0.423809
v -0.002761 0.008755 -0.374999
v 0.323016 0.197611 -0.120771
v 0.085238 0.195050 -0.520480
v -0.155545 0.467938 0.280870
v -0.117666 0.223010 0.475577
v 0.133666 0.367886 0.572339
v -0.023119 0.038812 0.351082
v -0.072060 0.419342 -0.154874
v 0.078261 0.417376 -0.134181
v 0.053622 0.427155 -0.375816
v 0.074203 0.506673 0.390341
v -0.428310 0.179070 -0.374344
v 0.429368 0.104450 0.061819
v -0.176161 0.510346 0.094360
v -0.209792 0.410567 0.034611
v -0.078863 0.524991 -0.041732
v -0.289674 0.312379 0.291202
v 0.232173 0.511219 -0.019045
v -0.102952 0.004843 0.082115
v 0.241870 0.274149 -0.361246
v -0.091075 0.270685 -0.581762
v -0.030082 0.000428 0.281310
vt 0.812451 0.735404
vt 0.818375 0.584940
vt 0.912122 0.622064
vt 0.493082 0.446122
vt 0.493005 0.306129
vt 0.641993 0.312832
vt 0.800964 0.938670
vt 0.818001 0.809032
vt 0.965613 0.833938
vt 0.366929 0.519935
vt 0.466008 0.322568
vt 0.676323 0.973023
vt 0.602520 0.682791
vt 0.665562 0.648439
vt 0.346463 0.692491
vt 0.216622 0.738505
vt 0.207069 0.578287
vt 0.328266 0.400692
vt 0.154429 0.328578
vt 0.362680 0.262737
vt 0.434698 0.255166
vt 0.531426 0.211762
vt 0.561100 0.279683
vt 0.422083 0.826773
vt 0.486982 0.710359
vt 0.654446 0.872820
vt 0.755827 0.393557
vt 0.876811 0.303326
vt 0.949678 0.446218
vt 0.026277 0.642204
vt 0.083691 0.497668
vt 0.198973 0.523339
vt 0.588121 0.504141
vt 0.623826 0.568361
vt 0.520587 0.591927
vt 0.832037 0.469417
vt 0.370799 0.398558
vt 0.220488 0.168034
vt 0.328241 0.758162
vt 0.654446 0.187167
vt 0.680931 0.423495
vt 0.631961 0.400312
vt 0.649888 0.481937
vt 0.097712 0.359036
vt 0.735768 0.295345
vt 0.710948 0.594752
vt 0.789888 0.797608
vt 0.303968 0.425506
vt 0.541634 0.698196
vt 0.388167 0.591656
vt 0.592773 0.102363
vt 0.695148 0.779065
vt 0.433393 0.674307
vt 0.538719 0.897863
vt 0.475460 0.899066
vt 0.262138 0.822682
vt 0.672815 0.284298
vt 0.130332 0.778839
vt 0.380581 0.122932
vt 0.241872 0.140607
vt 0.236905 0.511075
vt 0.938035 0.776989
vt 0.514094 0.082973
vt 0.640077 0.747590
vt 0.944309 0.944307
vn 0.9970 0.0679 -0.0362
vn 0.4935 0.8611 0.1227
vn 0.7854 0.1478 0.6011
vn -0.3572 0.9083 -0.2175
vn -0.9068 0.1347 0.3994
vn -0.7819 0.5374 0.3161
vn 0.3180 -0.9101 -0.2657
vn -0.3428 -0.9269 0.1530
vn -0.3190 -0.9043 -0.2838
vn -0.4247 0.0809 -0.9017
vn -0.9701 0.2419 -0.0218
vn 0.5549 -0.8315 0.0257
vn 0.7367 0.5814 -0.3453
vn 0.5323 0.6246 -0.5714
vn 0.6632 -0.4989 0.5579
vn 0.2460 -0.7295 0.6382
vn -0.8233 -0.4964 0.2752
vn -0.5880 -0.7901 0.1730
vn -0.1762 -0.6685 -0.7225
vn 0.2000 -0.8567 -0.4754
vn 0.7899 -0.3094 -0.5295
vn 0.4958 -0.2170 -0.8409
vn -0.5178 0.7374 0.4337
vn -0.5328 -0.2225 0.8164
vn 0.1278 0.1811 0.9751
vn -0.2993 -0.7524 0.5868
vn -0.0810 0.9721 -0.2203
vn 0.1676 0.8758 -0.4526
vn 0.2755 0.8809 -0.3848
vn -0.0856 0.8952 0.4374
vn -0.8099 -0.2769 -0.5172
vn 0.8790 -0.4319 -0.2018
vn -0.5479 0.8329 -0.0778
vn -0.6436 0.7348 -0.2140
vn -0.2895 0.8655 -0.4088
vn -0.8948 0.0433 0.4444
vn 0.3429 0.8697 -0.3551
vn -0.4679 -0.8744 0.1281
vn 0.8382 0.1508 -0.5242
vn 0.0136 0.1638 -0.9864
vn -0.4091 -0.8549 0.3189
g Crystal_27_low_Crystal_27_low_Default_OBJ.044
usemtl Default_OBJ.044
s 1
f 1/1/1 2/2/2 3/3/3
f 4/4/4 5/5/5 6/6/6
f 7/7/7 8/8/8 9/9/9
f 4/4/4 10/10/10 11/11/11
f 8/8/8 7/7/7 12/12/12
f 1/1/1 13/13/13 14/14/14
f 12/15/12 15/16/15 16/17/16
f 8/18/8 17/19/17 18/20/18
f 9/21/9 19/22/19 20/23/20
f 21/24/21 7/25/7 22/26/22
f 23/27/23 24/28/24 25/29/25
f 25/30/25 24/31/24 26/32/26
f 27/33/27 28/34/28 29/35/29
f 30/36/30 25/29/25 2/2/2
f 10/10/10 31/37/31 11/11/11
f 17/19/17 5/38/5 18/20/18
f 15/16/15 12/15/12 32/39/32
f 7/25/7 21/24/21 12/15/12
f 22/40/22 20/23/20 19/22/19
f 13/13/13 29/35/29 28/34/28
f 6/6/6 33/41/33 34/42/34
f 35/43/35 30/36/30 2/2/2
f 24/31/24 36/44/36 26/32/26
f 24/28/24 23/27/23 36/45/36
f 1/1/1 37/46/37 2/2/2
f 37/46/37 35/43/35 2/2/2
f 27/33/27 35/43/35 28/34/28
f 4/4/4 6/6/6 34/42/34
f 8/8/8 12/12/12 38/47/38
f 8/18/8 38/48/38 17/19/17
f 35/43/35 27/33/27 34/42/34
f 35/43/35 34/42/34 33/41/33
f 34/42/34 27/33/27 4/4/4
f 29/35/29 4/4/4 27/33/27
f 25/30/25 16/17/16 15/16/15
f 25/29/25 3/3/3 2/2/2
f 39/49/39 40/50/40 29/35/29
f 40/50/40 4/4/4 29/35/29
f 25/29/25 30/36/30 23/27/23
f 35/43/35 33/41/33 30/36/30
f 40/51/40 22/40/22 19/22/19
f 40/50/40 10/10/10 4/4/4
f 38/47/38 12/12/12 41/52/41
f 26/32/26 36/44/36 38/48/38
f 22/53/22 40/50/40 39/49/39
f 21/24/21 22/26/22 39/54/39
f 6/6/6 36/45/36 33/41/33
f 38/48/38 36/44/36 17/19/17
f 12/15/12 21/24/21 32/39/32
f 13/55/13 1/56/1 21/24/21
f 17/57/17 36/45/36 6/6/6
f 6/6/6 5/5/5 17/57/17
f 3/58/3 25/30/25 15/16/15
f 3/58/3 15/16/15 1/56/1
f 32/39/32 21/24/21 1/56/1
f 15/16/15 32/39/32 1/56/1
f 33/41/33 36/45/36 23/27/23
f 30/36/30 33/41/33 23/27/23
f 31/59/31 19/22/19 9/21/9
f 11/60/11 31/59/31 18/20/18
f 21/24/21 39/54/39 13/55/13
f 13/13/13 39/49/39 29/35/29
f 16/17/16 25/30/25 26/32/26
f 16/17/16 41/61/41 12/15/12
f 18/20/18 31/59/31 9/21/9
f 18/62/18 9/9/9 8/8/8
f 28/34/28 35/43/35 14/14/14
f 13/13/13 28/34/28 14/14/14
f 41/61/41 16/17/16 26/32/26
f 26/32/26 38/48/38 41/61/41
f 40/51/40 19/22/19 10/63/10
f 31/59/31 10/63/10 19/22/19
f 14/14/14 35/43/35 37/46/37
f 1/1/1 14/14/14 37/46/37
f 11/11/11 5/5/5 4/4/4
f 18/20/18 5/38/5 11/60/11
f 7/25/7 20/64/20 22/26/22
f 9/9/9 20/65/20 7/7/7
