# Blender v2.90.1 OBJ File: 'Crystal_OBJ.blend'
# www.blender.org
mtllib Crystal_32_low.mtl
o Crystal_32_low
v 0.042485 1.138182 -0.247921
v 0.188499 0.663674 -0.322148
v -0.000710 0.166650 -0.269407
v 0.198847 1.032116 0.252606
v 0.021979 0.106534 0.214825
v 0.149682 -0.019375 0.294187
v 0.404099 0.006537 -0.209347
v 0.413709 -0.016033 0.045467
v 0.216766 -0.015616 -0.298655
v 0.418322 0.813387 0.008513
v 0.355736 0.929882 0.193782
v 0.480642 0.077178 0.008998
v -0.014572 0.794318 0.149736
v 0.310303 1.487386 0.169351
v 0.384412 1.482744 -0.024906
v 0.057490 1.539184 0.051045
v -0.457093 0.611107 0.067207
v -0.446109 0.743484 -0.133453
v -0.521227 0.068373 0.078193
v -0.015809 -0.016180 0.196554
v 0.239071 -0.032095 -0.035493
v -0.037755 0.881843 0.219440
v -0.313552 0.539020 0.291230
v -0.270824 -0.001796 -0.279764
v -0.292007 -0.012177 0.052920
v -0.496792 -0.000006 -0.105339
v -0.279589 0.214269 -0.270295
v -0.122000 0.862704 -0.170283
v -0.078061 0.564216 -0.186506
v -0.323878 1.023032 -0.206664
v -0.421859 1.137769 0.079037
v -0.111575 1.189689 -0.055540
v -0.396569 1.144579 -0.121386
v -0.151902 0.281315 0.327097
v 0.004415 0.237783 0.229062
v -0.022096 -0.007340 -0.164895
v -0.063549 0.000636 0.170925
v -0.044799 1.081462 -0.042799
v -0.033820 0.538985 -0.136283
v 0.032301 1.136587 0.144152
v -0.065375 0.000330 -0.218282
v 0.049910 1.527121 -0.066000
v 0.174544 1.288877 -0.293343
v -0.037003 1.171822 -0.049243
v -0.011646 0.981890 0.096386
v -0.151781 0.991527 0.295447
v -0.077697 1.128982 0.067897
v -0.247042 1.139281 0.245963
v -0.320352 1.066108 0.267866
v 0.332324 0.710969 -0.251449
v 0.192841 0.341962 -0.327080
v -0.393109 0.016722 0.269343
v -0.189096 0.000941 0.308444
v 0.318987 1.464984 -0.232616
v -0.459776 0.767468 0.058212
v 0.234861 1.374339 0.217028
v 0.417656 0.047526 0.173704
v 0.354589 -0.017532 0.199752
v -0.060059 1.040824 -0.034139
v 0.121280 0.301943 -0.306463
v 0.126983 -0.013444 -0.311284
v -0.033116 0.015467 -0.211030
v -0.329696 0.265311 0.294578
v -0.104657 0.001736 0.299033
v 0.350318 0.266754 -0.252650
v -0.061464 0.236125 -0.203315
vt 0.240607 0.420245
vt 0.190200 0.268937
vt 0.260781 0.101612
vt 0.618736 0.570858
vt 0.700312 0.902169
vt 0.644849 0.945961
vt 0.930046 0.144454
vt 0.925568 0.227963
vt 0.870897 0.110537
vt 0.494156 0.635299
vt 0.563615 0.603364
vt 0.474111 0.904201
vt 0.717939 0.654573
vt 0.582455 0.460881
vt 0.530465 0.417791
vt 0.626302 0.432005
vt 0.530967 0.252762
vt 0.459345 0.288564
vt 0.547812 0.059838
vt 0.833768 0.302482
vt 0.782179 0.267014
vt 0.870496 0.197116
vt 0.746520 0.632496
vt 0.932208 0.728002
vt 0.943572 0.925060
vt 0.840488 0.757355
vt 0.709469 0.100212
vt 0.692345 0.211133
vt 0.627514 0.152816
vt 0.385641 0.110843
vt 0.482706 0.032268
vt 0.348565 0.331826
vt 0.321462 0.239035
vt 0.410423 0.364881
vt 0.492973 0.436984
vt 0.356638 0.453055
vt 0.435994 0.396208
vt 0.778543 0.843689
vt 0.713891 0.854800
vt 0.786719 0.146223
vt 0.766136 0.257238
vt 0.313250 0.419196
vt 0.297810 0.235055
vt 0.673079 0.522931
vt 0.772639 0.128696
vt 0.236501 0.557628
vt 0.196404 0.457005
vt 0.302564 0.448553
vt 0.715137 0.571393
vt 0.734181 0.501779
vt 0.794233 0.615178
vt 0.774937 0.538051
vt 0.824769 0.580546
vt 0.841273 0.601056
vt 0.135812 0.285814
vt 0.189773 0.163092
vt 0.026561 0.063137
vt 0.039266 0.333262
vt 0.652312 0.281686
vt 0.720141 0.300001
vt 0.158189 0.498080
vt 0.789209 0.495966
vt 0.888029 0.553125
vt 0.932327 0.672519
vt 0.602033 0.483215
vt 0.537806 0.911560
vt 0.902536 0.276630
vt 0.742649 0.512834
vt 0.110919 0.037007
vt 0.019062 0.019826
vt 0.319571 0.405813
vt 0.607172 0.216197
vt 0.215355 0.147145
vt 0.218444 0.034094
vt 0.287579 0.049052
vt 0.841542 0.853458
vt 0.860662 0.943335
vt 0.785372 0.944697
vt 0.638602 0.401021
vt 0.718935 0.476268
vt 0.754987 0.942208
vt 0.110138 0.546079
vt 0.709185 0.949180
vt 0.842002 0.103769
vt 0.132326 0.131253
vt 0.186241 0.031918
vt 0.304721 0.126603
vt 0.520549 0.307387
vt 0.784113 0.128703
vt 0.749040 0.299070
vt 0.498209 0.943518
vt 0.558946 0.937768
vt 0.377598 0.033704
vn -0.7018 0.1227 -0.7017
vn 0.0463 0.0358 -0.9983
vn -0.6754 -0.0030 -0.7374
vn -0.0716 0.0784 0.9943
vn 0.0272 -0.0193 0.9994
vn -0.0545 -0.5969 0.8005
vn 0.6706 -0.5403 -0.5084
vn 0.5384 -0.8403 0.0638
vn 0.2021 -0.6467 -0.7355
vn 0.9977 0.0645 -0.0225
vn 0.7321 0.0558 0.6789
vn 0.9795 -0.2013 -0.0003
vn 0.4026 0.1181 0.9077
vn 0.4435 0.6363 0.6312
vn 0.7855 0.6185 -0.0202
vn -0.5332 0.7766 0.3357
vn -0.9538 0.0684 0.2924
vn -0.8713 0.0650 -0.4864
vn -0.9288 -0.2757 0.2476
vn -0.0822 -0.9230 0.3759
vn 0.0252 -0.9994 -0.0254
vn 0.8118 0.1585 0.5620
vn -0.5230 0.0542 0.8506
vn -0.1381 -0.5973 -0.7900
vn -0.0466 -0.9981 0.0403
vn -0.7083 -0.6146 -0.3471
vn -0.1831 0.0452 -0.9821
vn 0.5541 0.1617 -0.8166
vn 0.5504 0.1122 -0.8273
vn -0.1591 0.2797 -0.9468
vn -0.7464 0.6344 0.2014
vn 0.4906 0.7992 -0.3473
vn -0.5700 0.6680 -0.4784
vn 0.1776 -0.0118 0.9840
vn 0.7224 0.0415 0.6903
vn -0.1291 -0.9851 -0.1134
vn -0.1479 -0.9888 -0.0182
vn -0.9886 0.1434 -0.0459
vn -0.1683 0.1567 -0.9732
vn -0.7419 0.1476 0.6541
vn 0.2292 -0.7458 -0.6255
vn -0.5707 0.7591 -0.3131
vn -0.1625 0.2449 -0.9558
vn -0.9893 0.1415 -0.0353
vn -0.1721 0.5772 0.7982
vn 0.3683 0.2898 0.8834
vn 0.7501 0.6196 0.2312
vn 0.0435 0.7740 0.6317
vn -0.5145 0.2976 0.8042
vn 0.7332 0.0480 -0.6784
vn 0.0877 -0.2034 -0.9751
vn -0.5113 -0.5644 0.6481
vn -0.0116 -0.6438 0.7651
vn 0.4459 0.5894 -0.6736
vn -0.9734 0.0380 0.2261
vn -0.0618 0.2388 0.9691
vn 0.7621 -0.2306 0.6050
vn 0.4258 -0.6992 0.5742
vn 0.2158 0.6228 -0.7520
vn -0.1414 -0.0640 -0.9879
vn -0.1344 -0.6308 -0.7642
vn -0.0826 -0.5423 -0.8361
vn -0.4837 0.0209 0.8750
vn 0.2723 -0.6407 0.7179
vn 0.6552 0.0015 -0.7555
vn 0.4759 0.0882 -0.8751
g Crystal_32_low_Crystal_32_low_Default_OBJ.062
usemtl Default_OBJ.062
s 1
f 1/1/1 2/2/2 3/3/3
f 4/4/4 5/5/5 6/6/6
f 7/7/7 8/8/8 9/9/9
f 10/10/10 11/11/11 12/12/12
f 4/4/4 13/13/13 5/5/5
f 14/14/14 15/15/15 16/16/16
f 17/17/17 18/18/18 19/19/19
f 6/20/6 20/21/20 21/22/21
f 13/13/13 22/23/22 5/5/5
f 17/24/17 19/25/19 23/26/23
f 24/27/24 25/28/25 26/29/26
f 27/30/27 26/31/26 18/18/18
f 28/32/28 29/33/29 30/34/30
f 31/35/31 32/36/32 33/37/33
f 22/23/22 34/38/34 35/39/35
f 36/40/36 20/21/20 37/41/37
f 38/42/38 1/1/1 39/43/39
f 4/4/4 40/44/40 13/13/13
f 36/40/36 37/41/37 41/45/41
f 30/34/30 29/33/29 27/30/27
f 42/46/42 43/47/43 1/1/1
f 42/46/42 1/1/1 44/48/44
f 45/49/45 40/44/40 38/50/38
f 46/51/46 45/49/45 47/52/47
f 20/21/20 36/40/36 21/22/21
f 1/1/1 3/3/3 39/43/39
f 46/51/46 47/52/47 48/53/48
f 46/51/46 49/54/49 23/26/23
f 2/2/2 50/55/50 51/56/51
f 12/57/12 50/55/50 10/58/10
f 46/51/46 23/26/23 34/38/34
f 52/59/52 26/29/26 53/60/53
f 43/47/43 54/61/54 50/55/50
f 43/47/43 42/46/42 54/61/54
f 48/53/48 32/62/32 31/63/31
f 55/64/55 23/26/23 49/54/49
f 16/16/16 56/65/56 14/14/14
f 11/11/11 4/4/4 6/6/6
f 33/37/33 32/36/32 30/34/30
f 30/34/30 27/30/27 18/18/18
f 57/66/57 11/11/11 6/6/6
f 21/22/21 58/67/58 6/20/6
f 30/34/30 32/36/32 28/32/28
f 59/68/59 47/52/47 45/49/45
f 7/69/7 12/57/12 8/70/8
f 12/12/12 11/11/11 57/66/57
f 32/36/32 59/71/59 28/32/28
f 28/32/28 59/71/59 29/33/29
f 19/19/19 18/18/18 26/31/26
f 19/72/19 26/29/26 52/59/52
f 3/3/3 2/2/2 60/73/60
f 61/74/61 62/75/62 3/3/3
f 63/76/63 52/77/52 53/78/53
f 19/25/19 52/77/52 63/76/63
f 16/16/16 42/79/42 44/80/44
f 16/16/16 15/15/15 42/79/42
f 64/81/64 35/39/35 34/38/34
f 64/81/64 34/38/34 63/76/63
f 50/55/50 54/61/54 10/58/10
f 15/82/15 54/61/54 42/46/42
f 6/6/6 5/5/5 20/83/20
f 5/5/5 64/81/64 20/83/20
f 31/35/31 33/37/33 18/18/18
f 18/18/18 33/37/33 30/34/30
f 9/9/9 8/8/8 21/22/21
f 61/84/61 21/22/21 36/40/36
f 59/68/59 32/62/32 47/52/47
f 32/62/32 48/53/48 47/52/47
f 7/69/7 65/85/65 12/57/12
f 9/86/9 65/85/65 7/69/7
f 64/81/64 63/76/63 53/78/53
f 37/41/37 25/28/25 41/45/41
f 43/47/43 50/55/50 2/2/2
f 2/2/2 1/1/1 43/47/43
f 14/14/14 11/11/11 15/15/15
f 11/11/11 14/14/14 56/65/56
f 22/23/22 46/51/46 34/38/34
f 45/49/45 46/51/46 22/23/22
f 27/30/27 29/33/29 66/87/66
f 39/43/39 3/3/3 62/75/62
f 15/15/15 11/11/11 10/10/10
f 10/58/10 54/61/54 15/82/15
f 48/53/48 49/54/49 46/51/46
f 31/63/31 49/54/49 48/53/48
f 59/71/59 39/43/39 29/33/29
f 29/33/29 39/43/39 66/87/66
f 11/11/11 56/65/56 4/4/4
f 56/65/56 40/44/40 4/4/4
f 31/63/31 55/64/55 49/54/49
f 31/35/31 18/18/18 55/88/55
f 9/86/9 61/74/61 65/85/65
f 9/9/9 21/22/21 61/84/61
f 13/13/13 40/44/40 45/49/45
f 45/49/45 22/23/22 13/13/13
f 61/84/61 36/40/36 62/89/62
f 62/89/62 36/40/36 41/45/41
f 25/28/25 64/90/64 53/60/53
f 25/28/25 53/60/53 26/29/26
f 61/74/61 60/73/60 65/85/65
f 61/74/61 3/3/3 60/73/60
f 38/50/38 59/68/59 45/49/45
f 59/71/59 38/42/38 39/43/39
f 55/64/55 17/24/17 23/26/23
f 17/17/17 55/88/55 18/18/18
f 5/5/5 22/23/22 35/39/35
f 35/39/35 64/81/64 5/5/5
f 51/56/51 50/55/50 65/85/65
f 65/85/65 50/55/50 12/57/12
f 37/41/37 64/90/64 25/28/25
f 20/21/20 64/90/64 37/41/37
f 51/56/51 65/85/65 60/73/60
f 51/56/51 60/73/60 2/2/2
f 16/16/16 40/44/40 56/65/56
f 16/16/16 44/80/44 40/44/40
f 12/12/12 57/66/57 8/91/8
f 58/92/58 57/66/57 6/6/6
f 23/26/23 19/25/19 63/76/63
f 34/38/34 23/26/23 63/76/63
f 66/87/66 39/43/39 62/75/62
f 27/30/27 66/87/66 62/75/62
f 62/89/62 41/45/41 24/27/24
f 41/45/41 25/28/25 24/27/24
f 40/44/40 44/80/44 38/50/38
f 44/48/44 1/1/1 38/42/38
f 57/66/57 58/92/58 8/91/8
f 8/8/8 58/67/58 21/22/21
f 26/31/26 27/30/27 24/93/24
f 27/30/27 62/75/62 24/93/24
