# Blender v2.90.1 OBJ File: 'Crystal_OBJ.blend'
# www.blender.org
mtllib Crystal_37_low.mtl
o Crystal_37_low
v -0.228604 1.308627 -0.120250
v -0.083543 1.546469 0.088842
v -0.128828 1.494740 -0.161751
v -0.261014 0.028058 0.076074
v -0.096175 0.187699 0.254578
v -0.098941 0.771396 0.228080
v -0.056155 0.031091 -0.252310
v 0.030440 -0.001957 -0.032443
v -0.258971 0.010257 -0.109577
v 0.263782 0.005092 0.196406
v 0.285931 0.071677 -0.062889
v 0.269256 1.020578 -0.004399
v 0.175392 0.094497 -0.200639
v 0.148443 0.840492 -0.151600
v -0.160267 0.302379 -0.196076
v -0.121562 0.736058 -0.220155
v 0.061835 0.724617 0.264994
v 0.235416 1.503173 0.010431
v 0.065770 1.508764 -0.131630
v 0.008570 1.561552 0.152332
v 0.171911 0.011737 -0.131313
v 0.062314 0.014742 0.304770
v 0.250259 1.040787 0.145666
v 0.078835 1.133844 0.223905
v 0.234200 1.397207 0.097504
v -0.251191 1.163154 0.009525
v -0.291220 0.190404 0.034974
v -0.251875 0.353003 -0.142555
v -0.266702 0.334368 -0.077841
v -0.172248 1.356362 0.087965
v -0.120323 1.199466 0.174326
v -0.097149 1.403652 -0.206673
v 0.104408 1.457258 -0.148266
vt 0.592543 0.593874
vt 0.671457 0.726754
vt 0.551924 0.678686
vt 0.722416 0.032880
vt 0.828386 0.120620
vt 0.793196 0.386983
vt 0.504192 0.721658
vt 0.477680 0.828660
vt 0.386323 0.724366
vt 0.184039 0.026015
vt 0.310631 0.044896
vt 0.328001 0.485467
vt 0.394604 0.049699
vt 0.407716 0.398026
vt 0.560192 0.152115
vt 0.531008 0.348440
vt 0.509625 0.020154
vt 0.874760 0.379081
vt 0.676334 0.805732
vt 0.777827 0.803401
vt 0.717717 0.924331
vt 0.553613 0.826714
vt 0.406229 0.967632
vt 0.259845 0.503786
vt 0.076613 0.046363
vt 0.857594 0.846246
vt 0.233607 0.771390
vt 0.182540 0.566278
vt 0.304198 0.658728
vt 0.652408 0.539249
vt 0.692737 0.108420
vt 0.604237 0.183778
vt 0.337773 0.796345
vt 0.634976 0.172047
vt 0.134671 0.375254
vt 0.676158 0.629070
vt 0.737003 0.574755
vt 0.720657 0.753831
vt 0.835749 0.573774
vt 0.529509 0.634513
vt 0.769450 0.926465
vt 0.440187 0.666839
vt 0.349436 0.704511
vt 0.913288 0.044521
vt 0.455737 0.694351
vt 0.513963 0.974706
vt 0.593059 0.877449
vt 0.590650 0.796057
vt 0.631050 0.015745
vn -0.8987 0.2329 -0.3716
vn -0.5477 0.7861 0.2865
vn -0.4856 0.6945 -0.5309
vn -0.7024 -0.6063 0.3729
vn -0.5243 -0.0510 0.8500
vn -0.5093 0.0688 0.8578
vn -0.1129 -0.5644 -0.8178
vn -0.0062 -0.9992 -0.0394
vn -0.6691 -0.6432 -0.3723
vn 0.6656 -0.6098 0.4302
vn 0.8825 -0.3642 -0.2976
vn 0.9506 0.0591 -0.3049
vn 0.5137 -0.2231 -0.8285
vn 0.5093 0.0560 -0.8588
vn -0.5770 -0.0431 -0.8156
vn -0.2037 0.0407 -0.9782
vn 0.1334 0.0670 0.9888
vn 0.7808 0.6198 -0.0792
vn 0.2006 0.7897 -0.5798
vn -0.0311 0.7806 0.6242
vn 0.3512 -0.8487 -0.3956
vn 0.0061 -0.5984 0.8012
vn 0.8164 0.0748 0.5726
vn 0.1458 0.1302 0.9807
vn 0.7830 0.2375 0.5749
vn -0.9599 0.0992 0.2621
vn -0.9690 -0.0109 0.2468
vn -0.7893 -0.2779 -0.5475
vn -0.9452 -0.0526 -0.3221
vn -0.8122 0.2982 0.5014
vn -0.5300 0.1135 0.8404
vn -0.1681 0.1918 -0.9669
vn 0.4919 0.2857 -0.8224
g Crystal_37_low_Crystal_37_low_Default_OBJ.074
usemtl Default_OBJ.074
s 1
f 1/1/1 2/2/2 3/3/3
f 4/4/4 5/5/5 6/6/6
f 7/7/7 8/8/8 9/9/9
f 10/10/10 11/11/11 12/12/12
f 13/13/13 14/14/14 12/12/12
f 15/15/15 16/16/16 7/17/7
f 5/5/5 17/18/17 6/6/6
f 18/19/18 19/20/19 20/21/20
f 16/16/16 13/13/13 7/17/7
f 21/22/21 8/8/8 7/7/7
f 8/8/8 22/23/22 9/9/9
f 23/24/23 22/25/22 10/10/10
f 20/21/20 19/20/19 3/26/3
f 13/13/13 16/16/16 14/14/14
f 20/27/20 24/28/24 25/29/25
f 12/12/12 23/24/23 10/10/10
f 26/30/26 27/31/27 6/6/6
f 28/32/28 1/1/1 16/16/16
f 22/23/22 4/33/4 9/9/9
f 27/31/27 1/1/1 29/34/29
f 23/24/23 17/35/17 22/25/22
f 25/29/25 24/28/24 23/24/23
f 30/36/30 26/30/26 31/37/31
f 20/38/20 31/37/31 24/39/24
f 1/1/1 27/31/27 26/30/26
f 1/1/1 26/30/26 30/36/30
f 16/16/16 32/40/32 14/14/14
f 32/40/32 16/16/16 1/1/1
f 20/38/20 30/36/30 31/37/31
f 20/21/20 3/26/3 2/41/2
f 32/40/32 33/42/33 14/14/14
f 33/42/33 18/43/18 14/14/14
f 17/18/17 5/5/5 22/44/22
f 4/4/4 22/44/22 5/5/5
f 3/3/3 19/45/19 32/40/32
f 1/1/1 3/3/3 32/40/32
f 10/46/10 22/23/22 8/8/8
f 21/22/21 10/46/10 8/8/8
f 1/1/1 30/36/30 2/2/2
f 2/2/2 30/36/30 20/38/20
f 21/22/21 11/47/11 10/46/10
f 13/13/13 12/12/12 11/11/11
f 31/37/31 6/6/6 17/18/17
f 31/37/31 26/30/26 6/6/6
f 13/48/13 21/22/21 7/7/7
f 13/48/13 11/47/11 21/22/21
f 9/49/9 4/4/4 27/31/27
f 6/6/6 27/31/27 4/4/4
f 12/12/12 25/29/25 23/24/23
f 18/43/18 20/27/20 25/29/25
f 27/31/27 29/34/29 9/49/9
f 7/17/7 9/49/9 15/15/15
f 18/43/18 25/29/25 12/12/12
f 14/14/14 18/43/18 12/12/12
f 1/1/1 28/32/28 29/34/29
f 29/34/29 15/15/15 9/49/9
f 24/39/24 31/37/31 17/18/17
f 23/24/23 24/28/24 17/35/17
f 15/15/15 29/34/29 28/32/28
f 15/15/15 28/32/28 16/16/16
f 18/43/18 33/42/33 19/45/19
f 32/40/32 19/45/19 33/42/33
