# Blender v2.90.1 OBJ File: 'Crystal_OBJ.blend'
# www.blender.org
mtllib Crystal_39_low.mtl
o Crystal_39_low
v 0.071754 0.035097 -0.105897
v 0.038940 0.222065 -0.167140
v 0.119140 0.164541 -0.083309
v 0.019695 0.676133 -0.114746
v 0.106004 0.318568 -0.075849
v -0.150242 0.170661 -0.087915
v -0.125701 0.627077 -0.028362
v -0.049265 0.199104 -0.163223
v -0.118828 0.575175 0.003848
v -0.155797 0.344553 -0.023387
v 0.040568 0.845675 0.002503
v -0.063999 0.887599 0.004747
v -0.054699 0.608587 0.070683
v 0.026195 0.010810 0.039052
v -0.046079 0.115125 0.128037
v -0.043056 0.012397 0.076869
v -0.073336 -0.010315 -0.035766
v -0.134751 0.005068 0.070192
v -0.159080 0.016505 -0.047687
v -0.072228 -0.009706 -0.082305
v -0.144512 0.137419 -0.077965
v -0.109289 0.112711 -0.128943
v 0.055154 0.839543 -0.048898
v 0.081101 0.570024 -0.012237
v 0.107026 0.441801 -0.054476
v 0.061373 0.591519 0.052198
v 0.082180 0.380231 0.079228
v 0.181146 0.604288 0.015664
v 0.190332 0.154406 0.109705
v 0.238111 0.163097 0.018080
v 0.192137 -0.002740 0.057311
v 0.152955 -0.018995 -0.021143
v 0.168156 0.071829 -0.076488
v -0.059425 0.889213 -0.029462
v 0.002972 0.801632 -0.099332
v -0.141100 0.077004 0.116930
v -0.159126 0.129894 0.116341
v -0.187260 0.071455 -0.021100
v -0.067819 0.157790 0.110237
v -0.062105 0.011251 0.038406
v 0.078517 0.194177 0.115815
v 0.048889 0.137149 0.076709
v 0.129311 0.099119 0.122496
v 0.099827 0.432458 0.086771
v 0.100226 0.595741 -0.021196
v 0.126543 0.601145 0.061900
v 0.079941 0.542443 0.009572
v 0.069229 -0.005709 -0.024286
v -0.037363 -0.020138 -0.015716
v -0.061003 0.340744 0.103087
v -0.093323 0.268353 0.109440
v -0.205578 0.241842 0.078242
v -0.222616 0.251920 0.008628
v -0.208374 0.127886 -0.034312
v -0.188021 0.514349 0.039292
v -0.100220 0.600455 0.081774
v -0.181045 0.628914 0.079651
v -0.154146 0.455448 0.106445
v -0.088668 0.601738 0.058278
v -0.084069 0.696727 0.045602
v -0.101298 0.608567 0.038022
v 0.214108 0.147015 -0.037270
v 0.083145 0.008584 -0.001639
v 0.100757 0.631940 -0.005633
v 0.164488 0.598574 0.058106
v 0.000143 -0.035417 -0.077425
v 0.073269 0.242108 0.097935
v 0.137431 0.012324 0.091252
v 0.051134 0.015253 0.025848
v -0.037252 0.878531 -0.052515
v 0.035176 0.845172 -0.068554
v -0.183733 0.490445 0.096229
v -0.163749 0.317523 0.113956
v -0.069189 0.380566 0.101278
v -0.164826 0.632202 0.051739
vt 0.208363 0.090093
vt 0.222464 0.207618
vt 0.150041 0.162440
vt 0.265093 0.498267
vt 0.162597 0.269500
vt 0.351944 0.169805
vt 0.381848 0.472150
vt 0.277143 0.192454
vt 0.407624 0.440569
vt 0.395390 0.277032
vt 0.714704 0.596179
vt 0.664878 0.633492
vt 0.646559 0.455733
vt 0.730014 0.039732
vt 0.684418 0.121129
vt 0.680776 0.054435
vt 0.098751 0.710214
vt 0.171093 0.744679
vt 0.096466 0.769005
vt 0.299046 0.055507
vt 0.356137 0.146959
vt 0.313713 0.137157
vt 0.245938 0.610740
vt 0.167942 0.455688
vt 0.162457 0.352190
vt 0.730252 0.451361
vt 0.775868 0.306771
vt 0.864248 0.451536
vt 0.855425 0.145284
vt 0.925194 0.148702
vt 0.041059 0.034656
vt 0.106263 0.038121
vt 0.113143 0.105194
vt 0.680705 0.649108
vt 0.743775 0.607691
vt 0.284071 0.575322
vt 0.616516 0.102028
vt 0.605755 0.130665
vt 0.539176 0.076588
vt 0.664455 0.145158
vt 0.655348 0.045586
vt 0.778644 0.164845
vt 0.748843 0.125003
vt 0.811819 0.108841
vt 0.795401 0.340867
vt 0.150198 0.467588
vt 0.095669 0.475397
vt 0.817592 0.437431
vt 0.770400 0.432082
vt 0.774102 0.455387
vt 0.181728 0.037870
vt 0.170699 0.681860
vt 0.107035 0.684151
vt 0.142609 0.638408
vt 0.667226 0.269415
vt 0.647365 0.217453
vt 0.478859 0.198792
vt 0.433079 0.210437
vt 0.399420 0.140594
vt 0.452529 0.381761
vt 0.607340 0.437952
vt 0.550627 0.448499
vt 0.590372 0.340680
vt 0.620302 0.453010
vt 0.636472 0.515077
vt 0.610379 0.469770
vt 0.077303 0.154247
vt 0.034568 0.163234
vt 0.162768 0.039339
vt 0.809734 0.482322
vt 0.838201 0.434459
vt 0.249823 0.034568
vt 0.148046 0.698473
vt 0.419618 0.532149
vt 0.428785 0.471601
vt 0.770217 0.199401
vt 0.324021 0.040844
vt 0.376297 0.068052
vt 0.611330 0.056871
vt 0.541669 0.036269
vt 0.171093 0.560995
vt 0.134109 0.621700
vt 0.144480 0.526725
vt 0.867207 0.033280
vt 0.310418 0.634387
vt 0.264377 0.604996
vt 0.354413 0.648760
vt 0.331315 0.644014
vt 0.820301 0.047853
vt 0.566899 0.360224
vt 0.563563 0.193886
vt 0.595834 0.246732
vt 0.658158 0.296757
vt 0.478859 0.453818
vt 0.459192 0.450352
vt 0.093865 0.556115
vt 0.096908 0.614869
vt 0.112973 0.603286
vt 0.068691 0.715021
vt 0.063221 0.664902
vt 0.747976 0.038374
vt 0.401255 0.103312
vt 0.700834 0.649476
vt 0.148200 0.492127
vn 0.5816 -0.4550 -0.6744
vn 0.3572 -0.0275 -0.9336
vn 0.4760 -0.0616 -0.8773
vn 0.3684 0.1242 -0.9213
vn 0.6369 0.1191 -0.7617
vn -0.9347 -0.0371 -0.3535
vn -0.9548 0.1683 -0.2450
vn -0.2839 -0.0575 -0.9571
vn -0.9358 0.2881 -0.2032
vn -0.8100 0.1490 -0.5672
vn 0.6019 0.5646 0.5647
vn -0.4208 0.7603 0.4949
vn -0.0852 0.1689 0.9819
vn 0.3565 -0.6895 0.6305
vn -0.2370 -0.2848 0.9288
vn -0.2606 -0.6576 0.7068
vn -0.3895 -0.9185 -0.0687
vn -0.3248 -0.7682 0.5517
vn -0.5244 -0.6415 -0.5599
vn -0.5252 -0.6946 -0.4916
vn -0.7574 -0.1817 -0.6272
vn -0.5405 -0.2814 -0.7929
vn 0.8367 0.5079 -0.2048
vn 0.6087 0.7908 -0.0646
vn 0.6276 0.1405 -0.7658
vn 0.6628 0.1771 0.7275
vn -0.3284 0.1681 0.9295
vn 0.7759 0.5824 -0.2424
vn 0.5840 -0.0056 0.8117
vn 0.9986 -0.0514 0.0129
vn 0.6185 -0.7246 0.3040
vn 0.1813 -0.8755 -0.4480
vn 0.3113 -0.3466 -0.8849
vn -0.4336 0.8397 -0.3270
vn -0.0433 0.2599 -0.9647
vn -0.3038 -0.3873 0.8705
vn -0.5510 -0.1513 0.8207
vn -0.9236 -0.3752 0.0790
vn -0.4407 -0.1860 0.8782
vn -0.2264 -0.8430 0.4879
vn -0.4623 0.0493 0.8854
vn -0.0287 -0.3308 0.9433
vn -0.0882 -0.2285 0.9695
vn -0.4208 0.1899 0.8871
vn -0.1777 0.3138 -0.9327
vn -0.3149 0.5567 0.7687
vn 0.1468 0.4559 0.8779
vn 0.5977 -0.8015 0.0187
vn -0.1514 -0.9563 0.2502
vn 0.1064 0.0808 0.9910
vn 0.0139 0.0544 0.9984
vn -0.8684 -0.0699 0.4909
vn -0.9663 0.0521 -0.2521
vn -0.9184 -0.1369 -0.3713
vn -0.7991 0.1834 -0.5726
vn 0.4841 0.5388 0.6894
vn -0.5671 0.7116 0.4148
vn -0.0472 0.0922 0.9946
vn -0.0671 0.5382 0.8401
vn -0.6178 0.2120 0.7572
vn -0.6176 0.7523 0.2292
vn 0.8062 -0.0886 -0.5849
vn 0.0378 -0.9415 -0.3348
vn -0.3936 0.8700 -0.2969
vn 0.5122 0.5286 0.6769
vn 0.0815 -0.9059 -0.4156
vn -0.4054 0.1015 0.9085
vn -0.0835 -0.6653 0.7418
vn 0.1533 -0.6579 0.7373
vn -0.1500 0.7597 -0.6328
vn 0.4809 0.6167 -0.6233
vn -0.6507 0.0925 0.7537
vn -0.3004 0.0222 0.9536
vn 0.1387 0.0925 0.9860
vn -0.2739 0.8905 -0.3633
g Crystal_39_low_Crystal_39_low_Default_OBJ.076
usemtl Default_OBJ.076
s 1
f 1/1/1 2/2/2 3/3/3
f 4/4/4 5/5/5 2/2/2
f 6/6/6 7/7/7 8/8/8
f 9/9/9 7/7/7 10/10/10
f 11/11/11 12/12/12 13/13/13
f 14/14/14 15/15/15 16/16/16
f 17/17/17 18/18/18 19/19/19
f 20/20/20 21/21/21 22/22/22
f 23/23/23 24/24/24 25/25/25
f 26/26/26 13/13/13 27/27/27
f 28/28/28 29/29/29 30/30/30
f 31/31/31 32/32/32 33/33/33
f 34/34/34 11/11/11 23/35/23
f 8/8/8 7/7/7 35/36/35
f 36/37/36 37/38/37 38/39/38
f 15/15/15 39/40/39 40/41/40
f 41/42/41 42/43/42 43/44/43
f 43/44/43 44/45/44 41/42/41
f 45/46/45 28/47/28 25/25/25
f 46/48/46 47/49/47 27/27/27
f 47/49/47 26/26/26 27/27/27
f 23/35/23 26/26/26 24/50/24
f 3/3/3 48/51/48 1/1/1
f 16/52/16 49/53/49 14/54/14
f 15/15/15 50/55/50 51/56/51
f 52/57/52 53/58/53 54/59/54
f 55/60/55 9/9/9 54/59/54
f 56/61/56 57/62/57 58/63/58
f 59/64/59 60/65/60 61/66/61
f 61/66/61 57/62/57 56/61/56
f 62/67/62 5/5/5 28/47/28
f 31/31/31 33/33/33 30/68/30
f 62/67/62 33/33/33 5/5/5
f 63/69/63 3/3/3 33/33/33
f 28/28/28 64/70/64 65/71/65
f 28/28/28 65/71/65 29/29/29
f 66/72/66 1/1/1 48/51/48
f 1/1/1 66/72/66 22/22/22
f 5/5/5 3/3/3 2/2/2
f 33/33/33 3/3/3 5/5/5
f 39/40/39 36/37/36 40/41/40
f 40/73/40 18/18/18 17/17/17
f 60/74/60 7/7/7 61/75/61
f 34/34/34 12/12/12 11/11/11
f 67/76/67 15/15/15 42/43/42
f 50/55/50 15/15/15 67/76/67
f 8/8/8 2/2/2 1/1/1
f 8/8/8 35/36/35 2/2/2
f 44/45/44 27/27/27 41/42/41
f 67/76/67 27/27/27 50/55/50
f 54/59/54 9/9/9 10/10/10
f 17/77/17 19/78/19 21/21/21
f 41/42/41 67/76/67 42/43/42
f 41/42/41 27/27/27 67/76/67
f 54/59/54 21/21/21 19/78/19
f 18/79/18 38/39/38 19/80/19
f 68/81/68 69/82/69 31/83/31
f 29/29/29 31/84/31 30/30/30
f 70/85/70 23/23/23 71/86/71
f 25/25/25 4/4/4 23/23/23
f 51/56/51 37/38/37 36/37/36
f 50/55/50 58/63/58 51/56/51
f 7/7/7 12/87/12 34/88/34
f 7/7/7 70/85/70 35/36/35
f 29/29/29 44/45/44 43/44/43
f 29/29/29 68/89/68 31/84/31
f 72/90/72 57/62/57 52/91/52
f 51/56/51 73/92/73 37/38/37
f 22/22/22 6/6/6 8/8/8
f 1/1/1 22/22/22 8/8/8
f 74/93/74 56/61/56 58/63/58
f 27/27/27 13/13/13 74/93/74
f 30/68/30 33/33/33 62/67/62
f 62/67/62 28/47/28 30/68/30
f 49/53/49 40/73/40 17/17/17
f 20/20/20 22/22/22 66/72/66
f 54/59/54 53/58/53 55/60/55
f 52/57/52 57/94/57 53/58/53
f 46/48/46 65/71/65 64/70/64
f 29/29/29 65/71/65 44/45/44
f 16/52/16 40/73/40 49/53/49
f 16/16/16 15/15/15 40/41/40
f 57/94/57 55/60/55 53/58/53
f 75/95/75 57/94/57 61/75/61
f 24/24/24 45/46/45 25/25/25
f 46/48/46 64/70/64 47/49/47
f 63/69/63 33/33/33 32/32/32
f 69/82/69 32/96/32 31/83/31
f 37/38/37 52/91/52 38/39/38
f 73/92/73 52/91/52 37/38/37
f 23/35/23 11/11/11 26/26/26
f 13/13/13 26/26/26 11/11/11
f 49/53/49 48/97/48 14/54/14
f 69/82/69 63/98/63 32/96/32
f 18/79/18 36/37/36 38/39/38
f 18/79/18 40/41/40 36/37/36
f 59/64/59 74/93/74 13/13/13
f 13/13/13 60/65/60 59/64/59
f 68/89/68 43/44/43 42/43/42
f 29/29/29 43/44/43 68/89/68
f 17/77/17 21/21/21 20/20/20
f 17/17/17 20/99/20 49/53/49
f 35/36/35 70/85/70 71/86/71
f 4/4/4 2/2/2 35/36/35
f 50/55/50 74/93/74 58/63/58
f 50/55/50 27/27/27 74/93/74
f 49/53/49 20/99/20 66/100/66
f 49/53/49 66/100/66 48/97/48
f 25/25/25 5/5/5 4/4/4
f 25/25/25 28/47/28 5/5/5
f 61/75/61 9/9/9 75/95/75
f 61/75/61 7/7/7 9/9/9
f 15/15/15 51/56/51 39/40/39
f 51/56/51 36/37/36 39/40/39
f 55/60/55 75/95/75 9/9/9
f 57/94/57 75/95/75 55/60/55
f 64/70/64 24/50/24 47/49/47
f 24/50/24 26/26/26 47/49/47
f 21/21/21 54/59/54 10/10/10
f 10/10/10 7/7/7 6/6/6
f 15/15/15 14/14/14 42/43/42
f 69/101/69 68/89/68 42/43/42
f 59/64/59 56/61/56 74/93/74
f 61/66/61 56/61/56 59/64/59
f 48/97/48 63/98/63 14/54/14
f 63/69/63 48/51/48 3/3/3
f 54/59/54 19/78/19 38/102/38
f 38/102/38 52/57/52 54/59/54
f 60/74/60 12/87/12 7/7/7
f 13/13/13 12/12/12 60/65/60
f 69/82/69 14/54/14 63/98/63
f 69/101/69 42/43/42 14/14/14
f 57/62/57 72/90/72 58/63/58
f 73/92/73 72/90/72 52/91/52
f 44/45/44 46/48/46 27/27/27
f 65/71/65 46/48/46 44/45/44
f 71/86/71 4/4/4 35/36/35
f 71/86/71 23/23/23 4/4/4
f 58/63/58 72/90/72 73/92/73
f 73/92/73 51/56/51 58/63/58
f 34/88/34 70/85/70 7/7/7
f 34/34/34 23/35/23 70/103/70
f 45/46/45 64/104/64 28/47/28
f 64/104/64 45/46/45 24/24/24
f 6/6/6 22/22/22 21/21/21
f 10/10/10 6/6/6 21/21/21
