# Blender v2.90.1 OBJ File: 'Crystal_OBJ.blend'
# www.blender.org
mtllib Crystal_36_low.mtl
o Crystal_36_low
v 0.303554 0.873562 0.040241
v 0.231236 0.850171 0.100989
v 0.264306 0.142017 0.127066
v -0.057294 0.036375 0.440671
v -0.089186 0.609796 0.400615
v -0.232146 -0.005133 0.272460
v -0.047933 0.908776 0.081364
v -0.106357 0.892052 0.135179
v -0.096563 0.905518 0.121672
v -0.138077 0.899766 0.155416
v -0.147402 0.987585 0.152575
v -0.119836 0.845881 -0.230565
v -0.032360 0.927510 -0.160649
v -0.139285 0.520830 -0.250146
v -0.174346 0.630232 0.172962
v -0.327539 0.968851 0.171255
v -0.327326 0.226996 0.209052
v -0.443070 0.616985 -0.041881
v -0.426066 1.242514 -0.042057
v -0.289806 0.679390 -0.202412
v -0.413806 1.094207 0.090881
v -0.306772 0.072302 -0.257664
v -0.223355 -0.000144 0.200148
v -0.011975 -0.005283 0.102468
v -0.050931 -0.010354 0.412762
v 0.388401 0.239915 -0.158253
v 0.320221 -0.002457 -0.265798
v 0.313657 0.640488 -0.303629
v -0.244441 -0.017566 -0.071266
v -0.021405 -0.005463 -0.163636
v 0.039521 -0.008682 -0.105892
v 0.251820 -0.006782 0.091435
v 0.241441 0.009977 0.311061
v 0.090908 0.052432 0.440984
v 0.074540 0.535418 0.390374
v -0.253324 -0.004212 -0.220522
v -0.149182 0.002721 -0.264448
v -0.422916 -0.006876 0.113717
v -0.401640 0.264192 0.136245
v -0.450746 0.221762 -0.059475
v 0.154069 1.558521 0.100703
v 0.173924 0.917835 0.135347
v 0.153703 0.188192 -0.358798
v 0.163611 0.636351 -0.343844
v 0.031162 0.989806 0.099100
v 0.068032 1.446316 0.082492
v -0.039858 1.087944 -0.058620
v 0.041389 1.622193 -0.115162
v 0.299377 1.559996 -0.004437
v 0.014926 1.182340 -0.226835
v -0.066062 0.194963 -0.200741
v -0.177778 0.728320 0.301421
v -0.063984 0.995818 0.116670
v -0.148143 0.888700 0.307207
v -0.085420 0.958652 0.358761
v 0.102158 0.958892 0.327351
v 0.199340 0.956381 0.200711
v 0.249718 0.499375 0.241562
v -0.200440 1.291027 0.087146
v -0.119512 1.308218 0.050217
v -0.012108 0.833844 0.033738
v -0.044752 1.012244 0.025409
v 0.115455 0.009127 -0.336340
v -0.136875 0.835788 0.166628
v 0.349008 0.089496 0.065190
v 0.372681 0.712505 -0.177254
v 0.326504 1.550313 -0.199932
v 0.096065 1.613836 -0.185929
v 0.098693 1.361541 -0.270597
v 0.285670 1.360018 -0.289701
v 0.248960 0.152458 0.279197
v -0.234160 1.099422 0.157877
v 0.402553 0.018960 -0.121000
v -0.050762 1.169589 -0.133748
v -0.123725 1.257144 -0.197987
v -0.295372 1.254257 -0.171095
v 0.262758 -0.002464 -0.323887
v 0.253773 0.326953 -0.324941
v -0.302733 0.031083 0.212606
v 0.373281 0.834575 -0.181223
v 0.169922 0.962116 -0.329065
v 0.087737 0.917381 0.362998
v 0.361168 1.451025 -0.165472
v 0.231867 0.891462 0.250464
v 0.208034 -0.019922 -0.067898
v -0.282752 0.848829 -0.205918
v 0.174578 1.201690 -0.323592
v -0.446947 0.313222 0.097134
v -0.442034 0.014196 -0.111065
vt 0.241364 0.322714
vt 0.209906 0.318502
vt 0.210737 0.065841
vt 0.827574 0.071741
vt 0.800177 0.251978
vt 0.751713 0.053818
vt 0.320904 0.642514
vt 0.320904 0.668663
vt 0.317571 0.662614
vt 0.626719 0.801525
vt 0.633996 0.802097
vt 0.618233 0.811546
vt 0.634171 0.835945
vt 0.771402 0.733066
vt 0.739278 0.764770
vt 0.765211 0.627720
vt 0.543122 0.758145
vt 0.588289 0.868478
vt 0.411777 0.711443
vt 0.893097 0.646162
vt 0.906919 0.850572
vt 0.821967 0.673299
vt 0.593027 0.920304
vt 0.611100 0.982301
vt 0.447288 0.865960
vt 0.798440 0.486537
vt 0.183189 0.742776
vt 0.175619 0.668023
vt 0.266216 0.712498
vt 0.323935 0.100442
vt 0.371855 0.015979
vt 0.375824 0.243205
vt 0.098214 0.720498
vt 0.093396 0.642818
vt 0.117461 0.630380
vt 0.199980 0.586329
vt 0.266216 0.612371
vt 0.081032 0.046572
vt 0.087825 0.203547
vt 0.030739 0.235113
vt 0.051649 0.707653
vt 0.049007 0.671183
vt 0.327046 0.690628
vt 0.399896 0.745824
vt 0.344177 0.785874
vt 0.260221 0.509356
vt 0.185358 0.347266
vt 0.439273 0.085724
vt 0.429246 0.245404
vt 0.675721 0.390806
vt 0.654674 0.538319
vt 0.615488 0.414319
vt 0.291872 0.581582
vt 0.290912 0.497152
vt 0.557245 0.443301
vt 0.490837 0.267355
vt 0.576812 0.119530
vt 0.584024 0.588151
vt 0.755630 0.284629
vt 0.715789 0.255333
vt 0.704332 0.377585
vt 0.706776 0.340732
vt 0.759356 0.331844
vt 0.059278 0.359756
vt 0.116845 0.335661
vt 0.128891 0.425593
vt 0.155840 0.402138
vt 0.161623 0.337013
vt 0.168161 0.189720
vt 0.686338 0.926596
vt 0.561496 0.672008
vt 0.633773 0.626889
vt 0.660963 0.637501
vt 0.658046 0.336877
vt 0.720839 0.826800
vt 0.684545 0.814655
vt 0.658448 0.758684
vt 0.652418 0.790742
vt 0.055183 0.582757
vt 0.487372 0.119250
vt 0.723978 0.530685
vt 0.715623 0.320645
vt 0.602839 0.795612
vt 0.247777 0.050802
vt 0.325004 0.265985
vt 0.321288 0.496250
vt 0.326649 0.570652
vt 0.554627 0.586128
vt 0.530504 0.502815
vt 0.402192 0.501265
vt 0.356884 0.468760
vt 0.156957 0.070706
vt 0.635008 0.881092
vt 0.098753 0.527976
vt 0.151675 0.517514
vt 0.752341 0.843821
vt 0.788999 0.867468
vt 0.715602 0.914639
vt 0.605473 0.711769
vt 0.221115 0.011740
vt 0.311458 0.022051
vt 0.074929 0.539284
vt 0.400483 0.134059
vt 0.683760 0.354419
vt 0.373150 0.666882
vt 0.377524 0.638353
vt 0.780057 0.357636
vt 0.697860 0.471168
vt 0.748451 0.467041
vt 0.500662 0.059784
vt 0.573039 0.050710
vt 0.583626 0.360526
vt 0.324375 0.308915
vt 0.413634 0.357333
vt 0.204379 0.753066
vt 0.728603 0.055121
vt 0.105687 0.322878
vt 0.229616 0.505321
vt 0.318406 0.476996
vt 0.156780 0.312407
vt 0.135479 0.794451
vt 0.400815 0.016756
vt 0.453229 0.021727
vt 0.146830 0.583218
vt 0.824719 0.728382
vt 0.660963 0.719146
vt 0.702685 0.346375
vt 0.398905 0.432679
vt 0.497456 0.452467
vt 0.494807 0.374257
vt 0.400604 0.770996
vt 0.784846 0.459301
vt 0.032754 0.035837
vt 0.142037 0.020946
vt 0.038110 0.016317
vt 0.877616 0.520109
vt 0.852618 0.456506
vt 0.281146 0.751312
vt 0.846380 0.859799
vt 0.824301 0.054698
vt 0.064670 0.776924
vn 0.8209 0.0520 0.5686
vn 0.8699 0.1759 0.4608
vn 0.8751 -0.0524 0.4811
vn -0.3244 -0.2312 0.9172
vn -0.3586 0.0711 0.9308
vn -0.7496 -0.6195 0.2330
vn 0.4528 0.7724 -0.4453
vn -0.5482 0.6516 0.5244
vn -0.8139 0.4587 -0.3566
vn -0.5482 0.6515 0.5244
vn 0.3505 0.1040 0.9308
vn 0.4527 0.1318 0.8819
vn 0.2577 0.0537 -0.9647
vn -0.2638 0.1245 -0.9565
vn 0.2206 0.0483 -0.9742
vn -0.6908 0.1231 0.7125
vn -0.3067 0.1041 0.9461
vn -0.3135 0.0154 0.9494
vn -0.9448 0.0481 -0.3241
vn -0.8018 0.5919 -0.0829
vn -0.5318 0.0334 -0.8462
vn -0.7693 0.2486 0.5885
vn -0.4443 -0.1993 -0.8734
vn -0.3052 -0.9087 0.2847
vn -0.0213 -0.9998 0.0042
vn -0.1473 -0.8355 0.5294
vn 0.9861 0.0194 -0.1652
vn 0.6092 -0.6605 -0.4390
vn 0.6376 0.0194 -0.7702
vn -0.0368 -0.9989 -0.0274
vn -0.0468 -0.9134 -0.4044
vn -0.0210 -0.9991 -0.0360
vn 0.4692 -0.8461 0.2531
vn 0.7146 -0.5607 0.4183
vn 0.3503 -0.3085 0.8844
vn 0.3919 0.0755 0.9169
vn -0.2113 -0.8685 -0.4484
vn 0.2029 -0.5967 -0.7764
vn -0.6762 -0.6396 0.3656
vn -0.8177 -0.1357 0.5595
vn -0.9717 0.0057 -0.2363
vn -0.0127 0.5872 0.8093
vn 0.7184 0.6755 0.1660
vn -0.1522 0.0022 -0.9884
vn -0.1650 0.0341 -0.9857
vn -0.5595 0.7215 0.4079
vn -0.6886 0.1973 0.6978
vn -0.2594 0.7221 0.6413
vn -0.6273 0.7767 -0.0563
vn 0.6686 0.6023 0.4361
vn -0.7991 0.0927 -0.5939
vn 0.0242 -0.0268 -0.9993
vn -0.9389 0.1363 0.3161
vn -0.4411 0.7855 -0.4341
vn -0.9140 0.3150 0.2557
vn -0.3900 0.6598 0.6423
vn 0.3350 0.7925 0.5095
vn 0.6068 0.7927 -0.0576
vn 0.9160 0.0497 0.3982
vn -0.0768 0.7534 0.6531
vn 0.4936 0.7897 0.3643
vn -0.0774 0.9762 0.2027
vn 0.8829 0.2071 0.4214
vn 0.4528 0.7725 -0.4453
vn -0.3031 -0.6105 -0.7318
vn -0.7564 0.3609 0.5455
vn 0.7948 -0.2019 0.5723
vn 0.9963 0.0192 -0.0835
vn 0.6114 0.6388 -0.4670
vn -0.2393 0.7776 -0.5815
vn -0.4547 0.2318 -0.8599
vn 0.4327 0.1952 -0.8802
vn 0.9034 0.0371 0.4273
vn 0.0145 0.2703 0.9627
vn 0.8452 -0.5335 -0.0324
vn 0.9241 0.2813 -0.2586
vn 0.3400 0.6217 -0.7056
vn -0.3855 0.6135 -0.6893
vn 0.3351 -0.6386 -0.6928
vn 0.4271 -0.0159 -0.9041
vn -0.2371 -0.3413 0.9095
vn 0.9942 0.0207 -0.1056
vn -0.1430 0.0395 -0.9889
vn 0.3331 0.3003 0.8938
vn 0.9856 0.1245 -0.1141
vn 0.8727 0.2926 0.3908
vn 0.0557 -0.9984 0.0032
vn -0.4651 0.0438 -0.8842
vn -0.1356 0.0711 -0.9882
vn -0.9040 -0.1366 0.4052
vn -0.7682 -0.5464 -0.3337
g Crystal_36_low_Crystal_36_low_Default_OBJ.070
usemtl Default_OBJ.070
s 1
f 1/1/1 2/2/2 3/3/3
f 4/4/4 5/5/5 6/6/6
f 7/7/7 8/8/8 9/9/9
f 8/10/10 9/11/9 10/12/11
f 11/13/12 10/12/11 9/11/9
f 12/14/13 13/15/14 14/16/15
f 15/17/16 16/18/17 17/19/18
f 18/20/19 19/21/20 20/22/21
f 21/23/22 19/24/20 18/25/19
f 22/26/23 20/22/21 14/16/15
f 23/27/24 24/28/25 25/29/26
f 26/30/27 27/31/28 28/32/29
f 29/33/30 30/34/31 31/35/32
f 25/29/26 32/36/33 33/37/34
f 34/38/35 35/39/36 5/40/5
f 36/41/37 37/42/38 29/33/30
f 38/43/39 39/44/40 40/45/41
f 1/1/1 41/46/42 42/47/43
f 43/48/44 44/49/45 28/32/29
f 45/50/46 46/51/47 47/52/48
f 48/53/49 41/46/42 49/54/50
f 50/55/51 44/56/45 51/57/52
f 46/51/47 48/58/49 47/52/48
f 52/59/53 15/60/16 6/6/6
f 53/61/54 8/62/10 54/63/55
f 55/64/56 56/65/57 53/66/54
f 41/46/42 45/67/46 42/47/43
f 42/47/43 45/67/46 57/68/58
f 2/2/2 58/69/59 3/3/3
f 21/23/22 59/70/60 19/24/20
f 19/71/20 59/72/60 60/73/61
f 23/27/24 29/33/30 31/35/32
f 17/19/18 39/44/40 38/43/39
f 45/50/46 47/52/48 61/74/62
f 47/75/48 62/76/63 61/77/62
f 62/76/63 11/13/12 9/11/9
f 62/76/63 9/11/9 7/78/64
f 30/34/31 63/79/65 31/35/32
f 51/57/52 44/56/45 43/80/44
f 37/42/38 30/34/31 29/33/30
f 14/16/15 13/15/14 51/81/52
f 52/59/53 8/62/10 64/82/66
f 8/10/10 10/12/11 64/83/66
f 65/84/67 66/85/68 1/1/1
f 67/86/69 68/87/70 49/54/50
f 68/88/70 69/89/71 50/55/51
f 69/90/71 68/87/70 70/91/72
f 71/92/73 35/39/36 34/38/35
f 3/3/3 58/69/59 71/92/73
f 72/93/74 16/18/17 10/12/11
f 10/12/11 16/18/17 15/17/16
f 53/66/54 56/65/57 57/68/58
f 71/92/73 58/69/59 35/39/36
f 66/85/68 65/84/67 26/30/27
f 32/36/33 27/94/28 73/95/75
f 74/96/76 75/97/77 60/98/61
f 76/99/78 19/71/20 60/73/61
f 65/84/67 32/100/33 73/101/75
f 65/84/67 1/1/1 3/3/3
f 63/79/65 77/102/79 31/35/32
f 78/103/80 43/48/44 28/32/29
f 7/104/64 53/61/54 45/50/46
f 45/67/46 53/66/54 57/68/58
f 66/85/68 26/30/27 28/32/29
f 70/91/72 68/87/70 67/86/69
f 79/105/81 38/43/39 23/106/24
f 15/17/16 79/105/81 23/106/24
f 74/96/76 13/15/14 75/97/77
f 48/58/49 50/55/51 47/52/48
f 52/59/53 6/6/6 5/5/5
f 54/63/55 55/107/56 53/61/54
f 51/81/52 30/108/31 37/109/38
f 51/57/52 63/110/65 30/111/31
f 13/112/14 50/55/51 51/57/52
f 47/52/48 50/55/51 13/112/14
f 80/113/82 28/32/29 70/91/72
f 70/91/72 28/32/29 81/114/83
f 6/115/6 23/27/24 25/29/26
f 6/6/6 15/60/16 23/116/24
f 55/107/56 54/63/55 5/5/5
f 5/40/5 82/117/84 55/64/56
f 60/98/61 72/93/74 11/13/12
f 72/93/74 10/12/11 11/13/12
f 5/5/5 54/63/55 52/59/53
f 54/63/55 8/62/10 52/59/53
f 41/46/42 48/53/49 46/118/47
f 45/67/46 41/46/42 46/118/47
f 3/3/3 32/100/33 65/84/67
f 71/92/73 32/100/33 3/3/3
f 61/77/62 62/76/63 7/78/64
f 7/104/64 45/50/46 61/74/62
f 83/119/85 80/113/82 70/91/72
f 83/119/85 1/1/1 80/113/82
f 84/120/86 2/2/2 57/68/58
f 56/65/57 84/120/86 57/68/58
f 15/17/16 64/83/66 10/12/11
f 15/60/16 52/59/53 64/82/66
f 74/96/76 60/98/61 62/76/63
f 11/13/12 62/76/63 60/98/61
f 56/65/57 55/64/56 82/117/84
f 84/120/86 56/65/57 82/117/84
f 38/121/39 36/41/37 29/33/30
f 23/27/24 38/121/39 29/33/30
f 43/48/44 77/122/79 63/123/65
f 51/57/52 43/80/44 63/110/65
f 57/68/58 2/2/2 42/47/43
f 42/47/43 2/2/2 1/1/1
f 78/103/80 28/32/29 27/31/28
f 77/102/79 27/94/28 85/124/87
f 86/125/88 12/14/13 14/16/15
f 76/99/78 60/73/61 75/126/77
f 73/101/75 27/31/28 26/30/27
f 73/101/75 26/30/27 65/84/67
f 9/127/9 53/61/54 7/104/64
f 53/61/54 9/127/9 8/62/10
f 25/29/26 24/28/25 32/36/33
f 85/124/87 27/94/28 32/36/33
f 87/128/89 70/91/72 81/114/83
f 50/55/51 87/129/89 81/130/83
f 17/19/18 16/18/17 88/131/90
f 72/93/74 21/23/22 16/18/17
f 23/27/24 31/35/32 24/28/25
f 31/35/32 77/102/79 85/124/87
f 16/18/17 21/23/22 88/131/90
f 88/131/90 21/23/22 18/25/19
f 44/56/45 50/55/51 81/130/83
f 81/114/83 28/32/29 44/49/45
f 24/28/25 85/124/87 32/36/33
f 24/28/25 31/35/32 85/124/87
f 60/98/61 59/70/60 72/93/74
f 59/70/60 21/23/22 72/93/74
f 66/85/68 80/113/82 1/1/1
f 80/113/82 66/85/68 28/32/29
f 36/132/37 22/26/23 37/109/38
f 22/26/23 18/20/19 20/22/21
f 34/38/35 5/40/5 4/133/4
f 33/134/34 34/38/35 25/135/26
f 40/136/41 22/26/23 89/137/91
f 38/43/39 40/45/41 89/138/91
f 47/75/48 74/96/76 62/76/63
f 74/96/76 47/75/48 13/15/14
f 43/48/44 78/103/80 77/122/79
f 78/103/80 27/31/28 77/122/79
f 68/87/70 48/53/49 49/54/50
f 50/55/51 48/58/49 68/88/70
f 20/22/21 86/125/88 14/16/15
f 86/125/88 20/22/21 19/21/20
f 79/105/81 17/19/18 38/43/39
f 17/19/18 79/105/81 15/17/16
f 83/119/85 49/54/50 1/1/1
f 49/54/50 41/46/42 1/1/1
f 22/26/23 14/16/15 37/109/38
f 14/16/15 51/81/52 37/109/38
f 35/39/36 82/117/84 5/40/5
f 84/120/86 82/117/84 35/39/36
f 76/139/78 75/97/77 86/125/88
f 19/21/20 76/139/78 86/125/88
f 49/54/50 83/119/85 67/86/69
f 67/86/69 83/119/85 70/91/72
f 39/44/40 88/131/90 40/45/41
f 17/19/18 88/131/90 39/44/40
f 84/120/86 35/39/36 58/69/59
f 58/69/59 2/2/2 84/120/86
f 75/97/77 13/15/14 12/14/13
f 12/14/13 86/125/88 75/97/77
f 50/55/51 69/89/71 87/129/89
f 87/128/89 69/90/71 70/91/72
f 88/131/90 18/25/19 40/45/41
f 40/136/41 18/20/19 22/26/23
f 25/140/26 4/4/4 6/6/6
f 34/38/35 4/133/4 25/135/26
f 36/132/37 89/137/91 22/26/23
f 89/141/91 36/41/37 38/121/39
f 32/100/33 71/92/73 33/134/34
f 71/92/73 34/38/35 33/134/34
