# Blender v2.90.1 OBJ File: 'Crystal_OBJ.blend'
# www.blender.org
mtllib Crystal_33_low.mtl
o Crystal_33_low
v 0.144446 0.775209 -0.118964
v 0.148091 0.997790 -0.076918
v 0.192199 1.275751 -0.188140
v 0.142401 0.555859 -0.130989
v 0.153863 0.730544 -0.135003
v 0.111370 0.764289 -0.185301
v 0.514284 1.651001 -0.016212
v 0.479897 1.645657 0.168457
v 0.604047 0.101794 -0.011833
v 0.190762 0.590953 0.182685
v 0.189469 1.003951 0.155434
v 0.061101 0.912405 0.240216
v 0.471394 0.321494 -0.222886
v 0.560667 -0.001517 0.141848
v 0.148067 0.018746 -0.181726
v 0.282623 0.007091 -0.260365
v -0.500995 1.198939 0.204122
v -0.620702 0.071145 -0.038322
v -0.566233 0.008974 0.176661
v 0.177078 -0.003431 0.198462
v -0.199394 0.007227 0.210155
v -0.054355 0.003138 -0.234481
v -0.104232 1.054682 0.088824
v -0.540501 1.317493 0.005232
v -0.454005 1.310265 -0.179306
v -0.567074 0.730496 -0.037429
v -0.159285 0.930431 0.063392
v -0.227815 0.101560 0.259273
v -0.368425 -0.016546 0.281582
v -0.545182 -0.011690 -0.177002
v -0.167369 -0.009183 -0.146614
v -0.364131 1.168110 -0.209150
v -0.301419 -0.013158 -0.250709
v -0.174670 0.839037 -0.098104
v -0.198900 0.098711 -0.166494
v -0.244622 1.368645 -0.016351
v 0.394624 1.486013 0.213465
v 0.206000 1.729713 0.026891
v 0.160111 1.498867 -0.038287
v 0.224396 1.246260 0.158836
v 0.345345 0.003058 0.273758
v 0.302903 1.440289 -0.244230
v 0.312462 0.414528 -0.279985
v -0.026087 0.402919 -0.245411
v -0.027032 0.900639 -0.214375
v 0.081050 1.005808 -0.172496
v 0.125376 1.024833 0.024812
v -0.262103 1.356392 0.073945
v -0.429324 1.272009 0.239961
v -0.221295 1.149940 0.148014
v -0.264756 1.015495 0.232825
v -0.393548 0.304419 0.288822
v 0.108620 0.455150 -0.195776
v -0.116468 0.733793 0.191794
v 0.005208 0.003249 0.300158
v -0.140826 0.740775 -0.176459
v -0.110189 1.042402 -0.006987
v 0.157371 0.326240 -0.204547
v 0.434477 1.639763 -0.204285
v 0.257653 0.360590 -0.249606
v 0.514965 0.033614 -0.194189
vt 0.767661 0.739951
vt 0.763717 0.664547
vt 0.814442 0.593440
vt 0.763989 0.801494
vt 0.771622 0.753881
vt 0.748482 0.745770
vt 0.527149 0.557807
vt 0.480027 0.522739
vt 0.566323 0.092898
vt 0.371888 0.229569
vt 0.376830 0.357582
vt 0.333614 0.314745
vt 0.951269 0.947094
vt 0.879410 0.874151
vt 0.945372 0.494218
vt 0.958990 0.240150
vt 0.845240 0.145831
vt 0.883863 0.124732
vt 0.136673 0.358371
vt 0.055446 0.080891
vt 0.116413 0.061168
vt 0.850448 0.253269
vt 0.744341 0.253829
vt 0.788411 0.129712
vt 0.275282 0.362496
vt 0.498295 0.590500
vt 0.540456 0.615437
vt 0.492734 0.746936
vt 0.253978 0.329635
vt 0.221039 0.095327
vt 0.239112 0.069041
vt 0.695671 0.272442
vt 0.649561 0.141942
vt 0.755674 0.153490
vt 0.537856 0.972828
vt 0.566151 0.639068
vt 0.616014 0.968954
vt 0.643508 0.709846
vt 0.652004 0.935502
vt 0.579607 0.569350
vt 0.453114 0.490093
vt 0.415502 0.583093
vt 0.369933 0.525621
vt 0.401845 0.437365
vt 0.897342 0.275613
vt 0.509393 0.052481
vt 0.414761 0.054789
vt 0.836914 0.449374
vt 0.852020 0.562496
vt 0.801084 0.519628
vt 0.829443 0.837977
vt 0.184235 0.056364
vt 0.704705 0.845144
vt 0.708279 0.712141
vt 0.737171 0.688056
vt 0.687399 0.625941
vt 0.750246 0.633890
vt 0.180407 0.406904
vt 0.155232 0.370835
vt 0.201607 0.365137
vt 0.195333 0.329093
vt 0.171818 0.146296
vt 0.744292 0.830144
vt 0.757568 0.954615
vt 0.279973 0.269355
vt 0.801294 0.280655
vt 0.668015 0.750768
vt 0.696948 0.958810
vt 0.337262 0.392612
vt 0.688787 0.652645
vt 0.776025 0.864728
vt 0.806804 0.965880
vt 0.890411 0.526352
vt 0.654499 0.646253
vt 0.192201 0.431568
vt 0.810281 0.854690
vt 0.103552 0.413257
vt 0.068282 0.255189
vt 0.303732 0.060890
vt 0.483228 0.945261
vt 0.018608 0.047664
vt 0.718760 0.123112
vt 0.661123 0.966141
vt 0.634544 0.053873
vt 0.640291 0.241450
vt 0.949348 0.144624
vt 0.885940 0.965092
vt 0.361066 0.056531
vn 0.0313 0.0685 -0.9972
vn -0.5402 0.6363 -0.5507
vn -0.7826 0.0872 -0.6164
vn -0.0613 0.0807 -0.9948
vn -0.8972 0.0383 -0.4400
vn 0.6371 0.0605 -0.7684
vn 0.7986 0.5935 -0.1000
vn 0.4906 0.5758 0.6541
vn 0.9778 -0.1763 -0.1132
vn 0.0581 0.0446 0.9973
vn -0.3266 0.3499 0.8780
vn 0.0185 0.3192 0.9475
vn 0.5848 0.0017 -0.8112
vn 0.6440 -0.6504 0.4028
vn -0.0594 -0.7886 -0.6120
vn -0.0995 -0.6532 -0.7506
vn -0.7908 0.1739 0.5869
vn -0.9676 -0.2271 -0.1100
vn -0.6857 -0.5638 0.4605
vn 0.0578 -0.8348 0.5475
vn 0.1415 -0.8059 0.5749
vn -0.0879 -0.6433 -0.7605
vn -0.4811 0.8023 0.3534
vn -0.7755 0.6313 -0.0116
vn -0.3330 0.5957 -0.7309
vn -0.9844 0.0768 -0.1581
vn 0.1086 0.6158 0.7804
vn 0.5846 -0.0562 0.8094
vn -0.0646 -0.6741 0.7358
vn -0.5368 -0.6285 -0.5629
vn 0.0560 -0.9191 -0.3899
vn 0.2607 0.1774 -0.9490
vn 0.1529 -0.6154 -0.7732
vn -0.0268 0.3458 -0.9379
vn 0.1266 -0.0062 -0.9919
vn 0.5881 0.7811 -0.2097
vn -0.0677 0.1639 0.9842
vn -0.5946 0.7944 0.1244
vn -0.9700 0.2035 -0.1333
vn -0.6623 0.0992 0.7427
vn 0.0459 -0.6080 0.7926
vn -0.3030 0.2176 -0.9278
vn -0.0483 -0.1413 -0.9888
vn -0.0775 0.0131 -0.9969
vn -0.2393 0.3362 -0.9109
vn 0.2968 0.6583 -0.6918
vn -0.5393 0.8401 0.0589
vn 0.4726 0.7867 0.3973
vn -0.1474 0.5626 0.8135
vn 0.8166 0.2608 0.5149
vn 0.5465 0.1038 0.8310
vn -0.1848 0.0142 0.9827
vn 0.6219 0.0348 -0.7823
vn -0.6462 0.1379 0.7506
vn 0.0234 -0.5912 0.8062
vn -0.6688 0.1159 -0.7344
vn -0.5416 0.7991 -0.2608
vn -0.7702 0.0055 -0.6378
vn 0.3348 0.5795 -0.7430
vn -0.2178 -0.1447 -0.9652
vn 0.5859 -0.5440 -0.6007
g Crystal_33_low_Crystal_33_low_Default_OBJ.065
usemtl Default_OBJ.065
s 1
f 1/1/1 2/2/2 3/3/3
f 4/4/4 1/1/1 5/5/5
f 1/1/1 3/3/3 5/5/5
f 1/1/1 4/4/4 6/6/6
f 7/7/7 8/8/8 9/9/9
f 10/10/10 11/11/11 12/12/12
f 9/13/9 13/14/13 7/15/7
f 14/16/14 15/17/15 16/18/16
f 17/19/17 18/20/18 19/21/19
f 20/22/20 21/23/21 22/24/22
f 12/12/12 11/11/11 23/25/23
f 2/2/2 1/1/1 6/6/6
f 24/26/24 25/27/25 26/28/26
f 27/29/27 28/30/28 21/31/21
f 29/32/29 30/33/30 31/34/31
f 30/35/30 32/36/32 33/37/33
f 32/36/32 34/38/34 35/39/35
f 25/27/25 24/26/24 36/40/36
f 37/41/37 11/11/11 10/10/10
f 38/42/38 39/43/39 40/44/40
f 15/17/15 14/16/14 41/45/41
f 14/46/14 8/8/8 41/47/41
f 38/48/38 42/49/42 39/50/39
f 3/3/3 42/49/42 43/51/43
f 28/30/28 29/52/29 21/31/21
f 29/32/29 31/34/31 21/23/21
f 6/6/6 44/53/44 45/54/45
f 46/55/46 23/56/23 47/57/47
f 48/58/48 49/59/49 50/60/50
f 51/61/51 49/59/49 52/62/52
f 44/53/44 53/63/53 15/64/15
f 41/45/41 22/24/22 15/17/15
f 54/65/54 27/29/27 21/31/21
f 21/23/21 20/22/20 55/66/55
f 39/50/39 42/49/42 3/3/3
f 39/50/39 3/3/3 47/57/47
f 31/34/31 22/24/22 21/23/21
f 35/39/35 56/67/56 22/68/22
f 11/11/11 39/43/39 47/69/47
f 47/69/47 23/25/23 11/11/11
f 22/68/22 56/67/56 44/53/44
f 22/68/22 44/53/44 15/64/15
f 46/55/46 47/57/47 2/2/2
f 47/57/47 3/3/3 2/2/2
f 45/54/45 57/70/57 46/55/46
f 36/40/36 34/38/34 32/36/32
f 15/64/15 58/71/58 16/72/16
f 43/51/43 59/73/59 13/14/13
f 36/40/36 27/74/27 34/38/34
f 50/60/50 27/29/27 36/75/36
f 58/71/58 3/3/3 43/51/43
f 58/71/58 60/76/60 16/72/16
f 56/67/56 45/54/45 44/53/44
f 45/54/45 34/38/34 57/70/57
f 5/5/5 3/3/3 58/71/58
f 5/5/5 58/71/58 4/4/4
f 54/65/54 23/25/23 27/29/27
f 27/74/27 57/70/57 34/38/34
f 28/30/28 51/61/51 52/62/52
f 27/29/27 51/61/51 28/30/28
f 4/4/4 58/71/58 15/64/15
f 4/4/4 15/64/15 53/63/53
f 24/77/24 49/59/49 48/58/48
f 26/78/26 17/19/17 24/77/24
f 54/65/54 21/31/21 55/79/55
f 10/10/10 12/12/12 55/79/55
f 18/80/18 25/27/25 30/35/30
f 18/20/18 30/81/30 19/21/19
f 12/12/12 54/65/54 55/79/55
f 12/12/12 23/25/23 54/65/54
f 32/36/32 30/35/30 25/27/25
f 32/36/32 25/27/25 36/40/36
f 37/41/37 10/10/10 41/47/41
f 20/22/20 22/24/22 41/45/41
f 36/75/36 48/58/48 50/60/50
f 36/75/36 24/77/24 48/58/48
f 37/41/37 38/42/38 40/44/40
f 8/8/8 7/7/7 38/42/38
f 35/39/35 33/37/33 32/36/32
f 30/33/30 33/82/33 31/34/31
f 42/49/42 38/48/38 59/73/59
f 43/51/43 42/49/42 59/73/59
f 45/54/45 46/55/46 6/6/6
f 46/55/46 2/2/2 6/6/6
f 59/73/59 38/48/38 7/15/7
f 7/15/7 13/14/13 59/73/59
f 33/37/33 35/39/35 31/83/31
f 22/68/22 31/83/31 35/39/35
f 9/9/9 8/8/8 14/46/14
f 14/46/14 61/84/61 9/9/9
f 19/85/19 30/33/30 29/32/29
f 52/62/52 17/19/17 19/21/19
f 41/47/41 8/8/8 37/41/37
f 8/8/8 38/42/38 37/41/37
f 35/39/35 34/38/34 56/67/56
f 34/38/34 45/54/45 56/67/56
f 49/59/49 17/19/17 52/62/52
f 24/77/24 17/19/17 49/59/49
f 16/18/16 61/86/61 14/16/14
f 16/72/16 60/76/60 13/14/13
f 57/70/57 23/56/23 46/55/46
f 27/74/27 23/56/23 57/70/57
f 52/62/52 19/21/19 29/52/29
f 28/30/28 52/62/52 29/52/29
f 61/87/61 13/14/13 9/13/9
f 13/14/13 61/87/61 16/72/16
f 18/20/18 17/19/17 26/78/26
f 26/28/26 25/27/25 18/80/18
f 37/41/37 40/44/40 11/11/11
f 40/44/40 39/43/39 11/11/11
f 43/51/43 60/76/60 58/71/58
f 60/76/60 43/51/43 13/14/13
f 44/53/44 6/6/6 53/63/53
f 4/4/4 53/63/53 6/6/6
f 41/47/41 10/10/10 20/88/20
f 20/88/20 10/10/10 55/79/55
f 50/60/50 49/59/49 51/61/51
f 50/60/50 51/61/51 27/29/27
