# Blender v2.90.1 OBJ File: 'Crystal_OBJ.blend'
# www.blender.org
mtllib Crystal_41_low.mtl
o Crystal_41_low
v 0.482058 0.320252 0.044693
v 0.394193 0.211536 -0.086533
v 0.351025 0.686185 -0.017880
v -0.122865 0.603778 0.124361
v -0.091902 0.196144 0.169762
v 0.092495 0.389404 0.144342
v -0.231041 0.255088 -0.159595
v -0.101862 0.005677 -0.082449
v -0.218554 0.027121 -0.102566
v -0.303725 0.181865 -0.103431
v -0.334105 0.456313 -0.039492
v 0.391346 0.735205 0.068483
v 0.399344 0.359732 0.136090
v 0.059524 0.233248 0.109762
v 0.072888 0.041285 0.031258
v 0.241625 -0.011671 0.017921
v 0.189826 0.035417 0.142869
v 0.122041 0.030246 0.001839
v 0.220958 0.202039 -0.125528
v 0.238251 0.020268 -0.042540
v -0.047907 0.324505 -0.271245
v -0.144817 1.083289 -0.090753
v 0.030289 1.257847 -0.165435
v 0.120202 0.894652 -0.014623
v 0.069799 1.136744 0.033738
v 0.106802 0.604919 0.118122
v 0.088494 1.303781 -0.083761
v 0.169785 0.698516 -0.079130
v 0.085280 0.358134 -0.262248
v 0.174132 0.952718 0.085121
v 0.080975 -0.021326 -0.133363
v 0.247133 0.935030 0.096906
v 0.094568 0.329505 0.172696
v 0.265832 0.251826 0.182195
v 0.173456 0.170370 0.191453
v -0.101352 0.042998 0.033974
v -0.221601 0.034527 0.087520
v 0.151597 0.194603 -0.196670
v -0.096774 0.903818 0.087594
v -0.181740 0.898559 -0.029322
v -0.185603 0.922812 -0.073638
v -0.221180 0.669064 -0.107038
v 0.172538 0.500554 -0.112029
v 0.461869 0.038140 -0.001045
v 0.363817 0.108666 0.154743
v -0.382922 0.648128 0.093812
v -0.419092 0.101104 0.037082
v -0.431374 0.191983 0.130730
v -0.315845 0.723352 0.138870
v 0.302220 0.137822 -0.073361
v 0.332712 0.007085 -0.042635
v -0.260390 0.979563 0.032795
v -0.151215 0.952366 0.058392
v -0.346555 0.120916 0.218591
v -0.357491 -0.000568 0.164131
v -0.370148 -0.022388 0.062733
v -0.201345 0.190113 0.137153
v -0.234549 0.284548 0.180775
v -0.124564 0.272570 0.143014
v 0.302665 0.681539 0.054068
v 0.190461 0.982807 -0.011724
v 0.154528 0.922423 -0.032256
v -0.142019 0.192598 -0.230435
v -0.072643 -0.034868 -0.137678
v 0.287459 0.010817 0.071741
v 0.311516 0.164695 0.133199
v -0.081598 0.035162 0.090213
v 0.295853 0.683131 0.013929
v 0.290456 0.519614 -0.019191
v 0.185811 0.770741 -0.057360
v 0.241539 0.938064 0.016992
v -0.278455 0.975310 0.078787
v -0.250619 0.630152 0.125305
v -0.158984 0.850555 0.103223
v 0.062150 1.308570 -0.010611
v -0.071338 1.370249 -0.087535
v -0.080392 1.168499 0.033251
v -0.333238 0.688843 0.040950
v -0.277385 0.720379 0.133436
v -0.299898 0.884738 0.052312
v -0.336841 0.377037 0.007330
v -0.368834 0.170301 -0.012131
v -0.109887 1.375167 -0.022901
v -0.234053 0.008030 0.109148
v -0.309745 0.011812 0.016127
v -0.276321 0.140461 -0.017885
v 0.333408 -0.028347 0.078308
v 0.323393 0.095832 0.145146
v 0.193675 0.272609 -0.121655
v -0.304035 0.294226 0.218369
v 0.266812 0.013093 0.016934
vt 0.621240 0.752007
vt 0.552364 0.813390
vt 0.527615 0.617784
vt 0.663847 0.287664
vt 0.704599 0.122512
vt 0.776581 0.197383
vt 0.248128 0.806614
vt 0.288782 0.907825
vt 0.247746 0.895794
vt 0.215842 0.836504
vt 0.181408 0.736816
vt 0.970402 0.172129
vt 0.936962 0.347980
vt 0.917828 0.189000
vt 0.761291 0.130340
vt 0.294264 0.215957
vt 0.230399 0.232413
vt 0.239258 0.179857
vt 0.427032 0.918440
vt 0.465272 0.829393
vt 0.479974 0.914308
vt 0.328518 0.771931
vt 0.244198 0.493783
vt 0.308341 0.429195
vt 0.762206 0.446163
vt 0.701724 0.513977
vt 0.781750 0.297913
vt 0.338827 0.394640
vt 0.431102 0.607295
vt 0.380275 0.757853
vt 0.807071 0.432645
vt 0.372413 0.907262
vt 0.831879 0.426551
vt 0.784806 0.171951
vt 0.859185 0.147607
vt 0.823129 0.115389
vt 0.369549 0.207983
vt 0.417363 0.184515
vt 0.373721 0.257175
vt 0.403280 0.821930
vt 0.651863 0.410546
vt 0.208431 0.567389
vt 0.229258 0.558234
vt 0.233806 0.651401
vt 0.433696 0.697163
vt 0.607689 0.895206
vt 0.969449 0.052940
vt 0.908064 0.094158
vt 0.422148 0.261191
vt 0.123519 0.665287
vt 0.131438 0.868448
vt 0.098112 0.838212
vt 0.575356 0.314228
vt 0.545904 0.298233
vt 0.529914 0.121404
vt 0.509036 0.856961
vt 0.537797 0.917927
vt 0.581576 0.445485
vt 0.580938 0.409222
vt 0.624519 0.431005
vt 0.577677 0.458487
vt 0.584232 0.098323
vt 0.577749 0.049710
vt 0.541762 0.025984
vt 0.713060 0.582580
vt 0.415960 0.513915
vt 0.653368 0.119124
vt 0.624759 0.156082
vt 0.644031 0.054061
vt 0.683941 0.051006
vt 0.682735 0.149799
vt 0.885729 0.354787
vt 0.812703 0.474039
vt 0.774767 0.466123
vt 0.296038 0.822483
vt 0.314988 0.910018
vt 0.878507 0.047480
vt 0.883210 0.113211
vt 0.832849 0.060773
vt 0.703051 0.056548
vt 0.503033 0.608122
vt 0.501061 0.681268
vt 0.439713 0.572839
vt 0.841849 0.452594
vt 0.892351 0.373127
vt 0.586928 0.400243
vt 0.606735 0.288091
vt 0.627983 0.379479
vt 0.691826 0.569239
vt 0.660692 0.608032
vt 0.650166 0.521813
vt 0.767960 0.046711
vt 0.355150 0.188437
vt 0.361321 0.284577
vt 0.276411 0.231326
vt 0.547909 0.329503
vt 0.588942 0.323512
vt 0.573724 0.385958
vt 0.169446 0.542093
vt 0.261679 0.377849
vt 0.151596 0.649317
vt 0.156256 0.578384
vt 0.162989 0.769209
vt 0.158828 0.847890
vt 0.640230 0.590721
vt 0.551912 0.579009
vt 0.326848 0.088644
vt 0.314613 0.128208
vt 0.273202 0.087241
vt 0.631214 0.047403
vt 0.230525 0.375142
vt 0.299101 0.287668
vt 0.180672 0.930505
vt 0.155704 0.909380
vt 0.194855 0.868338
vt 0.431144 0.506683
vt 0.448921 0.480349
vt 0.474424 0.497819
vt 0.901136 0.035382
vt 0.183889 0.219930
vt 0.199752 0.266786
vt 0.145362 0.271982
vt 0.235663 0.256432
vt 0.895064 0.087828
vt 0.450528 0.799591
vt 0.125381 0.913260
vt 0.598388 0.158782
vt 0.207594 0.217410
vt 0.218814 0.237494
vt 0.281982 0.133977
vt 0.503026 0.931237
vt 0.260254 0.093604
vn 0.9964 0.0752 0.0397
vn 0.3493 0.0242 -0.9367
vn 0.1570 0.5365 -0.8292
vn 0.0190 0.0970 0.9951
vn -0.3247 -0.2745 0.9051
vn -0.6021 0.0922 0.7931
vn -0.5993 -0.0290 -0.8000
vn -0.5849 -0.8093 -0.0542
vn -0.4209 -0.7083 -0.5668
vn -0.8609 -0.2518 -0.4420
vn -0.8898 0.1239 -0.4392
vn 0.4079 0.8508 0.3314
vn 0.2793 0.1103 0.9538
vn -0.1324 -0.3263 0.9360
vn 0.0178 -0.6674 0.7445
vn 0.1613 -0.9760 -0.1461
vn -0.1251 -0.6500 0.7496
vn 0.0433 -0.9755 -0.2159
vn 0.0103 -0.1321 -0.9912
vn 0.1815 -0.6857 -0.7049
vn -0.1845 -0.0572 -0.9812
vn -0.7468 0.1752 -0.6416
vn 0.1890 0.3282 -0.9255
vn 0.5903 0.7539 0.2883
vn 0.5778 0.2068 0.7895
vn -0.2807 0.1756 0.9436
vn 0.8012 0.5624 -0.2046
vn 0.6683 0.1423 -0.7301
vn 0.4467 -0.0171 -0.8945
vn -0.4407 0.6623 0.6059
vn 0.4458 -0.8092 -0.3827
vn 0.5780 0.5260 0.6239
vn -0.5777 0.0747 0.8128
vn 0.4517 0.0208 0.8919
vn -0.1915 -0.2336 0.9533
vn -0.4269 -0.7643 0.4833
vn 0.6426 -0.7547 0.1322
vn 0.6813 -0.2794 -0.6766
vn -0.1415 0.1650 0.9761
vn -0.8762 0.3477 -0.3338
vn -0.9777 0.1728 -0.1190
vn -0.9729 0.0594 -0.2236
vn 0.7109 0.1188 -0.6932
vn 0.8336 -0.5189 -0.1895
vn 0.2963 -0.1943 0.9351
vn -0.9472 0.3129 0.0696
vn -0.8679 -0.2521 -0.4281
vn -0.9487 0.0027 0.3161
vn -0.2982 0.8066 0.5104
vn 0.1461 -0.2119 -0.9663
vn -0.0980 -0.6833 -0.7236
vn -0.3320 0.8201 -0.4661
vn -0.3385 0.5315 0.7765
vn -0.1682 -0.1990 0.9655
vn -0.3276 -0.7035 0.6307
vn -0.4728 -0.8440 -0.2533
vn 0.4240 -0.2086 0.8813
vn 0.6947 0.0285 0.7188
vn -0.3464 -0.0536 0.9366
vn 0.4874 0.5154 0.7048
vn -0.0418 0.8769 -0.4789
vn -0.4099 0.5008 -0.7624
vn -0.4231 -0.2688 -0.8653
vn -0.3168 -0.8677 -0.3830
vn -0.2512 -0.7771 0.5771
vn 0.0471 -0.0754 0.9960
vn -0.3545 -0.6693 0.6530
vn 0.3327 0.5435 -0.7707
vn 0.1609 0.1502 -0.9755
vn 0.4630 0.1778 -0.8683
vn 0.8186 0.4244 -0.3869
vn -0.5250 0.7018 0.4815
vn 0.3946 0.1217 0.9107
vn 0.4377 0.2017 0.8762
vn 0.5496 0.5627 0.6175
vn -0.2418 0.8179 -0.5221
vn -0.1205 0.2285 0.9661
vn -0.6928 0.3442 -0.6336
vn 0.2186 0.4419 0.8700
vn -0.9778 0.1786 -0.1095
vn -0.6752 0.0322 -0.7370
vn -0.4299 -0.0106 -0.9028
vn -0.5387 0.7769 0.3257
vn 0.6605 -0.7093 0.2462
vn 0.1425 -0.6138 -0.7765
vn -0.7418 -0.3934 -0.5431
vn 0.0016 -0.9140 0.4057
vn -0.4898 -0.1993 0.8488
vn 0.4248 -0.0421 -0.9043
vn -0.0060 0.0834 0.9965
vn 0.2340 -0.8646 -0.4447
g Crystal_41_low_Crystal_41_low_Default_OBJ.081
usemtl Default_OBJ.081
s 1
f 1/1/1 2/2/2 3/3/3
f 4/4/4 5/5/5 6/6/6
f 7/7/7 8/8/8 9/9/9
f 10/10/10 11/11/11 7/7/7
f 1/12/1 12/13/12 13/14/13
f 14/15/14 6/6/6 5/5/5
f 15/16/15 16/17/16 17/18/17
f 18/19/18 19/20/19 20/21/20
f 21/22/21 22/23/22 23/24/23
f 24/25/24 25/26/25 26/27/26
f 27/28/27 28/29/28 29/30/29
f 26/27/26 30/31/30 24/25/24
f 23/24/23 29/30/29 21/22/21
f 31/32/31 21/22/21 29/30/29
f 32/33/32 33/34/33 34/35/34
f 33/34/33 14/15/14 35/36/35
f 36/37/36 37/38/37 8/39/8
f 38/40/38 18/19/18 31/32/31
f 26/27/26 25/26/25 39/41/39
f 40/42/40 41/43/41 42/44/42
f 29/30/29 38/40/38 31/32/31
f 43/45/43 29/30/29 28/29/28
f 1/1/1 44/46/44 2/2/2
f 44/47/44 1/12/1 45/48/45
f 9/49/9 8/39/8 37/38/37
f 46/50/46 47/51/47 48/52/48
f 11/11/11 40/42/40 7/7/7
f 49/53/49 46/54/46 48/55/48
f 3/3/3 2/2/2 50/56/50
f 50/56/50 2/2/2 51/57/51
f 40/58/40 52/59/52 53/60/53
f 40/58/40 53/60/53 41/61/41
f 54/62/54 49/53/49 48/55/48
f 55/63/55 48/55/48 56/64/56
f 27/65/27 25/26/25 24/25/24
f 28/29/28 27/28/27 24/66/24
f 57/67/57 58/68/58 54/62/54
f 37/69/37 36/70/36 59/71/59
f 32/33/32 34/35/34 60/72/60
f 30/31/30 61/73/61 62/74/62
f 33/34/33 30/31/30 26/27/26
f 26/27/26 4/4/4 6/6/6
f 7/7/7 22/23/22 21/22/21
f 63/75/63 64/76/64 7/7/7
f 65/77/65 66/78/66 17/79/17
f 34/35/34 33/34/33 35/36/35
f 5/5/5 59/71/59 67/80/67
f 5/5/5 4/4/4 59/71/59
f 68/81/68 69/82/69 70/83/70
f 71/84/71 32/33/32 68/85/68
f 72/86/72 73/87/73 74/88/74
f 59/71/59 4/4/4 73/87/73
f 69/82/69 19/20/19 70/83/70
f 20/21/20 19/20/19 50/56/50
f 75/89/75 27/65/27 76/90/76
f 25/26/25 77/91/77 39/41/39
f 15/92/15 5/5/5 67/80/67
f 67/93/67 64/94/64 18/95/18
f 78/96/78 79/97/79 80/98/80
f 52/99/52 40/42/40 11/11/11
f 15/16/15 67/93/67 18/95/18
f 16/17/16 15/16/15 18/95/18
f 23/24/23 76/100/76 27/28/27
f 29/30/29 23/24/23 27/28/27
f 78/101/78 80/102/80 81/103/81
f 78/101/78 81/103/81 82/104/82
f 66/78/66 34/35/34 17/79/17
f 66/78/66 60/72/60 34/35/34
f 67/80/67 59/71/59 36/70/36
f 36/37/36 8/39/8 67/93/67
f 22/23/22 76/100/76 23/24/23
f 53/60/53 83/105/83 41/61/41
f 12/106/12 1/1/1 3/3/3
f 13/14/13 12/13/12 60/72/60
f 55/107/55 56/108/56 84/109/84
f 84/110/84 57/67/57 54/62/54
f 76/100/76 22/23/22 83/111/83
f 83/105/83 75/89/75 76/90/76
f 63/75/63 31/32/31 64/76/64
f 64/94/64 31/112/31 18/95/18
f 68/81/68 3/3/3 69/82/69
f 3/3/3 68/81/68 12/106/12
f 53/60/53 72/86/72 74/88/74
f 39/41/39 77/91/77 53/60/53
f 37/113/37 85/114/85 86/115/86
f 82/104/82 81/103/81 86/115/86
f 62/116/62 61/117/61 70/83/70
f 70/83/70 71/118/71 68/81/68
f 4/4/4 53/60/53 74/88/74
f 74/88/74 73/87/73 4/4/4
f 8/8/8 7/7/7 64/76/64
f 8/39/8 64/94/64 67/93/67
f 26/27/26 39/41/39 4/4/4
f 4/4/4 39/41/39 53/60/53
f 68/85/68 60/72/60 12/13/12
f 32/33/32 60/72/60 68/85/68
f 10/10/10 86/115/86 81/103/81
f 86/115/86 10/10/10 37/113/37
f 51/57/51 2/2/2 44/46/44
f 44/47/44 45/48/45 87/119/87
f 71/118/71 70/83/70 61/117/61
f 32/33/32 71/84/71 61/73/61
f 87/120/87 51/121/51 44/122/44
f 16/17/16 18/95/18 20/123/20
f 81/103/81 80/102/80 11/11/11
f 81/103/81 11/11/11 10/10/10
f 88/124/88 66/78/66 65/77/65
f 13/14/13 60/72/60 66/78/66
f 89/125/89 38/40/38 29/30/29
f 38/40/38 89/125/89 18/19/18
f 7/7/7 40/42/40 42/44/42
f 7/7/7 42/44/42 22/23/22
f 56/126/56 48/52/48 47/51/47
f 85/114/85 82/104/82 86/115/86
f 33/34/33 26/27/26 6/6/6
f 33/34/33 6/6/6 14/15/14
f 78/101/78 82/104/82 46/50/46
f 49/53/49 78/96/78 46/54/46
f 18/19/18 89/125/89 19/20/19
f 70/83/70 19/20/19 43/45/43
f 30/31/30 32/33/32 61/73/61
f 30/31/30 33/34/33 32/33/32
f 73/87/73 58/68/58 57/67/57
f 90/127/90 49/53/49 54/62/54
f 89/125/89 43/45/43 19/20/19
f 43/45/43 89/125/89 29/30/29
f 27/65/27 75/89/75 25/26/25
f 75/89/75 83/105/83 25/26/25
f 9/9/9 37/113/37 10/10/10
f 10/10/10 7/7/7 9/9/9
f 79/97/79 49/53/49 90/127/90
f 78/96/78 49/53/49 79/97/79
f 77/91/77 83/105/83 53/60/53
f 83/105/83 77/91/77 25/26/25
f 35/36/35 17/79/17 34/35/34
f 14/15/14 17/79/17 35/36/35
f 70/83/70 43/45/43 28/29/28
f 28/29/28 62/116/62 70/83/70
f 55/63/55 54/62/54 48/55/48
f 55/63/55 84/110/84 54/62/54
f 65/77/65 87/119/87 88/124/88
f 87/120/87 65/128/65 91/129/91
f 47/51/47 82/104/82 85/114/85
f 46/50/46 82/104/82 47/51/47
f 57/67/57 37/69/37 59/71/59
f 59/71/59 73/87/73 57/67/57
f 24/66/24 62/116/62 28/29/28
f 24/25/24 30/31/30 62/74/62
f 15/92/15 14/15/14 5/5/5
f 14/15/14 15/92/15 17/79/17
f 41/43/41 83/111/83 22/23/22
f 22/23/22 42/44/42 41/43/41
f 85/130/85 84/109/84 56/108/56
f 56/126/56 47/51/47 85/114/85
f 17/18/17 16/17/16 65/128/65
f 65/128/65 16/17/16 91/129/91
f 79/97/79 90/127/90 58/68/58
f 54/62/54 58/68/58 90/127/90
f 16/17/16 20/123/20 91/129/91
f 50/56/50 91/131/91 20/21/20
f 63/75/63 7/7/7 21/22/21
f 31/32/31 63/75/63 21/22/21
f 73/87/73 79/97/79 58/68/58
f 72/86/72 79/97/79 73/87/73
f 91/131/91 50/56/50 51/57/51
f 51/121/51 87/120/87 91/129/91
f 52/59/52 72/86/72 53/60/53
f 80/102/80 52/99/52 11/11/11
f 84/110/84 37/69/37 57/67/57
f 37/132/37 84/109/84 85/130/85
f 13/14/13 66/78/66 45/48/45
f 45/48/45 1/12/1 13/14/13
f 50/56/50 69/82/69 3/3/3
f 69/82/69 50/56/50 19/20/19
f 72/86/72 80/98/80 79/97/79
f 72/86/72 52/59/52 80/98/80
f 88/124/88 45/48/45 66/78/66
f 87/119/87 45/48/45 88/124/88
