# Blender v2.90.1 OBJ File: 'Crystal_OBJ.blend'
# www.blender.org
mtllib Crystal_46_low.mtl
o Crystal_46_low
v -0.009323 -0.664900 0.000410
v 0.017750 -0.635423 0.011333
v -0.025146 -0.650789 0.022458
v -0.033036 -0.660802 0.000553
v -0.012702 0.645708 0.028345
v -0.094242 -0.017056 0.097381
v 0.100757 0.254133 0.072549
v -0.121864 -0.393374 0.032599
v -0.123154 -0.008866 -0.129254
v -0.043565 -0.488238 -0.034155
v 0.021054 -0.540043 -0.027988
v 0.097091 -0.043230 -0.130279
v 0.193550 -0.211848 0.043939
v 0.006525 0.111759 -0.148882
v 0.042739 0.594041 -0.011017
v 0.214263 0.051003 -0.053770
v -0.208565 0.157941 -0.067077
v -0.040844 0.672164 -0.015550
v 0.076916 -0.182873 0.124454
v 0.152432 -0.053835 0.107807
v -0.014811 -0.231032 0.124221
v -0.183427 -0.186643 0.040765
v 0.006252 -0.357664 0.106693
vt 0.243190 0.983164
vt 0.218404 0.958808
vt 0.253143 0.962184
vt 0.465613 0.917728
vt 0.510074 0.921950
vt 0.479163 0.930467
vt 0.263737 0.978559
vt 0.263139 0.056612
vt 0.328667 0.481056
vt 0.179859 0.291876
vt 0.468326 0.702113
vt 0.647561 0.460737
vt 0.519268 0.794825
vt 0.544353 0.851811
vt 0.769724 0.553002
vt 0.807030 0.741368
vt 0.765134 0.426687
vt 0.966113 0.120164
vt 0.895031 0.542846
vt 0.468299 0.320672
vt 0.632084 0.318518
vt 0.935270 0.039076
vt 0.028521 0.410949
vt 0.216196 0.063358
vt 0.198137 0.602958
vt 0.085975 0.626538
vt 0.147548 0.506283
vt 0.359969 0.787302
vt 0.265499 0.641802
vt 0.417982 0.613370
vt 0.487738 0.541105
vt 0.243280 0.738554
vt 0.278707 0.019757
vn 0.3904 -0.7806 -0.4881
vn 0.7785 -0.6264 0.0406
vn -0.2439 -0.5630 0.7897
vn -0.5123 -0.7726 -0.3750
vn 0.0762 0.6673 0.7409
vn -0.4133 0.1151 0.9033
vn 0.5179 0.2072 0.8299
vn -0.9220 -0.3142 0.2264
vn -0.4731 -0.1286 -0.8716
vn -0.4362 -0.2117 -0.8746
vn 0.3887 -0.2678 -0.8816
vn 0.3722 -0.1435 -0.9170
vn 0.9408 -0.2983 0.1608
vn 0.0766 0.1317 -0.9883
vn 0.8450 0.4754 -0.2447
vn 0.9413 0.1130 -0.3180
vn -0.9475 0.2055 -0.2451
vn -0.3331 0.9148 -0.2286
vn 0.2432 -0.0841 0.9663
vn 0.5438 0.0868 0.8347
vn -0.2143 -0.0823 0.9733
vn -0.9430 -0.1806 0.2794
vn 0.0202 -0.2518 0.9676
g Crystal_46_low_Crystal_46_low_Default_OBJ.095
usemtl Default_OBJ.095
s 1
f 1/1/1 2/2/2 3/3/3
f 4/4/4 2/5/2 1/6/1
f 4/7/4 1/1/1 3/3/3
f 5/8/5 6/9/6 7/10/7
f 8/11/8 9/12/9 10/13/10
f 11/14/11 12/15/12 13/16/13
f 14/17/14 15/18/15 16/19/16
f 10/13/10 9/12/9 12/15/12
f 6/9/6 5/8/5 17/20/17
f 17/21/17 18/22/18 14/17/14
f 7/10/7 16/23/16 15/24/15
f 12/15/12 16/19/16 13/16/13
f 19/25/19 13/26/13 20/27/20
f 16/23/16 20/27/20 13/26/13
f 3/3/3 8/28/8 4/7/4
f 20/27/20 6/9/6 19/25/19
f 21/29/21 6/9/6 22/30/22
f 6/9/6 17/20/17 22/30/22
f 9/12/9 17/21/17 14/17/14
f 22/31/22 17/21/17 9/12/9
f 3/3/3 23/32/23 8/28/8
f 23/32/23 3/3/3 2/2/2
f 14/17/14 12/15/12 9/12/9
f 12/15/12 14/17/14 16/19/16
f 5/8/5 7/10/7 15/24/15
f 5/8/5 18/33/18 17/20/17
f 15/18/15 14/17/14 18/22/18
f 18/33/18 5/8/5 15/24/15
f 7/10/7 20/27/20 16/23/16
f 20/27/20 7/10/7 6/9/6
f 4/4/4 11/14/11 2/5/2
f 10/13/10 12/15/12 11/14/11
f 8/11/8 10/13/10 4/4/4
f 4/4/4 10/13/10 11/14/11
f 19/25/19 23/32/23 13/26/13
f 19/25/19 6/9/6 21/29/21
f 23/32/23 21/29/21 8/28/8
f 19/25/19 21/29/21 23/32/23
f 8/28/8 21/29/21 22/30/22
f 8/11/8 22/31/22 9/12/9
f 2/5/2 11/14/11 13/16/13
f 23/32/23 2/2/2 13/26/13
