# Blender v2.90.1 OBJ File: 'Crystal_OBJ.blend'
# www.blender.org
mtllib Crystal_25_low.mtl
o Crystal_25_low
v -0.147006 1.263678 0.057108
v -0.159502 1.259016 -0.228844
v -0.532628 1.317109 -0.051684
v 0.246177 0.009003 -0.380611
v 0.239808 -0.004008 0.266470
v -0.131447 0.004175 -0.274073
v -0.608668 0.025954 -0.253939
v -0.613385 0.891337 -0.194587
v -0.324174 1.125474 -0.383923
v 0.196521 1.101817 -0.319680
v -0.036182 0.002821 -0.396792
v 0.298781 0.013097 0.374576
v 0.540790 -0.025236 0.082675
v 0.798006 -0.000542 0.380331
v 0.365282 1.184033 -0.161940
v 0.386660 0.195896 -0.234527
v -0.837863 0.032178 0.198642
v -0.750572 0.989656 0.108681
v -0.969423 0.960873 0.033128
v -1.027204 0.000139 -0.078500
v -0.646851 0.015562 0.150850
v 0.830005 2.118162 0.022441
v 0.842516 1.813165 0.041120
v 0.818865 1.799066 0.002098
v 0.661678 1.740955 0.379422
v 0.570557 1.744709 0.378372
v 0.639734 2.208426 0.267456
v 0.745098 1.725993 0.264975
v -0.113823 1.580729 -0.260275
v -0.107717 1.607724 0.076417
v 0.208579 1.674670 -0.177412
v 0.242110 1.858986 0.187098
v 0.288203 1.617835 -0.008008
v 0.260856 1.356011 0.274110
v 0.406197 0.027166 -0.100522
v 0.362927 1.410149 -0.021315
v 0.481377 1.883661 -0.045164
v 0.528583 1.879742 -0.063399
v 0.335484 1.736166 0.330903
v -0.916672 0.015230 -0.270714
v -0.911418 0.675106 -0.200861
v -0.793433 1.037885 -0.177229
v -0.754240 0.738319 -0.263050
v -0.612164 0.999271 0.051255
v -0.332309 1.254603 0.252720
v -0.563212 0.017599 0.272884
v -0.221669 0.022960 0.284327
v -0.113498 0.021976 0.207450
v 0.558736 0.123101 -0.170132
v 0.547552 1.878805 -0.072728
v -0.003362 0.023450 0.290520
v 0.087453 1.588110 0.260772
v -0.457006 1.136741 0.246266
v -0.244293 0.022662 -0.391686
v -0.451579 0.058290 -0.416684
v -0.117376 0.382292 -0.291854
v 0.545879 2.141527 -0.058153
v 0.787897 1.808486 -0.007451
v 0.317753 1.897136 0.018385
v 0.297130 2.119458 0.036509
v 0.755888 -0.004606 -0.112885
v -0.786053 0.219180 -0.294143
v 0.917276 -0.009129 0.152722
v 0.293270 1.902541 0.017258
vt 0.622536 0.863008
vt 0.640190 0.801013
vt 0.683074 0.879114
vt 0.665448 0.317170
vt 0.746893 0.210599
vt 0.741333 0.346390
vt 0.918358 0.762315
vt 0.770849 0.856683
vt 0.700848 0.808883
vt 0.619907 0.720035
vt 0.805043 0.578705
vt 0.845686 0.631672
vt 0.751165 0.185121
vt 0.674429 0.202517
vt 0.669589 0.121298
vt 0.578615 0.696452
vt 0.741248 0.571846
vt 0.312737 0.093998
vt 0.166712 0.240862
vt 0.130000 0.205491
vt 0.914369 0.425486
vt 0.822994 0.402596
vt 0.879642 0.340186
vt 0.326338 0.726634
vt 0.373856 0.676763
vt 0.382840 0.682351
vt 0.501716 0.312348
vt 0.574111 0.391997
vt 0.287008 0.611176
vt 0.273945 0.598501
vt 0.320053 0.683359
vt 0.267664 0.719849
vt 0.216037 0.674468
vt 0.306214 0.632140
vt 0.584504 0.815989
vt 0.572694 0.866517
vt 0.517761 0.795173
vt 0.205403 0.566405
vt 0.203232 0.526368
vt 0.278257 0.499320
vt 0.750593 0.523829
vt 0.520799 0.713339
vt 0.418088 0.753329
vt 0.412464 0.743617
vt 0.240653 0.565339
vt 0.872044 0.443646
vt 0.265328 0.034881
vt 0.822799 0.943492
vt 0.849906 0.878399
vt 0.974637 0.845832
vt 0.110535 0.272775
vt 0.821375 0.858512
vt 0.783136 0.906593
vt 0.732510 0.900641
vt 0.213978 0.348068
vt 0.365675 0.148592
vt 0.420881 0.217617
vt 0.798375 0.264347
vt 0.439890 0.244910
vt 0.219559 0.405287
vt 0.141858 0.344046
vt 0.673355 0.250684
vt 0.711310 0.506767
vt 0.409502 0.739126
vt 0.459532 0.267650
vt 0.222959 0.483573
vt 0.489243 0.294831
vt 0.210716 0.319331
vt 0.181060 0.271425
vt 0.745453 0.380133
vt 0.889381 0.722476
vt 0.871512 0.681047
vt 0.795533 0.689424
vt 0.790573 0.236843
vt 0.710291 0.354930
vt 0.367579 0.771979
vt 0.302764 0.800139
vt 0.385832 0.689176
vt 0.435345 0.786286
vt 0.395697 0.818730
vt 0.917544 0.355685
vt 0.342686 0.125530
vt 0.705480 0.454077
vt 0.633448 0.254177
vt 0.614476 0.207767
vt 0.185678 0.462306
vt 0.168773 0.526944
vt 0.880998 0.309554
vt 0.825867 0.265090
vt 0.952245 0.810621
vt 0.906527 0.810674
vt 0.621293 0.143745
vt 0.609509 0.432964
vt 0.490237 0.755353
vt 0.859698 0.654679
vt 0.437512 0.791521
vt 0.776436 0.411225
vt 0.160490 0.609188
vt 0.465621 0.821786
vt 0.663000 0.400743
vn -0.4694 0.5717 0.6729
vn -0.5594 0.4899 -0.6686
vn -0.5916 0.8011 -0.0914
vn 0.3728 -0.6103 -0.6990
vn -0.2383 -0.8529 0.4646
vn -0.0571 -0.9248 -0.3761
vn -0.1574 -0.7969 -0.5832
vn -0.2708 0.3668 -0.8900
vn -0.0399 0.3804 -0.9240
vn 0.3303 0.1160 -0.9367
vn -0.3107 -0.6149 -0.7248
vn -0.4142 -0.5509 0.7246
vn -0.0427 -0.9976 -0.0545
vn 0.4143 -0.5735 0.7067
vn 0.8885 0.1154 -0.4441
vn 0.8888 -0.0251 -0.4575
vn -0.2788 -0.5082 0.8148
vn -0.0048 0.6182 0.7860
vn -0.7903 0.5364 0.2963
vn -0.7850 -0.6194 0.0111
vn -0.1928 -0.8365 0.5130
vn 0.7947 0.5108 -0.3279
vn 0.9976 0.0650 -0.0227
vn 0.6203 0.0283 -0.7838
vn 0.4535 0.1297 0.8818
vn -0.1034 0.1326 0.9858
vn 0.2040 0.7961 0.5698
vn 0.8616 0.1016 0.4973
vn -0.5614 0.5491 -0.6191
vn -0.7006 0.6269 0.3408
vn 0.3806 0.7968 -0.4693
vn -0.9240 0.2401 0.2977
vn 0.1406 0.7193 -0.6803
vn -0.4271 0.1127 0.8972
vn 0.1999 -0.8605 -0.4685
vn 0.2919 0.2043 -0.9344
vn -0.3578 0.0425 -0.9328
vn -0.3984 0.0447 -0.9161
vn -0.5178 0.1758 0.8373
vn -0.4079 -0.5888 -0.6978
vn -0.7132 0.1397 -0.6869
vn -0.1658 0.8116 -0.5602
vn -0.0328 0.1446 -0.9889
vn -0.6239 0.5680 0.5367
vn 0.1165 0.6209 0.7752
vn -0.3949 -0.5952 0.6998
vn 0.2407 -0.6110 0.7542
vn -0.0399 -0.8262 0.5619
vn -0.0722 -0.1335 -0.9884
vn -0.0870 0.0546 -0.9947
vn -0.2667 -0.5481 0.7927
vn -0.0794 0.6067 0.7910
vn -0.5343 0.2683 0.8016
vn 0.2857 -0.6244 -0.7270
vn -0.3269 -0.4403 -0.8362
vn -0.1624 0.0281 -0.9863
vn -0.0474 0.6169 -0.7856
vn 0.2924 0.0524 -0.9549
vn -0.1504 0.0665 -0.9864
vn -0.7404 0.6157 -0.2696
vn 0.4271 -0.6229 -0.6554
vn -0.0324 0.0265 -0.9991
vn 0.7824 -0.6227 0.0123
vn -0.5732 0.0826 -0.8153
g Crystal_25_low_Crystal_25_low_Default_OBJ.049
usemtl Default_OBJ.049
s 1
f 1/1/1 2/2/2 3/3/3
f 4/4/4 5/5/5 6/6/6
f 7/7/7 8/8/8 9/9/9
f 10/10/10 4/11/4 11/12/11
f 12/13/12 13/14/13 14/15/14
f 15/16/15 16/17/16 10/10/10
f 17/18/17 18/19/18 19/20/19
f 20/21/20 7/22/7 21/23/21
f 22/24/22 23/25/23 24/26/24
f 12/27/12 14/28/14 25/29/25
f 25/29/25 26/30/26 12/27/12
f 23/31/23 22/32/22 27/33/27
f 27/33/27 28/34/28 23/31/23
f 29/35/29 30/36/30 31/37/31
f 32/38/32 33/39/33 34/40/34
f 35/41/35 36/42/36 37/43/37
f 37/43/37 38/44/38 35/41/35
f 39/45/39 27/33/27 32/38/32
f 27/33/27 39/45/39 26/30/26
f 40/46/40 7/22/7 20/21/20
f 17/18/17 19/20/19 20/47/20
f 19/48/19 41/49/41 20/50/20
f 19/20/19 18/19/18 42/51/42
f 8/8/8 7/7/7 43/52/43
f 8/8/8 42/53/42 44/54/44
f 45/55/45 46/56/46 47/57/47
f 21/23/21 6/6/6 48/58/48
f 48/59/48 1/60/1 45/55/45
f 3/61/3 45/55/45 1/60/1
f 5/5/5 35/62/35 13/14/13
f 49/63/49 35/41/35 38/44/38
f 38/44/38 50/64/50 49/63/49
f 5/5/5 4/4/4 35/62/35
f 15/16/15 35/41/35 16/17/16
f 1/1/1 30/36/30 2/2/2
f 51/65/51 52/66/52 1/60/1
f 52/66/52 34/40/34 33/39/33
f 52/66/52 51/65/51 34/40/34
f 29/35/29 2/2/2 30/36/30
f 29/35/29 11/12/11 2/2/2
f 11/12/11 29/35/29 10/10/10
f 29/35/29 31/37/31 10/10/10
f 48/58/48 6/6/6 5/5/5
f 34/40/34 51/65/51 5/67/5
f 53/68/53 3/61/3 44/69/44
f 46/56/46 53/68/53 44/69/44
f 21/23/21 7/22/7 54/70/54
f 55/71/55 9/9/9 54/72/54
f 3/3/3 8/8/8 44/54/44
f 3/3/3 9/9/9 8/8/8
f 56/73/56 9/9/9 2/2/2
f 9/9/9 3/3/3 2/2/2
f 12/27/12 34/40/34 5/67/5
f 12/13/12 5/5/5 13/14/13
f 48/58/48 5/5/5 51/74/51
f 51/65/51 1/60/1 48/59/48
f 2/2/2 11/12/11 56/73/56
f 6/6/6 11/75/11 4/4/4
f 57/76/57 27/77/27 22/24/22
f 50/64/50 57/76/57 22/24/22
f 22/24/22 58/78/58 50/64/50
f 6/6/6 21/23/21 54/70/54
f 56/73/56 54/72/54 9/9/9
f 59/79/59 60/80/60 57/76/57
f 57/76/57 37/43/37 59/79/59
f 60/80/60 27/77/27 57/76/57
f 17/81/17 20/21/20 21/23/21
f 21/82/21 44/69/44 17/18/17
f 61/83/61 49/63/49 58/78/58
f 58/78/58 24/26/24 61/83/61
f 49/84/49 61/85/61 35/62/35
f 1/60/1 52/66/52 30/86/30
f 30/86/30 52/66/52 31/87/31
f 46/56/46 44/69/44 21/82/21
f 46/88/46 21/23/21 47/89/47
f 39/45/39 32/38/32 34/40/34
f 39/45/39 34/40/34 12/27/12
f 42/51/42 18/19/18 44/69/44
f 17/18/17 44/69/44 18/19/18
f 35/41/35 4/11/4 16/17/16
f 16/17/16 4/11/4 10/10/10
f 41/49/41 40/90/40 20/50/20
f 7/7/7 62/91/62 43/52/43
f 31/87/31 52/66/52 33/39/33
f 15/16/15 36/42/36 35/41/35
f 14/15/14 61/85/61 63/92/63
f 25/29/25 14/28/14 63/93/63
f 63/93/63 28/34/28 25/29/25
f 41/49/41 43/52/43 62/91/62
f 19/48/19 42/53/42 41/49/41
f 47/89/47 21/23/21 48/58/48
f 48/59/48 45/55/45 47/57/47
f 31/37/31 33/94/33 15/16/15
f 15/16/15 10/10/10 31/37/31
f 42/53/42 8/8/8 43/52/43
f 42/53/42 43/52/43 41/49/41
f 6/95/6 56/73/56 11/12/11
f 6/95/6 54/72/54 56/73/56
f 59/79/59 36/42/36 33/94/33
f 33/94/33 64/96/64 59/79/59
f 15/16/15 33/94/33 36/42/36
f 40/90/40 62/91/62 7/7/7
f 41/49/41 62/91/62 40/90/40
f 3/61/3 53/68/53 45/55/45
f 45/55/45 53/68/53 46/56/46
f 7/7/7 9/9/9 55/71/55
f 7/22/7 55/97/55 54/70/54
f 32/38/32 27/33/27 60/98/60
f 32/99/32 60/80/60 64/96/64
f 13/14/13 61/85/61 14/15/14
f 13/14/13 35/62/35 61/85/61
f 59/79/59 64/96/64 60/80/60
f 38/44/38 37/43/37 57/76/57
f 50/64/50 38/44/38 57/76/57
f 59/79/59 37/43/37 36/42/36
f 64/96/64 33/94/33 32/99/32
f 50/64/50 58/78/58 49/63/49
f 24/26/24 58/78/58 22/24/22
f 61/83/61 24/26/24 23/25/23
f 23/25/23 63/100/63 61/83/61
f 23/31/23 28/34/28 63/93/63
f 25/29/25 28/34/28 27/33/27
f 26/30/26 39/45/39 12/27/12
f 26/30/26 25/29/25 27/33/27
