# Blender v2.90.1 OBJ File: 'Crystal_OBJ.blend'
# www.blender.org
mtllib Crystal_43_low.mtl
o Crystal_43_low
v -0.032547 0.932631 0.063194
v -0.130263 0.581692 -0.092264
v -0.203646 0.569039 0.025784
v 0.049156 0.491712 -0.139168
v 0.102108 0.868142 -0.024871
v 0.172387 0.516570 -0.073050
v 0.094213 0.277176 -0.164750
v 0.123779 0.320509 -0.074111
v 0.027893 0.000822 -0.087302
v 0.106341 0.592015 0.169487
v 0.014976 0.402762 0.205030
v 0.157398 0.417745 0.101803
v -0.183846 0.367581 0.066973
v -0.164337 0.387868 -0.131123
v -0.126761 0.150460 0.001516
v -0.012741 0.045670 0.036020
v 0.047378 0.041780 -0.009012
v -0.050201 0.375742 0.182427
v -0.169637 0.401263 0.097421
v -0.021393 0.708961 0.130127
v -0.201805 0.539535 0.049046
v -0.148352 0.496218 -0.127309
v 0.056161 0.945804 -0.024286
v 0.003035 0.555127 -0.141030
v -0.103859 0.235579 -0.147660
v 0.190538 0.525667 -0.027829
v 0.127232 0.828489 0.025746
v 0.175622 0.391211 0.074579
v 0.049200 0.889478 0.103076
v -0.001997 0.904137 -0.020415
v -0.068450 0.005762 -0.033254
v 0.044629 0.985087 0.044468
v -0.009464 0.389866 -0.183164
v -0.046833 -0.008711 -0.077509
v 0.134083 0.782931 -0.029834
vt 0.201886 0.723222
vt 0.488745 0.608993
vt 0.488705 0.724864
vt 0.597154 0.255672
vt 0.822698 0.455779
vt 0.579630 0.360332
vt 0.433136 0.242188
vt 0.446407 0.317505
vt 0.247596 0.249304
vt 0.589956 0.569417
vt 0.395174 0.590649
vt 0.475075 0.465882
vt 0.616685 0.800141
vt 0.675140 0.635926
vt 0.787494 0.850188
vt 0.200821 0.333360
vt 0.252985 0.303777
vt 0.573100 0.918499
vt 0.584980 0.815452
vt 0.332837 0.834389
vt 0.504147 0.748360
vt 0.691727 0.075730
vt 0.884119 0.456122
vt 0.657962 0.244107
vt 0.385136 0.060632
vt 0.576014 0.393993
vt 0.785504 0.496064
vt 0.468689 0.436077
vt 0.180729 0.795669
vt 0.366302 0.978721
vt 0.851806 0.573978
vt 0.202199 0.654190
vt 0.544214 0.967746
vt 0.861244 0.952813
vt 0.812453 0.703366
vt 0.892410 0.885842
vt 0.934610 0.502995
vt 0.533896 0.177055
vt 0.576997 0.016940
vt 0.131437 0.715607
vt 0.195967 0.217956
vt 0.752518 0.141629
vt 0.898359 0.406562
vt 0.933007 0.877506
vt 0.757987 0.443296
vt 0.577532 0.605164
vn -0.6943 0.6434 0.3224
vn -0.6910 0.4075 -0.5970
vn -0.9635 0.2674 -0.0121
vn 0.3804 0.2053 -0.9017
vn 0.7358 0.4028 -0.5444
vn 0.7751 0.0518 -0.6298
vn 0.5965 -0.2058 -0.7758
vn 0.9448 -0.2662 -0.1913
vn 0.4602 -0.7811 -0.4219
vn 0.5008 0.1566 0.8513
vn 0.0440 -0.0893 0.9950
vn 0.7528 -0.1110 0.6488
vn -0.9081 -0.2563 0.3312
vn -0.7769 -0.0661 -0.6261
vn -0.8783 -0.3878 0.2796
vn -0.0093 -0.6284 0.7778
vn 0.7144 -0.6048 0.3520
vn -0.3414 -0.2449 0.9075
vn -0.7041 -0.0852 0.7050
vn -0.3516 0.2023 0.9140
vn -0.8931 0.0762 0.4434
vn -0.6098 0.2411 -0.7550
vn 0.2525 0.7017 -0.6663
vn 0.0715 0.2658 -0.9614
vn -0.5490 -0.2810 -0.7871
vn 0.9958 0.0361 -0.0847
vn 0.9212 0.3308 0.2048
vn 0.9080 -0.2389 0.3442
vn 0.2883 0.3841 0.8771
vn -0.5562 0.4811 -0.6776
vn -0.5913 -0.7700 0.2398
vn 0.1682 0.9718 0.1650
vn 0.0099 0.0773 -0.9970
vn -0.3314 -0.8631 -0.3811
vn 0.7972 0.2603 -0.5448
g Crystal_43_low_Crystal_43_low_Default_OBJ.083
usemtl Default_OBJ.083
s 1
f 1/1/1 2/2/2 3/3/3
f 4/4/4 5/5/5 6/6/6
f 7/7/7 8/8/8 9/9/9
f 10/10/10 11/11/11 12/12/12
f 13/13/13 14/14/14 15/15/15
f 11/11/11 16/16/16 17/17/17
f 18/18/18 19/19/19 15/15/15
f 20/20/20 1/1/1 21/21/21
f 22/22/22 23/23/23 24/24/24
f 7/7/7 9/9/9 25/25/25
f 17/17/17 9/9/9 8/8/8
f 26/26/26 27/27/27 28/28/28
f 29/29/29 20/20/20 10/30/10
f 10/10/10 12/12/12 27/27/27
f 29/31/29 10/10/10 27/27/27
f 2/2/2 1/1/1 30/32/30
f 11/33/11 15/15/15 16/34/16
f 25/35/25 31/36/31 15/15/15
f 27/27/27 23/23/23 32/37/32
f 5/5/5 24/24/24 23/23/23
f 4/4/4 24/24/24 5/5/5
f 33/38/33 7/7/7 25/25/25
f 25/25/25 14/39/14 33/38/33
f 14/14/14 25/35/25 15/15/15
f 11/33/11 18/18/18 15/15/15
f 18/18/18 11/33/11 10/30/10
f 29/29/29 1/1/1 20/20/20
f 32/40/32 30/32/30 1/1/1
f 16/34/16 15/15/15 31/36/31
f 9/9/9 17/17/17 16/16/16
f 1/1/1 29/29/29 32/40/32
f 32/37/32 29/31/29 27/27/27
f 25/25/25 9/9/9 34/41/34
f 34/41/34 9/9/9 16/16/16
f 23/23/23 2/42/2 30/43/30
f 23/23/23 30/43/30 32/37/32
f 34/44/34 16/34/16 31/36/31
f 25/35/25 34/44/34 31/36/31
f 27/27/27 5/5/5 23/23/23
f 26/26/26 35/45/35 27/27/27
f 3/3/3 14/14/14 13/13/13
f 20/20/20 21/21/21 19/19/19
f 12/12/12 11/11/11 17/17/17
f 17/17/17 8/8/8 28/28/28
f 14/39/14 22/22/22 33/38/33
f 3/3/3 22/46/22 14/14/14
f 6/6/6 35/45/35 26/26/26
f 6/6/6 8/8/8 7/7/7
f 22/22/22 2/42/2 23/23/23
f 2/2/2 22/46/22 3/3/3
f 26/26/26 28/28/28 8/8/8
f 8/8/8 6/6/6 26/26/26
f 18/18/18 10/30/10 20/20/20
f 18/18/18 20/20/20 19/19/19
f 33/38/33 22/22/22 24/24/24
f 24/24/24 4/4/4 33/38/33
f 28/28/28 12/12/12 17/17/17
f 28/28/28 27/27/27 12/12/12
f 15/15/15 19/19/19 13/13/13
f 19/19/19 21/21/21 13/13/13
f 7/7/7 4/4/4 6/6/6
f 33/38/33 4/4/4 7/7/7
f 21/21/21 1/1/1 3/3/3
f 21/21/21 3/3/3 13/13/13
f 35/45/35 5/5/5 27/27/27
f 35/45/35 6/6/6 5/5/5
