# Blender v2.90.1 OBJ File: 'Crystal_OBJ.blend'
# www.blender.org
mtllib Crystal_18_low.mtl
o Crystal_18_low
v -0.108417 0.025749 0.096659
v -0.208753 0.093096 0.004153
v -0.049785 -0.016521 -0.015073
v -0.086244 1.859360 0.055514
v -0.057739 1.824579 0.154714
v 0.050557 1.862200 0.152191
v 0.031761 0.009153 0.213606
v 0.147339 -0.004568 0.002098
v -0.061226 1.071052 -0.082036
v -0.106047 0.030739 -0.120232
v -0.141609 1.718353 -0.101106
v 0.050185 2.181965 -0.113044
v 0.114558 0.769735 -0.117937
v 0.034653 0.957158 -0.138656
v 0.150842 0.095476 0.062339
v 0.124029 1.448573 0.132136
v 0.098104 0.586637 0.146377
v 0.071503 2.497231 0.086603
v -0.020694 2.580063 -0.030608
v -0.038971 2.284294 0.044953
v 0.132477 2.104153 -0.078325
v 0.092882 1.659510 0.038153
v 0.123025 0.671648 -0.016959
v -0.077901 0.619833 0.167907
v -0.098980 0.000787 0.159442
v -0.015702 2.065166 -0.079444
v 0.111244 2.547544 -0.011497
v -0.197734 0.110125 -0.049627
v -0.093656 0.782053 0.114988
v -0.158907 1.794788 -0.011045
v -0.070407 2.085226 -0.088801
v -0.021593 0.879582 -0.166449
v -0.015355 0.036540 -0.188824
v 0.033365 1.871716 0.090233
v 0.154775 0.447854 -0.012871
v 0.024747 0.101214 -0.156822
v 0.083684 0.114385 -0.142769
vt 0.827291 0.747848
vt 0.898091 0.723922
vt 0.853585 0.805730
vt 0.565727 0.286371
vt 0.513017 0.303959
vt 0.501279 0.280976
vt 0.737818 0.782730
vt 0.799570 0.884731
vt 0.497897 0.585885
vt 0.284523 0.907165
vt 0.588528 0.371863
vt 0.496899 0.871845
vt 0.739726 0.387856
vt 0.734148 0.464173
vt 0.075418 0.733225
vt 0.397264 0.356328
vt 0.220364 0.606306
vt 0.739208 0.054214
vt 0.801797 0.067809
vt 0.700235 0.151310
vt 0.481818 0.830708
vt 0.514516 0.669667
vt 0.724054 0.334804
vt 0.284775 0.637100
vt 0.794422 0.741089
vt 0.540887 0.854712
vt 0.430718 0.990694
vt 0.376596 0.932883
vt 0.419699 0.940398
vt 0.262260 0.858269
vt 0.337256 0.597054
vt 0.575701 0.328579
vt 0.241203 0.852798
vt 0.674127 0.262149
vt 0.113365 0.805669
vt 0.035252 0.754142
vt 0.750600 0.526516
vt 0.766133 0.445913
vt 0.978319 0.196068
vt 0.922160 0.862771
vt 0.507029 0.252927
vt 0.421147 0.276128
vt 0.156575 0.839474
vt 0.695545 0.274879
vt 0.805839 0.122617
vt 0.767044 0.259301
vt 0.847330 0.098048
vt 0.909507 0.901189
vt 0.882921 0.174833
vt 0.938072 0.171830
vt 0.906711 0.183220
vt 0.915045 0.806967
vt 0.922160 0.738558
vt 0.182328 0.844978
vt 0.888596 0.923227
vn -0.8826 -0.4464 0.1474
vn -0.9087 -0.3649 0.2026
vn -0.2227 -0.9704 -0.0939
vn -0.6762 0.2215 0.7027
vn -0.5481 0.3698 0.7502
vn 0.5079 0.6440 0.5720
vn 0.2288 -0.5532 0.8010
vn 0.7301 -0.6747 -0.1082
vn -0.0752 0.0557 -0.9956
vn -0.5796 -0.5914 -0.5605
vn -0.5564 0.0487 -0.8295
vn -0.0244 0.1112 -0.9935
vn 0.7898 0.0211 -0.6130
vn 0.1073 0.1409 -0.9842
vn 0.9415 -0.0949 0.3234
vn 0.8510 0.0322 0.5241
vn 0.5225 0.0223 0.8524
vn 0.2279 0.3685 0.9013
vn -0.5276 0.8097 -0.2569
vn -0.8760 0.1010 0.4715
vn 0.9169 0.0420 -0.3970
vn 0.9741 0.0809 0.2112
vn 0.9973 0.0718 -0.0133
vn -0.5421 0.0364 0.8395
vn -0.6411 -0.5991 0.4796
vn -0.2214 0.1238 -0.9673
vn 0.7262 0.6541 -0.2118
vn -0.8473 -0.1996 -0.4921
vn -0.8705 0.0229 0.4915
vn -0.9675 0.1245 0.2201
vn -0.4402 0.3722 -0.8171
vn -0.3028 0.1181 -0.9457
vn 0.0466 -0.4810 -0.8755
vn 0.4330 0.4889 0.7572
vn 0.9923 0.0593 0.1087
vn 0.5442 -0.1301 -0.8288
vn 0.5799 -0.2566 -0.7733
g Crystal_18_low_Crystal_18_low_Default_OBJ.028
usemtl Default_OBJ.028
s 1
f 1/1/1 2/2/2 3/3/3
f 4/4/4 5/5/5 6/6/6
f 7/7/7 3/3/3 8/8/8
f 9/9/9 10/10/10 11/11/11
f 12/12/12 13/13/13 14/14/14
f 15/15/15 16/16/16 17/17/17
f 18/18/18 19/19/19 20/20/20
f 21/21/21 22/22/22 23/23/23
f 17/17/17 16/16/16 24/24/24
f 25/25/25 3/3/3 7/7/7
f 26/26/26 12/12/12 14/14/14
f 19/27/19 18/28/18 27/29/27
f 11/11/11 10/10/10 28/30/28
f 29/31/29 30/32/30 2/33/2
f 30/32/30 11/11/11 28/30/28
f 11/11/11 30/32/30 31/34/31
f 21/21/21 23/23/23 13/13/13
f 15/15/15 7/35/7 8/36/8
f 9/37/9 32/38/32 10/39/10
f 8/8/8 3/3/3 33/40/33
f 21/21/21 13/13/13 12/12/12
f 19/27/19 27/29/27 12/12/12
f 34/41/34 18/18/18 20/20/20
f 18/28/18 22/22/22 21/21/21
f 6/6/6 34/41/34 4/4/4
f 22/42/22 16/16/16 15/15/15
f 17/17/17 24/24/24 7/35/7
f 15/15/15 17/17/17 7/35/7
f 6/6/6 5/5/5 24/24/24
f 5/5/5 4/4/4 29/31/29
f 7/35/7 24/24/24 25/43/25
f 24/24/24 5/5/5 29/31/29
f 12/12/12 26/26/26 19/27/19
f 20/20/20 19/19/19 26/44/26
f 4/4/4 34/41/34 20/20/20
f 30/32/30 20/20/20 31/34/31
f 20/20/20 26/44/26 31/34/31
f 31/34/31 26/44/26 11/11/11
f 22/22/22 15/45/15 23/23/23
f 35/46/35 15/45/15 8/47/8
f 9/37/9 26/26/26 14/14/14
f 11/11/11 26/44/26 9/9/9
f 36/48/36 8/8/8 33/40/33
f 37/49/37 35/46/35 8/47/8
f 4/4/4 30/32/30 29/31/29
f 30/32/30 4/4/4 20/20/20
f 10/39/10 32/38/32 33/50/33
f 32/38/32 36/51/36 33/50/33
f 6/6/6 24/24/24 16/16/16
f 16/16/16 22/42/22 6/6/6
f 32/38/32 14/14/14 13/13/13
f 14/14/14 32/38/32 9/37/9
f 22/42/22 18/18/18 34/41/34
f 34/41/34 6/6/6 22/42/22
f 10/52/10 33/40/33 3/3/3
f 3/3/3 2/2/2 10/52/10
f 27/29/27 18/28/18 21/21/21
f 12/12/12 27/29/27 21/21/21
f 10/52/10 2/2/2 28/53/28
f 2/33/2 30/32/30 28/30/28
f 13/13/13 35/46/35 37/49/37
f 13/13/13 37/49/37 32/38/32
f 29/31/29 2/33/2 1/54/1
f 1/54/1 24/24/24 29/31/29
f 13/13/13 23/23/23 35/46/35
f 23/23/23 15/45/15 35/46/35
f 25/25/25 1/1/1 3/3/3
f 25/43/25 24/24/24 1/54/1
f 37/49/37 36/51/36 32/38/32
f 37/55/37 8/8/8 36/48/36
