# Blender v2.90.1 OBJ File: 'Crystal_OBJ.blend'
# www.blender.org
mtllib Crystal_44_low.mtl
o Crystal_44_low
v -0.149310 0.163296 -0.130940
v 0.062048 0.310727 -0.024825
v 0.009967 0.174086 -0.151685
v -0.014527 0.116581 0.206234
v -0.016643 0.235540 0.134536
v -0.172640 0.129856 0.102252
v 0.199872 0.172476 -0.027259
v 0.135767 0.273492 0.024916
v 0.184440 0.125457 0.075543
v 0.023126 -0.005293 -0.089368
v -0.106147 0.077817 -0.153649
v 0.101862 0.087656 -0.170716
v 0.099509 0.070035 -0.107294
v -0.012371 0.012468 0.035773
v -0.209765 0.189165 0.038184
v -0.089177 0.221675 -0.071543
v -0.166869 0.080631 0.018351
v -0.067082 -0.002403 -0.034796
v 0.113250 0.191750 0.176597
v 0.125971 0.158476 0.181202
v 0.133314 0.270310 -0.026336
v 0.181600 0.168984 -0.076491
v -0.044140 0.298845 0.059467
v 0.060318 0.284764 0.112180
v -0.173836 0.121357 -0.099192
v -0.187801 0.120080 0.072068
v -0.005604 0.125241 -0.189438
v 0.067777 0.312193 0.065100
v -0.128179 0.145567 -0.149855
v -0.045987 -0.007085 -0.081838
v 0.055179 0.010564 -0.007328
v -0.157126 0.119029 -0.136056
v -0.003041 0.298422 0.089417
v -0.000633 0.296547 -0.023487
v 0.022309 0.322722 0.058614
vt 0.297392 0.276571
vt 0.476758 0.618843
vt 0.315526 0.528075
vt 0.799201 0.296867
vt 0.766039 0.423215
vt 0.668919 0.288810
vt 0.336876 0.710319
vt 0.447098 0.709712
vt 0.321231 0.802241
vt 0.132771 0.646170
vt 0.123952 0.397342
vt 0.248054 0.612892
vt 0.230265 0.657585
vt 0.741643 0.080726
vt 0.412201 0.277233
vt 0.605350 0.325184
vt 0.461318 0.432121
vt 0.611409 0.224578
vt 0.421501 0.118011
vt 0.622750 0.083284
vt 0.960103 0.384504
vt 0.975718 0.330067
vt 0.418882 0.668674
vt 0.325168 0.675266
vt 0.394890 0.969901
vt 0.050863 0.805629
vt 0.670020 0.490502
vt 0.581946 0.787380
vt 0.442309 0.945005
vt 0.486529 0.234801
vt 0.640811 0.275536
vt 0.251419 0.519560
vt 0.561732 0.702548
vt 0.256783 0.318664
vt 0.048958 0.599988
vt 0.152595 0.737456
vt 0.826217 0.532823
vt 0.440157 0.213825
vt 0.729178 0.508269
vt 0.581541 0.578929
vt 0.715205 0.573058
vt 0.491419 0.541117
vt 0.597456 0.634275
vt 0.401151 0.387097
vt 0.582672 0.027206
vt 0.779802 0.607037
vt 0.378849 0.227012
vn -0.5839 0.5396 -0.6066
vn 0.1649 0.8855 -0.4344
vn 0.0977 0.6255 -0.7741
vn -0.1568 -0.2926 0.9433
vn -0.3071 0.5417 0.7825
vn -0.6457 -0.1973 0.7376
vn 0.9934 0.0181 -0.1130
vn 0.7179 0.6782 0.1571
vn 0.8800 -0.3446 0.3269
vn 0.2425 -0.9121 -0.3306
vn -0.4414 -0.5252 -0.7276
vn 0.5475 -0.2657 -0.7935
vn 0.7211 -0.6759 -0.1520
vn -0.0227 -0.9041 0.4268
vn -0.9049 0.3993 0.1476
vn -0.4241 0.8180 -0.3887
vn -0.7100 -0.6947 0.1151
vn -0.3866 -0.9174 0.0939
vn 0.4493 0.4762 0.7559
vn 0.6212 -0.1705 0.7649
vn 0.5875 0.7012 -0.4040
vn 0.8166 0.0770 -0.5721
vn -0.4958 0.8435 0.2067
vn 0.2190 0.7181 0.6605
vn -0.9086 -0.2785 -0.3113
vn -0.8033 -0.4952 0.3308
vn -0.0026 0.1000 -0.9950
vn 0.3730 0.8758 0.3064
vn -0.3268 0.3060 -0.8942
vn -0.2483 -0.9167 -0.3131
vn 0.4346 -0.8809 0.1875
vn -0.7494 -0.2405 -0.6169
vn -0.2508 0.7345 0.6306
vn -0.3035 0.8288 -0.4700
vn -0.0708 0.9743 0.2138
g Crystal_44_low_Crystal_44_low_Default_OBJ.084
usemtl Default_OBJ.084
s 1
f 1/1/1 2/2/2 3/3/3
f 4/4/4 5/5/5 6/6/6
f 7/7/7 8/8/8 9/9/9
f 10/10/10 11/11/11 12/12/12
f 9/9/9 13/13/13 7/7/7
f 4/4/4 6/6/6 14/14/14
f 1/15/1 15/16/15 16/17/16
f 17/18/17 11/19/11 18/20/18
f 19/21/19 5/5/5 4/4/4
f 4/4/4 14/14/14 20/22/20
f 3/3/3 21/23/21 22/24/22
f 13/13/13 12/12/12 22/24/22
f 9/9/9 20/25/20 14/26/14
f 8/8/8 20/25/20 9/9/9
f 15/16/15 23/27/23 16/17/16
f 24/28/24 19/29/19 8/8/8
f 5/5/5 15/16/15 6/6/6
f 15/16/15 25/30/25 26/31/26
f 27/32/27 12/12/12 11/11/11
f 12/12/12 3/3/3 22/24/22
f 8/8/8 2/2/2 28/33/28
f 7/7/7 21/23/21 8/8/8
f 11/19/11 17/18/17 25/30/25
f 29/34/29 27/32/27 11/11/11
f 14/14/14 26/31/26 17/18/17
f 26/31/26 25/30/25 17/18/17
f 11/11/11 10/10/10 30/35/30
f 9/9/9 14/26/14 31/36/31
f 19/21/19 24/37/24 5/5/5
f 5/5/5 23/27/23 15/16/15
f 15/16/15 1/15/1 25/30/25
f 25/30/25 32/38/32 11/19/11
f 22/24/22 7/7/7 13/13/13
f 22/24/22 21/23/21 7/7/7
f 5/5/5 33/39/33 23/27/23
f 34/40/34 23/27/23 35/41/35
f 2/2/2 21/23/21 3/3/3
f 8/8/8 21/23/21 2/2/2
f 14/14/14 17/18/17 18/20/18
f 30/35/30 10/10/10 14/26/14
f 2/2/2 34/42/34 35/43/35
f 2/2/2 1/1/1 16/44/16
f 10/10/10 12/12/12 13/13/13
f 10/10/10 31/36/31 14/26/14
f 33/39/33 35/41/35 23/27/23
f 28/33/28 24/28/24 8/8/8
f 11/19/11 30/45/30 18/20/18
f 14/14/14 18/20/18 30/45/30
f 28/33/28 2/2/2 35/43/35
f 35/41/35 33/39/33 28/46/28
f 6/6/6 26/31/26 14/14/14
f 6/6/6 15/16/15 26/31/26
f 27/32/27 29/34/29 3/3/3
f 3/3/3 12/12/12 27/32/27
f 20/22/20 19/21/19 4/4/4
f 19/29/19 20/25/20 8/8/8
f 16/44/16 34/42/34 2/2/2
f 23/27/23 34/40/34 16/17/16
f 10/10/10 13/13/13 31/36/31
f 31/36/31 13/13/13 9/9/9
f 32/38/32 29/47/29 11/19/11
f 1/15/1 32/38/32 25/30/25
f 24/37/24 33/39/33 5/5/5
f 33/39/33 24/37/24 28/46/28
f 29/34/29 1/1/1 3/3/3
f 1/15/1 29/47/29 32/38/32
