# Blender v2.90.1 OBJ File: 'Crystal_OBJ.blend'
# www.blender.org
mtllib Crystal_28_low.mtl
o Crystal_28_low
v -0.415443 0.215858 0.318245
v -0.301753 0.007616 0.178125
v -0.199509 0.007001 0.433270
v -0.316304 0.358361 0.297946
v -0.316617 0.187905 0.524249
v -0.145490 0.355759 0.482255
v 0.279106 0.392591 -0.402805
v 0.018297 0.448875 -0.246994
v 0.429290 0.434853 -0.167214
v 0.506363 0.238997 -0.314335
v 0.400449 0.319159 0.127302
v 0.265807 0.047516 0.006012
v 0.528593 0.306862 -0.083521
v 0.173588 0.012036 -0.367573
v 0.399480 0.006526 -0.293194
v 0.167778 0.010167 -0.018057
v -0.227809 0.351794 -0.257138
v -0.283157 0.260760 -0.115795
v -0.053753 0.353255 -0.144130
v -0.021264 0.175500 -0.668061
v 0.294839 0.180458 -0.449213
v 0.003635 0.498658 0.461136
v 0.151017 0.716653 0.319987
v -0.177179 0.575895 0.330606
v -0.221457 0.371206 0.163076
v -0.142879 0.365605 0.315792
v 0.039897 0.368800 -0.344929
v 0.213050 0.386710 0.447939
v 0.398276 0.423332 0.167924
v 0.222084 0.067997 0.364855
v -0.092705 0.245911 0.608059
v 0.070972 0.014613 0.275790
v 0.073678 0.252071 0.490038
v -0.328880 0.289775 -0.053580
v -0.554272 0.221937 0.133080
v -0.326225 0.294390 0.220945
v -0.183802 0.337855 -0.562357
v -0.250890 0.232020 -0.616963
v 0.193431 0.235075 -0.555055
v 0.055348 0.360937 -0.538074
v -0.348235 0.260252 -0.172548
v -0.364677 0.158654 -0.380574
v -0.007827 0.183707 -0.018355
v 0.015634 0.014748 -0.181096
v 0.097705 0.047320 -0.031040
v -0.051807 0.697215 0.053947
v -0.117603 0.549393 0.006299
v -0.206618 0.341482 0.105924
v -0.071071 0.015680 0.149885
v 0.260813 0.039272 0.137194
v -0.445331 0.152746 -0.121338
v -0.399984 0.025186 0.059543
v 0.288296 0.442894 -0.074198
v -0.016658 0.441864 -0.133042
v 0.040794 0.697370 -0.035597
v 0.161444 0.713472 -0.008962
v -0.178545 0.125714 -0.165723
v -0.224525 0.001882 -0.040489
v -0.017654 0.011670 -0.202013
v -0.040940 0.017806 -0.521972
v -0.202556 0.045490 -0.278226
v -0.185553 0.013413 -0.381282
v 0.031858 0.344807 0.413762
v -0.140666 0.441815 -0.053569
v -0.090577 0.289705 -0.017692
v -0.131879 0.298968 0.038746
v 0.439402 0.096004 -0.345228
v 0.114976 0.226366 0.396653
v 0.191157 0.069287 0.058320
vt 0.947405 0.439339
vt 0.846468 0.485192
vt 0.834989 0.375197
vt 0.468451 0.821954
vt 0.548587 0.898698
vt 0.451607 0.910835
vt 0.178962 0.420460
vt 0.271873 0.347391
vt 0.248002 0.503171
vt 0.147348 0.529726
vt 0.501188 0.044527
vt 0.577927 0.152882
vt 0.428472 0.113815
vt 0.158196 0.944763
vt 0.050466 0.943921
vt 0.109639 0.801943
vt 0.271763 0.224768
vt 0.336226 0.191044
vt 0.315411 0.298435
vt 0.377272 0.465788
vt 0.407768 0.314150
vt 0.488569 0.353126
vt 0.239286 0.576081
vt 0.343768 0.590136
vt 0.830481 0.862077
vt 0.835524 0.977910
vt 0.758716 0.873589
vt 0.687894 0.802693
vt 0.765924 0.794894
vt 0.222015 0.329953
vt 0.550198 0.270554
vt 0.683808 0.328563
vt 0.533997 0.424660
vt 0.621929 0.147880
vt 0.885179 0.258950
vt 0.721015 0.321557
vt 0.809193 0.227831
vt 0.257709 0.636542
vt 0.110170 0.663810
vt 0.179466 0.563533
vt 0.409220 0.792529
vt 0.431778 0.676148
vt 0.548587 0.705908
vt 0.470758 0.782183
vt 0.151286 0.226265
vt 0.061753 0.271252
vt 0.119154 0.184101
vt 0.371346 0.365464
vt 0.147463 0.311660
vt 0.310275 0.163772
vt 0.216631 0.123272
vt 0.197540 0.768568
vt 0.196277 0.844010
vt 0.141981 0.789121
vt 0.686909 0.971842
vt 0.645130 0.908564
vt 0.658707 0.796791
vt 0.180391 0.685947
vt 0.722055 0.154833
vt 0.712003 0.289429
vt 0.973736 0.528687
vt 0.910353 0.624381
vt 0.869857 0.542996
vt 0.741387 0.430606
vt 0.735780 0.559637
vt 0.645158 0.512698
vt 0.640840 0.473142
vt 0.493353 0.606578
vt 0.602658 0.570459
vt 0.574410 0.652912
vt 0.803202 0.590415
vt 0.808224 0.663478
vt 0.272719 0.786035
vt 0.212480 0.848573
vt 0.271025 0.720258
vt 0.304142 0.465546
vt 0.375801 0.553699
vt 0.925488 0.349356
vt 0.393344 0.561777
vt 0.463611 0.456507
vt 0.554471 0.541116
vt 0.517686 0.517057
vt 0.476630 0.975031
vt 0.394366 0.985002
vt 0.383019 0.934636
vt 0.921882 0.851111
vt 0.602185 0.872031
vt 0.575133 0.799555
vt 0.607501 0.791927
vt 0.344277 0.716339
vt 0.367680 0.734379
vt 0.606137 0.543689
vt 0.703760 0.614429
vt 0.366692 0.594319
vt 0.475582 0.613283
vt 0.407588 0.654031
vt 0.493825 0.257575
vt 0.533551 0.801691
vt 0.449643 0.250063
vt 0.375801 0.272477
vt 0.317321 0.342431
vt 0.769169 0.641295
vt 0.058795 0.737014
vt 0.042066 0.650558
vt 0.972661 0.714740
vt 0.904710 0.766794
vt 0.915025 0.657860
vt 0.300251 0.843527
vt 0.310431 0.891849
vt 0.852576 0.804518
vt 0.607355 0.128673
vt 0.607355 0.641898
vt 0.769169 0.157598
vt 0.097130 0.434265
vt 0.273024 0.974253
vt 0.415911 0.859886
vt 0.402090 0.210310
vt 0.088251 0.767637
vt 0.397053 0.768009
vt 0.105638 0.370958
vt 0.310431 0.657257
vt 0.767170 0.233202
vt 0.351612 0.984774
vt 0.065107 0.800641
vn -0.9029 0.0766 0.4230
vn -0.3551 -0.9163 0.1854
vn -0.1751 -0.8594 0.4805
vn -0.5650 0.8240 0.0423
vn -0.6803 -0.0586 0.7306
vn -0.1296 0.8791 0.4587
vn 0.2600 0.7300 -0.6321
vn -0.4954 0.8038 -0.3294
vn 0.5209 0.8441 -0.1268
vn 0.8897 0.0584 -0.4527
vn 0.9175 -0.2072 0.3396
vn 0.4413 -0.7375 0.5113
vn 0.9603 0.1004 0.2603
vn 0.1820 -0.9135 -0.3639
vn 0.5254 -0.8265 -0.2022
vn -0.1213 -0.9068 0.4038
vn -0.3771 0.9215 0.0923
vn -0.5168 0.8411 -0.1596
vn -0.6551 0.7547 0.0361
vn 0.1098 -0.1582 -0.9813
vn 0.5365 -0.2299 -0.8119
vn -0.2294 0.1540 0.9611
vn 0.2883 0.8366 0.4657
vn -0.7831 0.4324 0.4470
vn -0.7244 0.6175 -0.3066
vn -0.5303 0.6752 0.5128
vn -0.1747 0.9193 -0.3526
vn 0.4528 0.0219 0.8913
vn 0.9250 0.2864 0.2496
vn 0.3779 -0.6153 0.6918
vn 0.1445 0.0987 0.9846
vn 0.1520 -0.9443 0.2919
vn 0.7447 0.0993 0.6600
vn -0.2670 0.9037 -0.3347
vn -0.9636 0.2264 0.1425
vn -0.5735 0.7976 -0.1869
vn -0.3435 0.8084 -0.4780
vn -0.6538 0.0484 -0.7552
vn 0.5526 0.1665 -0.8166
vn 0.3075 0.8552 -0.4172
vn -0.8840 0.1653 0.4373
vn -0.9608 -0.2388 -0.1405
vn -0.2309 -0.9589 -0.1650
vn -0.2246 -0.9202 0.3207
vn -0.4912 -0.8517 0.1826
vn -0.5439 0.8095 -0.2212
vn -0.8083 0.4297 -0.4025
vn -0.8238 0.1258 -0.5527
vn 0.0870 -0.9761 -0.1992
vn 0.6196 -0.7561 -0.2109
vn -0.6614 -0.0848 -0.7452
vn -0.5499 -0.8348 -0.0279
vn 0.3057 0.9092 -0.2826
vn -0.5540 0.5533 -0.6221
vn -0.1774 0.7259 -0.6645
vn 0.3811 0.7962 -0.4699
vn -0.3308 -0.9425 0.0472
vn 0.1035 -0.9012 -0.4208
vn -0.1840 -0.9192 0.3481
vn -0.0245 -0.8649 -0.5014
vn -0.5158 -0.7660 0.3837
vn -0.4055 -0.9010 -0.1543
vn 0.0517 0.2537 0.9659
vn -0.7747 0.0677 -0.6287
vn -0.7057 0.6154 -0.3511
vn -0.6571 0.4944 -0.5690
vn 0.7093 -0.4384 -0.5520
vn 0.3451 -0.2694 0.8991
vn 0.7107 -0.6909 -0.1327
g Crystal_28_low_Crystal_28_low_Default_OBJ.041
usemtl Default_OBJ.041
s 1
f 1/1/1 2/2/2 3/3/3
f 4/4/4 5/5/5 6/6/6
f 7/7/7 8/8/8 9/9/9
f 9/9/9 10/10/10 7/7/7
f 11/11/11 12/12/12 13/13/13
f 14/14/14 15/15/15 16/16/16
f 17/17/17 18/18/18 19/19/19
f 20/20/20 21/21/21 14/22/14
f 13/23/13 9/9/9 11/24/11
f 22/25/22 23/26/23 24/27/24
f 25/28/25 26/29/26 24/27/24
f 19/19/19 8/8/8 27/30/27
f 28/31/28 29/32/29 23/33/23
f 28/31/28 30/34/30 29/32/29
f 31/35/31 32/36/32 33/37/33
f 2/38/2 32/39/32 3/40/3
f 6/6/6 25/41/25 4/4/4
f 34/42/34 35/43/35 36/44/36
f 37/45/37 20/46/20 38/47/38
f 19/19/19 27/30/27 17/17/17
f 20/20/20 39/48/39 21/21/21
f 37/45/37 40/49/40 20/46/20
f 41/50/41 37/45/37 42/51/42
f 43/52/43 44/53/44 45/54/45
f 24/27/24 46/55/46 47/56/47
f 24/27/24 47/56/47 48/57/48
f 49/58/49 45/54/45 32/39/32
f 30/34/30 50/59/50 11/60/11
f 35/61/35 51/62/51 52/63/52
f 2/38/2 49/58/49 32/39/32
f 53/64/53 54/65/54 55/66/55
f 56/67/56 29/32/29 53/64/53
f 42/68/42 57/69/57 41/70/41
f 58/71/58 51/62/51 57/72/57
f 29/32/29 56/67/56 23/33/23
f 23/26/23 46/55/46 24/27/24
f 43/52/43 57/73/57 59/74/59
f 57/73/57 49/58/49 58/75/58
f 9/9/9 8/8/8 53/76/53
f 9/9/9 53/76/53 29/77/29
f 5/78/5 1/1/1 3/3/3
f 31/35/31 3/3/3 32/36/32
f 38/79/38 20/20/20 60/80/60
f 61/81/61 42/68/42 62/82/62
f 31/83/31 33/84/33 63/85/63
f 28/86/28 23/26/23 22/25/22
f 62/82/62 42/68/42 60/80/60
f 44/53/44 14/14/14 16/16/16
f 64/87/64 65/88/65 66/89/66
f 65/90/65 34/42/34 66/91/66
f 57/73/57 43/52/43 49/58/49
f 43/52/43 45/54/45 49/58/49
f 37/45/37 17/17/17 40/49/40
f 37/45/37 41/50/41 17/17/17
f 56/67/56 46/92/46 23/33/23
f 64/93/64 46/92/46 55/66/55
f 57/94/57 51/95/51 18/96/18
f 51/95/51 35/43/35 34/42/34
f 21/21/21 15/97/15 14/22/14
f 13/13/13 12/12/12 15/97/15
f 35/43/35 1/98/1 36/44/36
f 1/1/1 35/61/35 52/63/52
f 15/97/15 67/99/67 13/13/13
f 9/9/9 13/23/13 10/10/10
f 64/87/64 66/89/66 48/57/48
f 4/4/4 25/41/25 36/44/36
f 11/24/11 9/9/9 29/77/29
f 29/32/29 30/34/30 11/60/11
f 18/18/18 65/100/65 19/19/19
f 19/19/19 65/100/65 54/101/54
f 51/62/51 58/71/58 52/63/52
f 58/75/58 49/58/49 2/38/2
f 64/93/64 54/65/54 65/102/65
f 54/65/54 64/93/64 55/66/55
f 50/103/50 30/104/30 32/39/32
f 30/105/30 68/106/68 32/107/32
f 42/68/42 38/79/38 60/80/60
f 38/47/38 42/51/42 37/45/37
f 19/19/19 54/101/54 8/8/8
f 54/101/54 53/76/53 8/8/8
f 1/98/1 5/5/5 4/4/4
f 4/4/4 36/44/36 1/98/1
f 59/74/59 61/108/61 62/109/62
f 62/109/62 14/14/14 59/74/59
f 28/86/28 22/25/22 63/110/63
f 22/25/22 24/27/24 26/29/26
f 45/54/45 44/53/44 16/16/16
f 69/111/69 12/12/12 11/11/11
f 18/18/18 17/17/17 41/50/41
f 41/70/41 57/69/57 18/112/18
f 50/59/50 69/113/69 11/60/11
f 45/54/45 50/103/50 32/39/32
f 21/114/21 7/7/7 10/10/10
f 21/21/21 67/99/67 15/97/15
f 18/96/18 34/42/34 65/90/65
f 18/96/18 51/95/51 34/42/34
f 31/83/31 6/6/6 5/5/5
f 3/3/3 31/35/31 5/78/5
f 20/20/20 14/22/14 60/80/60
f 60/115/60 14/14/14 62/109/62
f 55/66/55 46/92/46 56/67/56
f 55/66/55 56/67/56 53/64/53
f 25/41/25 6/6/6 26/116/26
f 31/83/31 63/85/63 6/6/6
f 13/13/13 67/99/67 10/117/10
f 21/21/21 10/117/10 67/99/67
f 63/85/63 26/116/26 6/6/6
f 63/110/63 22/25/22 26/29/26
f 45/54/45 69/118/69 50/103/50
f 16/16/16 69/118/69 45/54/45
f 48/119/48 66/91/66 36/44/36
f 34/42/34 36/44/36 66/91/66
f 7/7/7 27/30/27 8/8/8
f 39/120/39 20/46/20 40/49/40
f 28/86/28 68/106/68 30/105/30
f 28/86/28 63/110/63 68/106/68
f 44/53/44 43/52/43 59/74/59
f 14/14/14 44/53/44 59/74/59
f 25/41/25 48/119/48 36/44/36
f 48/57/48 25/28/25 24/27/24
f 58/75/58 2/38/2 52/121/52
f 1/1/1 52/63/52 2/2/2
f 32/36/32 68/122/68 33/37/33
f 63/85/63 33/84/33 68/123/68
f 57/69/57 42/68/42 61/81/61
f 57/73/57 61/108/61 59/74/59
f 39/120/39 7/7/7 21/114/21
f 27/30/27 7/7/7 39/120/39
f 69/118/69 16/16/16 12/124/12
f 16/16/16 15/15/15 12/124/12
f 39/120/39 40/49/40 27/30/27
f 40/49/40 17/17/17 27/30/27
f 64/87/64 48/57/48 47/56/47
f 47/56/47 46/55/46 64/87/64
