# Blender v2.90.1 OBJ File: 'Crystal_OBJ.blend'
# www.blender.org
mtllib Crystal_21_low.mtl
o Crystal_21_low
v -0.188487 0.613643 0.030583
v -0.182461 1.575871 0.075004
v -0.124645 1.608332 -0.021494
v 0.064795 1.786898 -0.085528
v 0.029967 0.937384 -0.124731
v 0.029963 1.801910 -0.142739
v -0.164178 0.010541 0.236514
v 0.099021 0.058287 0.177361
v 0.023537 0.707068 0.237341
v -0.068929 1.966726 0.013902
v -0.131588 1.556188 -0.143518
v -0.188773 0.089760 -0.177212
v -0.181832 0.032967 -0.002844
v 0.010000 0.008565 -0.177274
v 0.046779 0.002942 0.012747
v 0.158169 0.050260 -0.216240
v 0.108638 0.630554 0.114785
v 0.211848 1.677521 0.037809
v 0.059331 1.430811 0.120668
v -0.170446 1.587015 0.138914
v -0.048316 1.618194 0.142802
v 0.002331 1.234895 0.236646
v -0.200215 0.591330 0.104846
v -0.005249 2.156429 0.144795
v 0.176969 0.822052 -0.096739
v 0.161912 1.885092 -0.058789
v 0.163750 0.350908 0.128077
v 0.224724 0.129271 -0.040687
v 0.124368 2.199832 0.091986
v -0.032809 1.495961 -0.214038
v -0.126378 0.106715 -0.216343
v 0.005241 0.401318 -0.196534
v -0.235825 0.011536 0.081094
v 0.008613 2.225235 -0.044373
v 0.123958 0.784672 -0.174198
v 0.146256 0.010038 0.133278
v 0.069979 -0.009004 0.036576
vt 0.940185 0.466164
vt 0.916386 0.086015
vt 0.959505 0.044497
vt 0.230701 0.221659
vt 0.258329 0.576767
vt 0.203015 0.231310
vt 0.840744 0.728539
vt 0.720660 0.695182
vt 0.784272 0.409099
vt 0.151255 0.135219
vt 0.070904 0.702161
vt 0.132381 0.324723
vt 0.176500 0.940943
vt 0.789537 0.867730
vt 0.870602 0.793234
vt 0.888052 0.874156
vt 0.934567 0.773953
vt 0.459767 0.303798
vt 0.578179 0.773398
vt 0.480294 0.677292
vt 0.891654 0.082838
vt 0.852296 0.035313
vt 0.815014 0.200796
vt 0.903286 0.471060
vt 0.717231 0.434647
vt 0.780960 0.112279
vt 0.532179 0.925668
vt 0.458061 0.768003
vt 0.465050 0.917105
vt 0.389387 0.792058
vt 0.330479 0.619351
vt 0.268676 0.171317
vt 0.467281 0.173848
vt 0.539838 0.069464
vt 0.605829 0.394312
vt 0.622732 0.851864
vt 0.565346 0.926000
vt 0.182549 0.350055
vt 0.208434 0.930542
vt 0.253176 0.799323
vt 0.779862 0.790753
vt 0.798571 0.969738
vt 0.768012 0.904869
vt 0.916389 0.728224
vt 0.188024 0.024453
vt 0.296173 0.643927
vt 0.089816 0.290311
vt 0.446631 0.012735
vt 0.622732 0.013181
vt 0.330479 0.943560
vt 0.269592 0.966195
vt 0.417047 0.039029
vt 0.934567 0.923689
vt 0.898456 0.884969
vt 0.913389 0.950739
vt 0.584267 0.987265
vt 0.096746 0.970387
vt 0.959505 0.717970
vt 0.802208 0.767916
vn -0.9532 0.0326 -0.3007
vn -0.9056 0.3994 -0.1430
vn -0.9678 0.2518 -0.0009
vn 0.4890 0.1957 -0.8501
vn 0.5843 0.0933 -0.8062
vn 0.2998 0.4733 -0.8283
vn -0.3684 -0.5809 0.7258
vn 0.3756 -0.4170 0.8276
vn 0.2415 0.0471 0.9693
vn -0.9541 0.1790 -0.2400
vn -0.8437 0.1808 -0.5054
vn -0.7734 -0.4094 -0.4840
vn -0.6547 -0.6760 -0.3382
vn -0.0378 -0.7950 -0.6054
vn -0.1329 -0.9769 -0.1671
vn 0.4719 -0.4977 -0.7278
vn 0.5112 0.0617 0.8573
vn 0.9448 0.0427 0.3249
vn 0.5416 0.1037 0.8342
vn -0.6282 0.5440 0.5562
vn -0.2158 0.3040 0.9279
vn 0.2564 0.0570 0.9649
vn -0.7343 0.0587 0.6763
vn -0.4268 0.4489 0.7851
vn 0.7806 0.1482 -0.6071
vn 0.7046 0.1674 -0.6896
vn 0.6796 0.0406 0.7324
vn 0.9782 -0.2073 -0.0078
vn 0.6595 0.6659 0.3487
vn 0.1324 0.0842 -0.9876
vn -0.1967 -0.2470 -0.9488
vn 0.0880 0.0181 -0.9960
vn -0.7922 -0.6043 -0.0854
vn -0.2458 0.7798 -0.5758
vn 0.3411 0.2414 -0.9085
vn 0.4659 -0.7150 0.5212
vn 0.0360 -0.9989 -0.0299
g Crystal_21_low_Crystal_21_low_Default_OBJ.033
usemtl Default_OBJ.033
s 1
f 1/1/1 2/2/2 3/3/3
f 4/4/4 5/5/5 6/6/6
f 7/7/7 8/8/8 9/9/9
f 6/6/6 10/10/10 4/4/4
f 1/11/1 11/12/11 12/13/12
f 13/14/13 14/15/14 15/16/15
f 15/16/15 14/15/14 16/17/16
f 17/18/17 18/19/18 19/20/19
f 3/3/3 20/21/20 21/22/21
f 22/23/22 20/21/20 23/24/23
f 20/21/20 22/23/22 21/22/21
f 17/25/17 19/26/19 9/9/9
f 18/19/18 24/27/24 19/20/19
f 21/28/21 10/29/10 3/30/3
f 25/31/25 5/5/5 26/32/26
f 27/33/27 28/34/28 18/19/18
f 18/19/18 25/35/25 26/36/26
f 29/37/29 18/19/18 26/36/26
f 11/12/11 10/10/10 6/6/6
f 11/12/11 30/38/30 31/39/31
f 30/38/30 32/40/32 31/39/31
f 13/14/13 12/41/12 14/15/14
f 9/9/9 23/24/23 7/7/7
f 7/42/7 33/43/33 15/16/15
f 23/24/23 33/44/33 7/7/7
f 23/24/23 2/2/2 33/44/33
f 21/28/21 24/27/24 10/29/10
f 34/45/34 4/4/4 10/10/10
f 32/40/32 30/38/30 5/5/5
f 32/40/32 5/5/5 35/46/35
f 11/12/11 3/47/3 10/10/10
f 1/11/1 3/47/3 11/12/11
f 22/23/22 19/26/19 21/22/21
f 24/27/24 21/28/21 19/20/19
f 28/34/28 25/35/25 18/19/18
f 28/34/28 36/48/36 16/49/16
f 35/46/35 16/50/16 32/40/32
f 16/49/16 25/35/25 28/34/28
f 25/31/25 35/46/35 5/5/5
f 25/31/25 16/50/16 35/46/35
f 32/40/32 14/51/14 31/39/31
f 32/40/32 16/50/16 14/51/14
f 33/44/33 2/2/2 1/1/1
f 33/43/33 13/14/13 15/16/15
f 18/19/18 17/18/17 27/33/27
f 8/8/8 17/25/17 9/9/9
f 2/2/2 20/21/20 3/3/3
f 20/21/20 2/2/2 23/24/23
f 27/33/27 36/48/36 28/34/28
f 27/33/27 17/18/17 8/52/8
f 6/6/6 5/5/5 30/38/30
f 11/12/11 6/6/6 30/38/30
f 36/53/36 37/54/37 16/17/16
f 7/42/7 37/54/37 8/55/8
f 34/56/34 29/37/29 26/36/26
f 10/29/10 24/27/24 34/56/34
f 16/17/16 37/54/37 15/16/15
f 37/54/37 7/42/7 15/16/15
f 18/19/18 29/37/29 24/27/24
f 34/56/34 24/27/24 29/37/29
f 8/55/8 37/54/37 36/53/36
f 27/33/27 8/52/8 36/48/36
f 13/57/13 1/11/1 12/13/12
f 13/58/13 33/44/33 1/1/1
f 34/45/34 26/32/26 4/4/4
f 26/32/26 5/5/5 4/4/4
f 19/26/19 22/23/22 9/9/9
f 9/9/9 22/23/22 23/24/23
f 14/15/14 12/41/12 31/59/31
f 12/13/12 11/12/11 31/39/31
